<svg width="500" height="452" viewBox="0 0 500 452" fill="none" xmlns="http://www.w3.org/2000/svg">
<path d="M391 382.08C394.683 380.351 398.822 379.85 402.81 380.65C404.95 381 407.19 381.65 408.64 383.25C410.09 384.85 410.38 387.69 408.7 389.07C407.616 389.807 406.305 390.137 405 390C401.87 390 398.41 389.41 395.92 391.29C394.49 392.36 393.55 394.14 391.85 394.67C390.995 394.869 390.097 394.782 389.297 394.42C388.496 394.059 387.837 393.444 387.42 392.67C386.612 391.106 386.433 389.292 386.92 387.6C387.13 386.428 387.607 385.32 388.315 384.363C389.023 383.406 389.942 382.624 391 382.08Z" fill="#407BFF"/>
<path d="M382.72 366.2C384.92 369.33 389.19 368.3 391.17 366.38C393.15 364.46 393.98 361.69 394.74 359.05C396.48 353 398.24 346.66 396.95 340.5C396.629 338.649 395.81 336.92 394.58 335.5C393.953 334.795 393.152 334.267 392.257 333.969C391.363 333.67 390.405 333.612 389.48 333.8C387.32 334.37 385.99 336.48 385.02 338.48C382.169 344.409 380.676 350.9 380.65 357.48C380.65 360.54 381 363.74 382.72 366.27" fill="#407BFF"/>
<path d="M376.69 370.7C377.82 369.226 378.573 367.497 378.883 365.666C379.193 363.834 379.051 361.954 378.47 360.19C377.261 356.676 375.11 353.563 372.25 351.19C368.999 348.297 365.215 346.065 361.11 344.62C359.524 343.979 357.819 343.689 356.11 343.77C355.256 343.818 354.426 344.075 353.694 344.518C352.962 344.961 352.35 345.576 351.91 346.31C350.73 348.55 351.91 351.26 353.07 353.47C355.211 357.372 357.658 361.097 360.39 364.61C362.58 367.44 365.09 370.23 368.44 371.51C371.79 372.79 375.25 372.63 377.02 370.32" fill="#407BFF"/>
<path d="M382.58 413.51C382.69 413.044 382.754 412.569 382.77 412.09C382.88 411.09 383 409.75 383.15 408.2C383.342 406.283 383.636 404.376 384.03 402.49C384.538 400.195 385.231 397.944 386.1 395.76C386.954 393.578 388.113 391.528 389.54 389.67C390.704 388.155 392.19 386.919 393.89 386.05C395.042 385.478 396.278 385.093 397.55 384.91C398.029 384.893 398.505 384.826 398.97 384.71C398.488 384.658 398.002 384.658 397.52 384.71C396.201 384.817 394.912 385.155 393.71 385.71C391.919 386.552 390.348 387.798 389.12 389.35C387.635 391.237 386.435 393.333 385.56 395.57C384.673 397.785 383.984 400.074 383.5 402.41C383.132 404.32 382.878 406.25 382.74 408.19C382.61 409.84 382.57 411.19 382.55 412.1C382.505 412.57 382.515 413.043 382.58 413.51Z" fill="#263238"/>
<path d="M382.84 410.52C382.87 410.301 382.87 410.079 382.84 409.86V408C382.84 406.36 382.84 404 382.92 401C383.07 395.13 383.57 388.82 384.55 379.92C385.47 371.55 386.71 361.81 388.02 355.48C388.3 354.04 388.58 352.74 388.85 351.61C389.12 350.48 389.32 349.49 389.53 348.7C389.74 347.91 389.85 347.34 389.97 346.86C390.025 346.643 390.065 346.422 390.09 346.2C389.989 346.397 389.912 346.605 389.86 346.82C389.71 347.3 389.53 347.9 389.31 348.64C389.09 349.38 388.81 350.4 388.53 351.53C388.25 352.66 387.92 353.95 387.61 355.39C386.007 362.888 384.802 370.465 384 378.09C383 387.01 382.58 395.09 382.55 401.01C382.55 403.95 382.55 406.33 382.65 408.01C382.65 408.78 382.73 409.41 382.76 409.9C382.768 410.109 382.795 410.316 382.84 410.52Z" fill="#263238"/>
<path d="M382.88 394.86C382.936 394.194 382.936 393.525 382.88 392.86C382.767 391.068 382.563 389.282 382.27 387.51C381.842 384.879 381.261 382.274 380.53 379.71C379.684 376.554 378.594 373.468 377.27 370.48C375.008 364.973 371.765 359.921 367.7 355.57C366.992 354.826 366.237 354.128 365.44 353.48C365.1 353.18 364.79 352.89 364.44 352.66L363.57 352.06C363.046 351.658 362.487 351.303 361.9 351C363.82 352.5 365.641 354.124 367.35 355.86C371.293 360.241 374.452 365.268 376.69 370.72C377.987 373.69 379.083 376.743 379.97 379.86C380.723 382.399 381.34 384.976 381.82 387.58C382.23 389.81 382.47 391.58 382.61 392.88C382.652 393.546 382.742 394.207 382.88 394.86Z" fill="#263238"/>
<path d="M367.74 422.49L369.31 443.99H396.94L398.5 422.49H367.74Z" fill="#263238"/>
<path d="M401.81 414.01H365.08V422.49H401.81V414.01Z" fill="#263238"/>
<path d="M365.08 443.17V445.51H366.8H401.19V443.17H365.08Z" fill="#455A64"/>
<path d="M368.49 449.65L366.8 445.51H399.88L397.9 449.65H368.49Z" fill="#455A64"/>
<path d="M398 429.51C398 429.51 398 429.59 397.87 429.71L397.46 430.26L395.85 432.32L395.78 432.41L395.71 432.31L391.76 426.85H392L388.1 432.36L387.98 432.53L387.84 432.37L383.23 426.87H383.49L383.24 427.19L379.11 432.36L378.98 432.54L378.85 432.36C377.45 430.36 376.14 428.52 374.95 426.85H375.18L370.39 432.31L370.3 432.41L370.23 432.3C369.6 431.24 369.1 430.39 368.73 429.78L368.35 429.11C368.3 429.036 368.26 428.955 368.23 428.87C368.23 428.87 368.29 428.93 368.39 429.08L368.82 429.73L370.39 432.2H370.24L374.96 426.67L375.08 426.53L375.19 426.68L379.12 432.17H378.85L383 427L383.26 426.68L383.39 426.51L383.52 426.67L388.13 432.18H387.87L391.8 426.69L391.91 426.53L392.03 426.69C393.58 428.92 394.91 430.81 395.9 432.22H395.75L397.43 430.22L397.88 429.7L398 429.51Z" fill="#E0E0E0"/>
<path d="M398.89 422.34C398.89 422.44 391.97 422.52 383.43 422.52C374.89 422.52 367.97 422.44 367.97 422.34C367.97 422.24 374.89 422.17 383.43 422.17C391.97 422.17 398.89 422.25 398.89 422.34Z" fill="#455A64"/>
<path d="M400.29 445.75C400.29 445.84 392.76 445.92 383.49 445.92C374.22 445.92 366.69 445.84 366.69 445.75C366.69 445.66 374.21 445.57 383.49 445.57C392.77 445.57 400.29 445.65 400.29 445.75Z" fill="#263238"/>
<path d="M127.8 377.15C127.72 377.24 127.09 376.86 126.39 376.3C125.69 375.74 125.18 375.21 125.26 375.11C125.34 375.01 125.96 375.4 126.66 375.96C127.36 376.52 127.87 377.05 127.8 377.15Z" fill="#263238"/>
<path d="M147 348.51C147.273 345.843 147.052 343.148 146.35 340.56C145.51 338.01 143.55 335.68 140.93 335.13C137.93 334.51 134.87 336.4 133.19 338.96C131.51 341.52 130.94 344.62 130.44 347.63C127.029 368.429 125.772 389.524 126.69 410.58L138.93 412.3C144.26 390.33 146 371.12 147 348.51Z" fill="#455A64"/>
<path d="M139.18 335L139.12 335.2L138.92 335.75L138.1 337.87C137.93 338.33 137.7 338.87 137.52 339.4L136.93 341.25L136.24 343.38L135.61 345.81C134.582 349.824 133.791 353.894 133.24 358C132.58 362.6 132.15 367.7 131.8 373.06C131.18 383.79 131.08 393.53 130.8 400.57C130.67 404.1 130.55 406.95 130.42 408.91C130.35 409.91 130.3 410.62 130.26 411.18C130.26 411.41 130.26 411.61 130.26 411.76C130.26 411.91 130.26 411.96 130.26 411.96C130.26 411.96 130.26 411.9 130.26 411.76C130.26 411.62 130.26 411.41 130.26 411.17C130.26 410.62 130.26 409.86 130.33 408.9C130.41 406.9 130.48 404.09 130.57 400.56C130.77 393.56 130.82 383.78 131.45 373.04C131.79 367.67 132.24 362.56 132.92 357.94C133.493 353.847 134.318 349.792 135.39 345.8L136.05 343.37C136.31 342.623 136.55 341.913 136.77 341.24L137.41 339.39C137.6 338.83 137.84 338.33 138.02 337.87L138.92 335.79C139.013 335.57 139.093 335.39 139.16 335.25C139.153 335.166 139.159 335.082 139.18 335Z" fill="#263238"/>
<path d="M140.31 335.05C140.948 335.804 141.455 336.659 141.81 337.58C142.746 340.109 143.125 342.811 142.92 345.5C142.6 352.27 141.99 361.59 141.19 371.89C140.39 382.19 139.48 391.49 138.76 398.22C138.39 401.58 138.08 404.3 137.85 406.22C137.73 407.13 137.64 407.85 137.57 408.38L137.49 408.94C137.495 409.003 137.495 409.067 137.49 409.13C137.49 409.13 137.49 409.07 137.49 408.94C137.49 408.81 137.49 408.6 137.49 408.37C137.49 407.84 137.6 407.12 137.68 406.2C137.87 404.28 138.13 401.57 138.45 398.2C139.09 391.46 139.94 382.2 140.75 371.86C141.56 361.52 142.21 352.25 142.61 345.5C142.828 342.842 142.487 340.168 141.61 337.65C141.254 336.747 140.819 335.877 140.31 335.05Z" fill="#263238"/>
<path d="M148.801 366.74C147.997 366.682 147.211 366.479 146.481 366.14C145.704 365.938 144.969 365.599 144.311 365.14C145.115 365.193 145.902 365.396 146.631 365.74C147.408 365.94 148.143 366.279 148.801 366.74Z" fill="#263238"/>
<path d="M150.28 354.26C149.616 354.79 148.87 355.206 148.07 355.49C147.327 355.902 146.518 356.182 145.68 356.32C147.082 355.372 148.638 354.675 150.28 354.26Z" fill="#263238"/>
<path d="M149.51 344.07C148.301 344.288 147.057 344.202 145.89 343.82C146.481 343.65 147.104 343.62 147.71 343.73C148.328 343.703 148.944 343.819 149.51 344.07Z" fill="#263238"/>
<path d="M136.871 337.55C136.771 337.61 136.231 336.94 135.681 336.06C135.28 335.551 134.997 334.961 134.851 334.33C134.951 334.27 135.491 334.93 136.051 335.82C136.611 336.71 137.001 337.48 136.871 337.55Z" fill="#263238"/>
<path d="M132.7 343.71C132.144 343.91 131.546 343.972 130.96 343.89C130.371 343.946 129.777 343.857 129.23 343.63C129.787 343.43 130.384 343.368 130.97 343.45C131.56 343.393 132.154 343.483 132.7 343.71Z" fill="#263238"/>
<path d="M129.7 356C129.06 355.974 128.434 355.803 127.87 355.5C127.253 355.325 126.682 355.014 126.2 354.59C126.84 354.616 127.466 354.787 128.03 355.09C128.647 355.266 129.218 355.576 129.7 356Z" fill="#263238"/>
<path d="M129.38 366.39C129.38 366.51 128.71 366.76 127.82 366.94C126.93 367.12 126.2 367.19 126.17 367.07C126.14 366.95 126.85 366.7 127.73 366.52C128.261 366.341 128.828 366.296 129.38 366.39Z" fill="#263238"/>
<path d="M128 383.35C128 383.47 127.28 383.7 126.34 383.87C125.779 384.037 125.185 384.065 124.61 383.95C125.115 383.649 125.684 383.474 126.27 383.44C126.83 383.267 127.425 383.236 128 383.35Z" fill="#263238"/>
<path d="M127 392.71C127.06 392.81 126.44 393.25 125.62 393.71C124.8 394.17 124.09 394.41 124.04 394.3C123.99 394.19 124.6 393.76 125.42 393.3C126.24 392.84 127 392.6 127 392.71Z" fill="#263238"/>
<path d="M134.67 403.33C134.57 403.39 134.03 402.65 133.47 401.67C133.065 401.109 132.786 400.468 132.65 399.79C132.75 399.73 133.29 400.47 133.85 401.45C134.255 402.011 134.535 402.652 134.67 403.33Z" fill="#263238"/>
<path d="M136.88 385.68C136.96 385.76 136.36 386.49 135.54 387.3C134.72 388.11 133.98 388.69 133.89 388.6C133.8 388.51 134.41 387.79 135.23 386.98C136.05 386.17 136.79 385.59 136.88 385.68Z" fill="#263238"/>
<path d="M136.39 376.41C136.3 376.5 135.75 376.04 135.15 375.41C134.55 374.78 134.15 374.17 134.23 374.09C134.31 374.01 134.87 374.46 135.47 375.09C136.07 375.72 136.48 376.33 136.39 376.41Z" fill="#263238"/>
<path d="M137.91 364.58C138 364.66 137.5 365.37 136.79 366.15C136.08 366.93 135.44 367.52 135.35 367.44C135.26 367.36 135.76 366.65 136.46 365.86C137.16 365.07 137.82 364.5 137.91 364.58Z" fill="#263238"/>
<path d="M138.76 356C138.67 356.09 137.98 355.54 137.2 354.78C136.42 354.02 135.87 353.33 135.95 353.24C136.03 353.15 136.73 353.7 137.51 354.47C138.29 355.24 138.84 355.91 138.76 356Z" fill="#263238"/>
<path d="M140.44 344.38C140.307 345.011 140.038 345.605 139.65 346.12C139.12 347.02 138.6 347.7 138.5 347.64C138.4 347.58 138.74 346.8 139.28 345.9C139.82 345 140.33 344.32 140.44 344.38Z" fill="#263238"/>
<path d="M143.59 333.62C143.7 333.68 143.39 334.46 142.9 335.36C142.41 336.26 141.9 336.95 141.82 336.9C141.915 336.275 142.151 335.68 142.51 335.16C143 334.25 143.48 333.57 143.59 333.62Z" fill="#263238"/>
<path d="M147.17 338.51C147.22 338.62 146.73 338.96 146.07 339.28C145.41 339.6 144.84 339.76 144.79 339.65C144.74 339.54 145.23 339.2 145.89 338.88C146.55 338.56 147.12 338.4 147.17 338.51Z" fill="#263238"/>
<path d="M147.25 377.15C145.589 377.029 144.016 376.357 142.78 375.24C143.559 375.476 144.312 375.787 145.03 376.17C145.802 376.42 146.546 376.748 147.25 377.15Z" fill="#263238"/>
<path d="M145.79 385.33C145.79 385.45 145.08 385.69 144.14 385.87C143.581 386.049 142.987 386.087 142.41 385.98C142.91 385.673 143.475 385.489 144.06 385.44C145 385.26 145.77 385.21 145.79 385.33Z" fill="#263238"/>
<path d="M144 399.36C143.93 399.46 143 398.81 142.14 397.73C141.567 397.113 141.164 396.359 140.97 395.54C141.529 396.134 142.034 396.777 142.48 397.46C143.044 398.045 143.552 398.681 144 399.36Z" fill="#263238"/>
<path d="M124.31 405.78C124.23 405.69 124.73 405.13 125.42 404.54C126.11 403.95 126.74 403.54 126.82 403.64C126.9 403.74 126.4 404.28 125.71 404.88C125.02 405.48 124.39 405.87 124.31 405.78Z" fill="#263238"/>
<path d="M118.65 375.16C117.85 372.67 116.36 369.77 113.75 369.73C112.972 369.772 112.22 370.023 111.573 370.456C110.925 370.888 110.406 371.487 110.07 372.19C109.351 373.578 109.007 375.129 109.07 376.69C109.392 387.773 111.281 398.756 114.68 409.31H124.25C124.134 397.708 122.245 386.192 118.65 375.16Z" fill="#455A64"/>
<path d="M101.36 359.49C100.887 357.158 99.6437 355.052 97.8303 353.51C96.0169 351.969 93.7383 351.081 91.3601 350.99C87.1301 351.73 85.4901 355.89 84.9901 360.15C84.4901 364.41 85.8101 368.65 87.1201 372.74C91.3068 385.86 95.5001 398.983 99.7001 412.11L111.6 410.81C107.88 393.23 105.72 376.93 101.36 359.49Z" fill="#455A64"/>
<path d="M113.75 369.73C113.441 370.155 113.17 370.607 112.94 371.08C112.447 372.432 112.292 373.884 112.49 375.31C112.67 377.13 112.88 379.31 113.19 381.71C113.5 384.11 113.93 386.71 114.47 389.49C115.55 394.99 116.77 399.91 117.54 403.49C117.93 405.28 118.23 406.74 118.41 407.75C118.49 408.22 118.56 408.6 118.61 408.92C118.66 409.24 118.67 409.33 118.61 409.33C118.558 409.204 118.518 409.073 118.49 408.94L118.21 407.79C117.95 406.72 117.61 405.29 117.21 403.56C116.36 399.98 115.09 395.07 114.01 389.56C113.47 386.8 113.01 384.16 112.76 381.74C112.6 380.54 112.5 379.38 112.4 378.31C112.3 377.24 112.2 376.23 112.15 375.31C111.979 373.842 112.186 372.355 112.75 370.99C112.988 370.502 113.329 370.072 113.75 369.73Z" fill="#263238"/>
<path d="M91.5798 350.65C91.0495 351.254 90.568 351.9 90.1398 352.58C89.0445 354.481 88.4237 356.618 88.3298 358.81C88.28 362.06 88.7769 365.295 89.7998 368.38C90.7998 371.92 91.9898 375.81 93.1998 379.88C95.5698 388.04 97.7098 395.42 99.2798 400.81L101.08 407.17C101.28 407.89 101.43 408.46 101.55 408.9C101.615 409.098 101.659 409.302 101.68 409.51C101.588 409.324 101.514 409.13 101.46 408.93C101.33 408.49 101.14 407.93 100.92 407.21C100.45 405.68 99.7898 403.53 98.9898 400.9L92.7798 380C91.5798 375.91 90.4498 372 89.4098 368.48C88.3911 365.351 87.9208 362.069 88.0198 358.78C88.1486 356.546 88.8363 354.379 90.0198 352.48C90.4352 351.788 90.9623 351.17 91.5798 350.65Z" fill="#263238"/>
<path d="M109.05 409.54C108.949 409.355 108.859 409.165 108.78 408.97C108.63 408.58 108.38 408.03 108.11 407.29C107.54 405.83 106.81 403.68 106.11 400.98C105.41 398.28 104.61 394.98 103.89 391.38C103.17 387.78 102.45 383.75 101.65 379.55C100.85 375.35 99.9101 371.4 98.8401 367.87C97.9118 364.732 96.752 361.667 95.3701 358.7C94.4307 356.704 93.3583 354.773 92.1601 352.92C91.7501 352.26 91.3801 351.77 91.1601 351.43C91.0349 351.26 90.9245 351.079 90.8301 350.89C90.9768 351.039 91.1106 351.199 91.2301 351.37C91.4801 351.71 91.8701 352.17 92.3001 352.83C93.5649 354.653 94.6849 356.572 95.6501 358.57C97.0845 361.529 98.2784 364.599 99.2201 367.75C100.35 371.606 101.277 375.518 102 379.47C102.79 383.66 103.53 387.66 104.21 391.31C104.89 394.96 105.61 398.19 106.33 400.9C107.05 403.61 107.72 405.76 108.24 407.23C108.48 407.98 108.71 408.54 108.84 408.93C108.933 409.125 109.003 409.33 109.05 409.54Z" fill="#263238"/>
<path d="M87.3801 370.78C87.3801 370.89 86.7601 371.15 85.9301 371.35C85.1001 371.55 84.4101 371.62 84.3901 371.5C84.3701 371.38 85.0001 371.13 85.8301 370.93C86.6601 370.73 87.3501 370.66 87.3801 370.78Z" fill="#263238"/>
<path d="M86.1201 362.66C85.4701 362.843 84.7943 362.917 84.1201 362.88C83.4549 362.974 82.7785 362.954 82.1201 362.82C82.7429 362.523 83.4318 362.392 84.1201 362.44C84.7946 362.342 85.4831 362.417 86.1201 362.66Z" fill="#263238"/>
<path d="M87.4605 355.24C87.3805 355.34 86.7305 354.92 86.0205 354.31C85.3105 353.7 84.7805 353.13 84.8605 353.04C84.9405 352.95 85.5805 353.36 86.3005 353.97C87.0205 354.58 87.5405 355.15 87.4605 355.24Z" fill="#263238"/>
<path d="M91.0904 348.38C91.2104 348.38 91.1705 348.99 91.1605 349.68C91.1505 350.37 91.1605 350.96 91.0105 350.98C90.8605 351 90.7005 350.42 90.7205 349.67C90.7405 348.92 91.0004 348.35 91.0904 348.38Z" fill="#263238"/>
<path d="M98.4998 351.61C98.5998 351.68 98.3098 352.27 97.8498 352.92C97.3898 353.57 96.9398 354.05 96.8498 353.98C96.7598 353.91 97.0398 353.33 97.4898 352.67C97.9398 352.01 98.3998 351.54 98.4998 351.61Z" fill="#263238"/>
<path d="M103.31 360C103.31 360.12 102.74 360.47 101.94 360.8C101.14 361.13 100.44 361.3 100.4 361.19C100.36 361.08 100.97 360.72 101.77 360.4C102.57 360.08 103.27 359.86 103.31 360Z" fill="#263238"/>
<path d="M106.23 368.57C105.701 369.029 105.046 369.318 104.35 369.4C103.684 369.616 102.97 369.64 102.29 369.47C102.932 369.216 103.604 369.048 104.29 368.97C104.918 368.758 105.57 368.624 106.23 368.57Z" fill="#263238"/>
<path d="M92.8301 366.13C92.7201 366.13 92.8301 365.5 93.0201 364.8C93.2101 364.1 93.5101 363.57 93.6201 363.61C93.7301 363.65 93.6201 364.24 93.4301 364.94C93.2401 365.64 93.0001 366.17 92.8301 366.13Z" fill="#263238"/>
<path d="M94.7001 376.93C94.7406 376.3 94.9253 375.687 95.2401 375.14C95.6501 374.2 96.0701 373.48 96.1801 373.53C96.1397 374.16 95.9549 374.773 95.6401 375.32C95.2301 376.26 94.8101 377 94.7001 376.93Z" fill="#263238"/>
<path d="M90.0802 379.89C89.4909 379.876 88.91 379.747 88.3702 379.51C87.4602 379.22 86.7201 378.96 86.7501 378.84C87.3454 378.764 87.9501 378.85 88.5001 379.09C89.4301 379.38 90.1302 379.78 90.0802 379.89Z" fill="#263238"/>
<path d="M92.7405 388.69C92.8105 388.79 92.3005 389.27 91.6105 389.77C90.9205 390.27 90.2805 390.59 90.2105 390.5C90.1405 390.41 90.6505 389.91 91.3505 389.41C92.0505 388.91 92.6705 388.59 92.7405 388.69Z" fill="#263238"/>
<path d="M94.8801 397.47C94.8801 397.58 94.2801 397.84 93.4701 398.03C92.6601 398.22 91.9901 398.29 91.9601 398.18C91.9301 398.07 92.5601 397.81 93.3701 397.61C94.1801 397.41 94.8501 397.35 94.8801 397.47Z" fill="#263238"/>
<path d="M106.47 375.91C106.53 376.01 105.99 376.44 105.21 376.73C104.43 377.02 103.73 377.06 103.71 376.95C103.69 376.84 104.31 376.61 105.05 376.32C105.79 376.03 106.41 375.8 106.47 375.91Z" fill="#263238"/>
<path d="M108.121 389.56C108.071 389.67 107.431 389.48 106.691 389.13C105.951 388.78 105.391 388.41 105.441 388.3C105.491 388.19 106.141 388.39 106.881 388.73C107.621 389.07 108.181 389.45 108.121 389.56Z" fill="#263238"/>
<path d="M111.05 399.34C110.388 399.307 109.74 399.133 109.15 398.83C108.15 398.44 107.38 398.03 107.42 397.91C108.079 397.944 108.724 398.118 109.31 398.42C110.31 398.81 111.09 399.22 111.05 399.34Z" fill="#263238"/>
<path d="M95.3501 407C95.2901 406.89 96.0701 406.37 96.9701 405.66C97.8701 404.95 98.5701 404.31 98.6601 404.4C98.7501 404.49 98.1801 405.26 97.2401 406C96.7172 406.505 96.0619 406.852 95.3501 407Z" fill="#263238"/>
<path d="M103.071 402C102.951 402 102.781 401.36 102.481 400.6C102.181 399.84 101.881 399.23 101.981 399.16C102.081 399.09 102.581 399.61 102.891 400.44C103.201 401.27 103.191 402 103.071 402Z" fill="#263238"/>
<path d="M101 390.27C100.93 390.37 100.43 390.13 99.8801 389.74C99.3301 389.35 98.9501 388.95 99.0201 388.85C99.0901 388.75 99.5901 388.99 100.14 389.38C100.69 389.77 101.1 390.17 101 390.27Z" fill="#263238"/>
<path d="M119 371.85C119.07 371.95 118.58 372.43 117.91 372.92C117.24 373.41 116.64 373.74 116.57 373.64C116.5 373.54 116.98 373.07 117.65 372.57C118.32 372.07 119 371.75 119 371.85Z" fill="#263238"/>
<path d="M121.75 379.27C121.75 379.39 121 379.55 120.06 379.45C119.12 379.35 118.41 379.03 118.44 378.92C118.47 378.81 119.21 378.92 120.11 379.01C121.01 379.1 121.74 379.15 121.75 379.27Z" fill="#263238"/>
<path d="M110.08 380.94C110.08 381.05 109.41 381.3 108.49 381.36C107.57 381.42 106.85 381.27 106.86 381.15C106.87 381.03 107.59 380.99 108.47 380.93C109.35 380.87 110.06 380.82 110.08 380.94Z" fill="#263238"/>
<path d="M111.09 373.92C111.09 374.04 110.37 374.06 109.59 373.69C108.81 373.32 108.36 372.79 108.44 372.69C108.52 372.59 109.06 372.97 109.77 373.29C110.48 373.61 111.1 373.8 111.09 373.92Z" fill="#263238"/>
<path d="M122.75 387.24C122.69 387.34 121.96 387 121.12 386.47C120.28 385.94 119.66 385.47 119.73 385.33C119.8 385.19 120.52 385.58 121.36 386.1C122.2 386.62 122.82 387.14 122.75 387.24Z" fill="#263238"/>
<path d="M151.22 408.06H88.9697V419.09H151.22V408.06Z" fill="#FAD564"/>
<path d="M93.6201 416.91L101.19 449.88H138.29L146.57 416.91H93.6201Z" fill="#FAD564"/>
<path d="M151.19 419.11C151.19 419.23 137.19 419.33 119.83 419.33C102.47 419.33 88.4697 419.23 88.4697 419.11C88.4697 418.99 102.47 418.89 119.83 418.89C137.19 418.89 151.19 419 151.19 419.11Z" fill="#263238"/>
<path d="M116.57 381.18C116.47 381.24 116.04 380.75 115.62 380.07C115.2 379.39 114.94 378.79 115.04 378.73C115.14 378.67 115.57 379.16 115.99 379.84C116.41 380.52 116.67 381.11 116.57 381.18Z" fill="#263238"/>
<path d="M116.59 390.05C116.56 389.475 116.673 388.901 116.92 388.38C117.21 387.49 117.55 386.8 117.66 386.84C117.69 387.419 117.577 387.996 117.33 388.52C117 389.4 116.71 390.09 116.59 390.05Z" fill="#263238"/>
<path d="M119.63 399.37C119.52 399.43 119.06 398.68 118.63 397.71C118.285 397.147 118.067 396.516 117.99 395.86C118.1 395.8 118.56 396.55 118.99 397.52C119.335 398.083 119.554 398.714 119.63 399.37Z" fill="#263238"/>
<path d="M113.06 406.87C112.97 406.79 113.34 406.22 113.89 405.58C114.44 404.94 114.95 404.5 115.05 404.58C115.15 404.66 114.77 405.24 114.22 405.87C113.67 406.5 113.15 407 113.06 406.87Z" fill="#263238"/>
<path d="M111.681 393.26C111.681 393.38 111.061 393.37 110.341 393.26C109.621 393.15 109.061 392.94 109.081 392.82C109.101 392.7 109.701 392.71 110.411 392.82C111.121 392.93 111.701 393.14 111.681 393.26Z" fill="#263238"/>
<path d="M328.25 332.24H180.63V449.96H328.25V332.24Z" fill="#E0E0E0"/>
<g opacity="0.3">
<path d="M191.38 332.48C208.76 338.68 227.93 340.01 246.58 340.36C250.45 340.43 254.36 340.42 258.1 341.36C261.84 342.3 265.45 344.43 267.37 347.78C269.46 351.43 269.24 356 268.05 360.03C266.86 364.06 264.81 367.79 263.33 371.72C260.709 378.673 259.908 386.18 261 393.53C261.336 396.661 262.39 399.673 264.08 402.33C264.936 403.65 266.089 404.752 267.447 405.547C268.805 406.343 270.33 406.809 271.9 406.91C277.51 406.99 281.35 401.48 284.13 396.6C295.54 376.6 307.88 353.9 315.18 332.07L191.38 332.48Z" fill="black"/>
</g>
<path d="M230.93 449.33C230.78 449.33 230.67 423.24 230.67 391.06C230.67 358.88 230.78 332.78 230.93 332.78C231.08 332.78 231.19 358.87 231.19 391.06C231.19 423.25 231.07 449.33 230.93 449.33Z" fill="#455A64"/>
<path d="M291.42 245.24C290.98 242.3 282.2 232.6 282.2 232.6C282.2 232.6 277.82 214.99 276.5 209.8C276.06 208.3 275.418 206.866 274.59 205.54C271.485 200.368 267.069 196.108 261.79 193.19L249.64 186.36L246.74 179.9L217.56 164.9L209.65 178.9C209.65 178.9 190.44 185 187.9 189.33C185.36 193.66 189.16 252.13 189.16 252.13C189.16 252.13 181.16 285.85 179.43 292.83C177.7 299.81 179.97 308.13 179.97 308.13L194.28 290.18C198.73 284.6 208.49 282.03 215.5 282.13L275.41 282.4L273 265.62L321.47 275C321.47 275 329.8 258.74 330.47 258.42C331.14 258.1 291.42 245.24 291.42 245.24Z" fill="#407BFF"/>
<path d="M216.32 184.35C215.9 183.92 219.7 196.77 224.48 209.86C227.051 216.934 228.361 224.404 228.35 231.93V279.33L257.07 277.38L252.78 246.16C252.78 246.16 249.28 226.02 248.3 218.36C247.4 211.36 244.3 192.36 244.3 192.36C244.3 192.36 228.35 196.6 216.32 184.35Z" fill="white"/>
<path d="M280.06 257C280.015 256.759 280.015 256.511 280.06 256.27C280.126 255.616 280.253 254.97 280.44 254.34C281.047 252.237 282.175 250.321 283.72 248.77C285.273 247.224 287.188 246.09 289.29 245.47C289.92 245.283 290.566 245.156 291.22 245.09C291.458 245.045 291.702 245.045 291.94 245.09C291.94 245.18 290.94 245.29 289.4 245.82C287.401 246.506 285.586 247.64 284.094 249.136C282.601 250.632 281.471 252.45 280.79 254.45C280.26 256 280.15 257 280.06 257Z" fill="#263238"/>
<path d="M281.54 245.64C282.874 244.857 284.384 244.42 285.93 244.37C287.461 244.158 289.021 244.344 290.46 244.91C290.46 245.07 288.46 244.68 285.97 244.91C283.48 245.14 281.6 245.79 281.54 245.64Z" fill="#263238"/>
<g opacity="0.3">
<path d="M186.27 271.51L183.77 274.33C186.376 277.548 189.909 279.887 193.89 281.03C197.901 281.881 202 282.251 206.1 282.13C207.76 282.21 209.424 282.052 211.04 281.66C212.67 281.19 214.18 280.27 215.87 280.17C217.003 280.175 218.13 280.337 219.22 280.65C220.316 280.961 221.475 280.978 222.58 280.7C223.127 280.552 223.612 280.232 223.963 279.787C224.314 279.343 224.513 278.796 224.53 278.23C212.063 274.586 199.232 272.333 186.27 271.51Z" fill="black"/>
</g>
<path d="M268.27 275.13L261.27 267.65L246.72 264C246.72 264 233.44 268 233.12 268C232.8 268 221.56 264.92 221.56 264.92L217.63 279.34L237.88 280.73L261 279.8C261 279.8 262.21 278.68 261.49 277.91C260.77 277.14 265.36 279.21 265.9 279.23C266.44 279.25 267.48 279.67 268.2 278.81C268.69 278.17 269.35 276.28 268.27 275.13Z" fill="#FFBE9D"/>
<path d="M261.49 277.86C260.704 277.712 259.934 277.491 259.19 277.2C257.79 276.76 255.84 276.2 253.67 275.6C251.5 275 249.5 274.6 248.05 274.35C247.256 274.247 246.476 274.062 245.72 273.8C246.521 273.765 247.323 273.826 248.11 273.98C250.022 274.247 251.919 274.621 253.79 275.1C255.663 275.576 257.507 276.163 259.31 276.86C260.076 277.099 260.808 277.435 261.49 277.86Z" fill="#EB996E"/>
<path d="M268.27 275.13C267.179 274.854 266.104 274.521 265.05 274.13C263.05 273.47 260.32 272.65 257.25 271.8C254.18 270.95 251.46 269.98 249.39 269.86C248.275 269.803 247.157 269.846 246.05 269.99C246.32 269.841 246.615 269.74 246.92 269.69C247.737 269.513 248.574 269.446 249.41 269.49C251.55 269.49 254.41 270.4 257.41 271.3C260.41 272.2 263.23 273.03 265.19 273.79C266.19 274.16 266.94 274.5 267.48 274.74C267.761 274.83 268.027 274.962 268.27 275.13Z" fill="#EB996E"/>
<path d="M187.9 189.33C187.9 189.33 177.45 196.6 174.9 207.06C172.35 217.52 161.34 260.27 163.6 266.66C165.86 273.05 209.8 279.33 209.8 279.33L215.01 257.33L192.69 251.22C192.69 251.22 192.98 230.87 193.26 222.44C193.54 214.01 187.9 189.33 187.9 189.33Z" fill="#407BFF"/>
<path d="M214.729 260.64L221.919 262.41L217.589 278.99L210.529 277.86L214.729 260.64Z" fill="white"/>
<path d="M163.44 264.4C163.44 264.4 163.44 264.77 163.55 265.4C163.793 266.367 164.327 267.236 165.08 267.89C166.99 269.67 170.64 271.15 175.26 271.98C177.37 272.68 179.78 273.23 182.35 273.81C184.92 274.39 187.7 274.98 190.62 275.57C196.47 276.77 202.94 278.03 209.8 279.31L209.5 279.5C209.99 277.5 210.5 275.31 211.05 273.12C212.28 268.12 213.48 263.2 214.61 258.57L214.79 258.87L195 253.26C192.268 252.11 189.311 251.59 186.35 251.74C184.1 251.865 181.889 252.387 179.82 253.28C178.505 253.849 177.249 254.546 176.07 255.36L175.16 256.02C175.061 256.1 174.953 256.171 174.84 256.23C174.84 256.23 174.93 256.13 175.12 255.97C175.31 255.81 175.6 255.56 176 255.26C177.161 254.399 178.412 253.665 179.73 253.07C181.812 252.126 184.048 251.567 186.33 251.42C189.343 251.228 192.36 251.727 195.15 252.88L215 258.44L215.24 258.5L215.18 258.74C214.05 263.37 212.86 268.25 211.64 273.3C211.1 275.48 210.58 277.64 210.08 279.67L210.02 279.91H209.78C202.92 278.62 196.46 277.34 190.61 276.12C187.69 275.51 184.92 274.9 182.34 274.3C179.76 273.7 177.34 273.13 175.22 272.4C170.54 271.51 166.89 269.97 164.96 268.1C164.195 267.412 163.669 266.498 163.46 265.49C163.388 265.131 163.381 264.762 163.44 264.4Z" fill="#263238"/>
<path d="M193.91 252.71C193.85 252.78 193.1 252.09 191.76 251.2C188.251 248.85 184.102 247.638 179.88 247.73C178.26 247.73 177.27 247.95 177.25 247.86C178.088 247.557 178.969 247.391 179.86 247.37C184.199 247.056 188.506 248.308 192 250.9C192.732 251.394 193.378 252.005 193.91 252.71Z" fill="#263238"/>
<path d="M196.84 216.91C196.876 217.356 196.876 217.804 196.84 218.25C196.84 219.12 196.75 220.36 196.63 221.9C196.38 224.97 195.93 229.2 195.12 233.84C194.487 237.81 193.561 241.727 192.35 245.56C192.11 246.29 191.85 246.95 191.64 247.56L191 249C190.812 249.411 190.581 249.8 190.31 250.16C190.435 249.731 190.603 249.316 190.81 248.92C190.98 248.49 191.16 248 191.37 247.46C191.58 246.92 191.78 246.22 192 245.46C193.093 241.613 193.964 237.707 194.61 233.76C195.41 229.14 195.92 224.93 196.26 221.87C196.41 220.42 196.54 219.21 196.64 218.25C196.653 217.797 196.72 217.347 196.84 216.91Z" fill="#263238"/>
<path d="M222.32 205.58C222.32 205.58 222.22 205.31 221.98 204.84C221.624 204.174 221.104 203.609 220.47 203.2C220 202.878 219.463 202.667 218.9 202.584C218.337 202.501 217.762 202.547 217.22 202.72C216.532 202.956 215.917 203.366 215.437 203.912C214.956 204.457 214.626 205.118 214.48 205.83L214.34 206.54L214.03 205.88C212.86 203.37 211.841 200.792 210.98 198.16C209.452 193.776 208.687 189.163 208.72 184.52C208.72 183.63 208.84 182.83 208.89 182.12C208.94 181.41 209.1 180.82 209.21 180.34C209.315 179.835 209.462 179.34 209.65 178.86C209.309 180.728 209.118 182.621 209.08 184.52C209.162 189.111 209.969 193.661 211.47 198C212.332 200.612 213.334 203.175 214.47 205.68L214.02 205.74C214.192 204.954 214.568 204.226 215.111 203.631C215.653 203.036 216.342 202.595 217.11 202.35C217.705 202.17 218.334 202.132 218.947 202.238C219.559 202.344 220.139 202.591 220.64 202.96C221.289 203.417 221.801 204.043 222.12 204.77C222.207 204.962 222.271 205.163 222.31 205.37C222.33 205.5 222.34 205.58 222.32 205.58Z" fill="#263238"/>
<path d="M246.7 207.83C246.593 207.44 246.516 207.042 246.47 206.64C246.251 205.538 246.181 204.411 246.26 203.29C246.485 201.565 247.344 199.986 248.67 198.86C249.49 198.185 250.518 197.815 251.58 197.81C252.159 197.804 252.732 197.923 253.261 198.159C253.789 198.396 254.259 198.744 254.64 199.18L254.2 199.44L253.25 197.05C251.38 192.34 249.72 188.05 248.54 184.96L247.17 181.27C246.98 180.83 246.835 180.37 246.74 179.9C246.986 180.314 247.194 180.749 247.36 181.2C247.76 182.2 248.27 183.37 248.89 184.83C250.16 187.9 251.89 192.15 253.74 196.83L254.68 199.23L255.29 200.77L254.29 199.48C253.96 199.097 253.55 198.791 253.088 198.584C252.627 198.377 252.126 198.273 251.62 198.28C250.668 198.274 249.743 198.595 249 199.19C247.75 200.235 246.917 201.693 246.65 203.3C246.542 204.395 246.563 205.5 246.71 206.59C246.758 207.002 246.754 207.419 246.7 207.83Z" fill="#263238"/>
<path d="M265.25 210.31C265.39 210.31 267.65 225.49 270.3 244.26C272.95 263.03 274.97 278.26 274.83 278.26C274.69 278.26 272.43 263.08 269.78 244.26C267.13 225.44 265.11 210.33 265.25 210.31Z" fill="#263238"/>
<g opacity="0.3">
<path d="M211.279 198.32C211.401 202.209 212.245 206.041 213.769 209.62C214.859 208.27 216.069 206.85 217.769 206.45C219.829 205.96 221.919 207.23 223.409 208.79C223.151 207.23 222.535 205.752 221.609 204.47C221.147 203.84 220.546 203.326 219.852 202.967C219.158 202.607 218.39 202.414 217.609 202.4C216.831 202.418 216.081 202.696 215.477 203.188C214.874 203.681 214.453 204.361 214.279 205.12L211.409 198.39" fill="black"/>
</g>
<path d="M194.389 209.31C194.299 209.31 194.329 208.26 194.029 206.63C193.618 204.506 192.793 202.484 191.599 200.68C190.927 199.703 190.16 198.796 189.309 197.97C188.604 197.302 187.838 196.703 187.019 196.18C185.609 195.29 184.619 194.95 184.659 194.86C184.905 194.878 185.145 194.939 185.369 195.04C185.649 195.115 185.921 195.219 186.179 195.35C186.525 195.499 186.859 195.672 187.179 195.87C188.049 196.362 188.864 196.945 189.609 197.61C190.506 198.446 191.308 199.378 191.999 200.39C193.239 202.247 194.045 204.359 194.359 206.57C194.459 207.232 194.492 207.902 194.459 208.57C194.459 209.05 194.429 209.31 194.389 209.31Z" fill="#263238"/>
<path d="M252.44 138C251.868 132.645 249.302 127.702 245.252 124.154C241.201 120.605 235.963 118.712 230.58 118.85H229.47C217.52 119.85 211.7 130.56 213.04 142.47L216.32 184.37L217.71 186.07C220.83 189.904 225.131 192.598 229.943 193.732C234.754 194.866 239.805 194.376 244.31 192.34L243.39 178.86C243.39 178.86 254.85 176.78 254.69 165.28C254.62 159.7 253.54 148.28 252.44 138Z" fill="#FFBE9D"/>
<path d="M243.48 178.83C238.144 178.979 232.878 177.59 228.31 174.83C228.31 174.83 232.06 183.02 243.51 181.69L243.48 178.83Z" fill="#EB996E"/>
<path d="M248.799 147.46C248.811 147.887 248.657 148.302 248.37 148.619C248.083 148.936 247.685 149.129 247.259 149.16C247.051 149.181 246.84 149.16 246.64 149.098C246.44 149.037 246.254 148.936 246.093 148.802C245.932 148.668 245.799 148.504 245.702 148.318C245.606 148.132 245.547 147.929 245.529 147.72C245.515 147.292 245.668 146.876 245.955 146.559C246.243 146.242 246.642 146.048 247.069 146.02C247.278 145.998 247.489 146.018 247.69 146.079C247.89 146.14 248.077 146.241 248.238 146.375C248.4 146.509 248.532 146.674 248.629 146.861C248.725 147.047 248.783 147.251 248.799 147.46Z" fill="#263238"/>
<path d="M249.53 141.21C249.4 141.41 248.1 141.55 246.53 142.39C244.96 143.23 244.04 144.28 243.83 144.26C243.62 144.24 243.83 143.97 244.22 143.5C244.818 142.837 245.529 142.285 246.32 141.87C247.075 141.448 247.903 141.173 248.76 141.06C249.35 141 249.6 141.11 249.53 141.21Z" fill="#263238"/>
<path d="M232.2 148.33C232.219 148.759 232.068 149.178 231.779 149.497C231.491 149.815 231.088 150.007 230.66 150.03C230.451 150.052 230.24 150.032 230.039 149.971C229.838 149.91 229.652 149.81 229.49 149.675C229.329 149.541 229.196 149.376 229.1 149.189C229.004 149.003 228.946 148.799 228.93 148.59C228.916 148.162 229.069 147.746 229.356 147.429C229.643 147.111 230.043 146.918 230.47 146.89C230.678 146.868 230.889 146.888 231.09 146.949C231.291 147.01 231.477 147.11 231.639 147.245C231.8 147.379 231.933 147.544 232.029 147.731C232.125 147.917 232.183 148.121 232.2 148.33Z" fill="#263238"/>
<path d="M232 143.62C231.77 143.62 230.7 142.95 229 142.53C227.3 142.11 225.89 142.2 225.74 142.06C225.59 141.92 225.92 141.86 226.53 141.81C227.421 141.753 228.315 141.838 229.18 142.06C230.017 142.259 230.815 142.597 231.54 143.06C231.94 143.38 232.06 143.6 232 143.62Z" fill="#263238"/>
<path d="M238.88 157.35C239.806 157.041 240.766 156.843 241.74 156.76C242.19 156.76 242.61 156.6 242.68 156.29C242.708 155.827 242.593 155.366 242.35 154.97L240.92 151.56C238.92 146.72 237.5 142.73 237.7 142.66C237.9 142.59 239.7 146.44 241.63 151.28C242.11 152.48 242.57 153.62 243 154.71C243.295 155.246 243.394 155.869 243.28 156.47C243.217 156.631 243.119 156.776 242.993 156.894C242.866 157.012 242.715 157.1 242.55 157.15C242.303 157.227 242.048 157.271 241.79 157.28C240.827 157.428 239.849 157.452 238.88 157.35Z" fill="#263238"/>
<path d="M231.999 136.8C231.799 137.27 230.049 136.96 227.999 137.1C225.949 137.24 224.209 137.74 223.999 137.29C223.879 137.08 224.199 136.64 224.889 136.21C225.818 135.682 226.854 135.373 227.92 135.307C228.986 135.241 230.053 135.42 231.039 135.83C231.699 136.18 232.059 136.57 231.999 136.8Z" fill="#263238"/>
<path d="M249.489 137.19C249.099 137.6 247.579 137.19 245.759 137.19C243.939 137.19 242.389 137.5 242.029 137.08C241.869 136.88 242.109 136.47 242.779 136.08C243.703 135.596 244.736 135.358 245.779 135.39C246.83 135.383 247.865 135.652 248.779 136.17C249.439 136.58 249.659 137 249.489 137.19Z" fill="#263238"/>
<path d="M255.789 127.78C255.688 127.255 255.398 126.785 254.975 126.459C254.551 126.133 254.023 125.974 253.489 126.01C254.064 125.846 254.601 125.571 255.069 125.2C255.302 125.012 255.477 124.762 255.575 124.479C255.672 124.196 255.687 123.892 255.619 123.6C255.319 122.71 254.179 122.52 253.279 122.27C252.098 121.927 251.051 121.229 250.279 120.27C249.189 118.89 248.769 117.09 247.819 115.6C247.206 114.638 246.384 113.826 245.415 113.224C244.446 112.621 243.355 112.244 242.221 112.119C241.086 111.994 239.939 112.126 238.862 112.503C237.785 112.88 236.807 113.495 235.999 114.3C235.117 113.393 234.031 112.71 232.831 112.307C231.632 111.904 230.353 111.794 229.102 111.984C227.852 112.175 226.664 112.662 225.639 113.404C224.614 114.145 223.781 115.121 223.209 116.25C221.675 115.61 219.997 115.395 218.351 115.626C216.706 115.857 215.152 116.527 213.854 117.564C212.555 118.602 211.56 119.97 210.971 121.524C210.383 123.079 210.223 124.763 210.509 126.4L217.669 130.79C217.727 130.246 217.9 129.72 218.177 129.247C218.453 128.774 218.827 128.365 219.273 128.048C219.719 127.73 220.228 127.511 220.765 127.404C221.302 127.298 221.856 127.307 222.389 127.43C224.549 128.06 225.929 130.56 228.169 130.73C229.919 130.86 231.409 129.51 233.099 129.06C235.149 128.51 237.319 129.33 239.169 130.37C241.019 131.41 242.789 132.71 244.849 133.23C247.31 133.723 249.864 133.419 252.139 132.36C253.15 132.006 254.071 131.436 254.839 130.69C255.218 130.316 255.502 129.857 255.667 129.35C255.832 128.844 255.874 128.306 255.789 127.78Z" fill="#263238"/>
<path d="M218.879 127.41L251.679 127.23C250.496 125.026 248.776 123.155 246.679 121.79C242.324 118.607 237.074 116.882 231.679 116.86C226.329 116.86 215.629 123.73 211.859 127.52C208.859 130.52 208.939 133.11 208.939 133.11C208.559 137.37 211.069 142.11 212.139 146.28C212.679 148.42 213.809 154.9 213.809 154.9C215.609 154.85 216.239 153.39 215.919 151.61L215.389 144.61C217.159 143.134 218.399 141.12 218.92 138.875C219.442 136.63 219.217 134.276 218.279 132.17C217.829 131.55 216.749 128.66 218.879 127.41Z" fill="#263238"/>
<path d="M214.92 144.15C213.25 138.35 211.71 132.15 213.49 126.35H212.49L212.09 126.64C211.165 126.329 210.165 126.321 209.236 126.617C208.306 126.913 207.495 127.497 206.92 128.285C206.345 129.073 206.036 130.024 206.038 130.999C206.039 131.975 206.352 132.924 206.93 133.71C205.955 133.702 205.01 134.049 204.273 134.688C203.537 135.327 203.059 136.214 202.93 137.18C202.933 138.527 203.303 139.847 204 141C204.698 142.156 205.125 143.455 205.25 144.8C205.292 145.47 205.096 146.133 204.697 146.672C204.299 147.212 203.722 147.594 203.07 147.75C203.386 148.432 203.927 148.985 204.603 149.314C205.279 149.644 206.047 149.731 206.78 149.56C206.313 150.7 205.533 151.685 204.53 152.4C206.67 153.86 209.6 153.4 211.92 152.23C213.359 151.651 214.534 150.562 215.22 149.17C215.86 147.56 215.38 145.79 214.92 144.15Z" fill="#263238"/>
<path d="M214.38 150.92C214.18 150.84 206.38 148.79 206.87 156.64C207.36 164.49 215.12 162.42 215.12 162.19C215.12 161.96 214.38 150.92 214.38 150.92Z" fill="#FFBE9D"/>
<path d="M213.24 159.34C213.24 159.34 213.11 159.44 212.88 159.56C212.569 159.714 212.211 159.743 211.88 159.64C211.03 159.38 210.26 158.11 210.14 156.69C210.079 156.012 210.172 155.328 210.41 154.69C210.474 154.438 210.598 154.205 210.772 154.011C210.947 153.818 211.165 153.67 211.41 153.58C211.565 153.532 211.732 153.538 211.883 153.598C212.034 153.658 212.16 153.768 212.24 153.91C212.36 154.12 212.31 154.28 212.36 154.3C212.41 154.32 212.52 154.15 212.44 153.83C212.375 153.643 212.257 153.48 212.1 153.36C211.989 153.283 211.864 153.229 211.731 153.201C211.599 153.174 211.462 153.173 211.33 153.2C211.012 153.283 210.72 153.447 210.482 153.674C210.244 153.901 210.068 154.186 209.97 154.5C209.681 155.202 209.561 155.963 209.62 156.72C209.77 158.3 210.62 159.72 211.82 160C212.033 160.047 212.254 160.046 212.466 159.998C212.679 159.949 212.878 159.854 213.05 159.72C213.24 159.53 213.27 159.35 213.24 159.34Z" fill="#EB996E"/>
<path d="M206.229 144.41C206.229 144.41 206.009 144.11 206.079 143.49C206.163 143.069 206.338 142.672 206.592 142.327C206.846 141.981 207.173 141.695 207.549 141.49C208.676 140.954 209.902 140.657 211.149 140.62C211.847 140.62 212.535 140.455 213.157 140.139C213.779 139.823 214.318 139.364 214.729 138.8C215.382 137.528 215.6 136.077 215.349 134.67C215.159 133.35 214.809 132.16 214.639 131.13C214.323 130.026 214.34 128.854 214.689 127.76C214.696 128.863 214.82 129.963 215.059 131.04C215.279 132.04 215.669 133.21 215.909 134.6C216.211 136.138 215.978 137.733 215.249 139.12C214.815 139.837 214.159 140.392 213.379 140.7C212.681 140.959 211.951 141.12 211.209 141.18C210.027 141.187 208.856 141.418 207.759 141.86C207.416 142.037 207.111 142.28 206.862 142.575C206.613 142.87 206.425 143.212 206.309 143.58C206.264 143.855 206.238 144.132 206.229 144.41Z" fill="#455A64"/>
<path d="M204.33 141C204.33 141 204.16 140.78 204.09 140.29C204.009 139.599 204.146 138.9 204.48 138.29C204.71 137.857 205.026 137.475 205.41 137.17C205.859 136.833 206.373 136.595 206.92 136.47C207.451 136.356 207.956 136.146 208.41 135.85C208.611 135.67 208.769 135.447 208.871 135.198C208.973 134.949 209.017 134.679 209 134.41C209 133.82 208.93 133.19 208.95 132.56C208.958 131.958 209.025 131.359 209.15 130.77C209.352 129.775 209.735 128.826 210.28 127.97C210.454 127.656 210.703 127.39 211.005 127.196C211.307 127.002 211.652 126.887 212.01 126.86C212.53 126.86 212.75 127.1 212.73 127.12C212.71 127.14 212.47 127.03 212.03 127.12C211.729 127.184 211.448 127.317 211.207 127.508C210.965 127.698 210.772 127.942 210.64 128.22C210.189 129.059 209.872 129.963 209.7 130.9C209.603 131.455 209.553 132.017 209.55 132.58C209.55 133.16 209.64 133.78 209.61 134.46C209.625 134.816 209.557 135.171 209.414 135.497C209.27 135.822 209.053 136.111 208.78 136.34C208.264 136.686 207.682 136.921 207.07 137.03C206.615 137.108 206.181 137.282 205.798 137.541C205.415 137.799 205.092 138.137 204.85 138.53C204.439 139.285 204.258 140.144 204.33 141Z" fill="#455A64"/>
<path d="M250.29 120.27C250.34 120.27 249.7 120.7 248.67 120.22C248.09 119.905 247.582 119.473 247.18 118.95C246.684 118.3 246.066 117.753 245.36 117.34C244.441 116.824 243.393 116.586 242.342 116.655C241.291 116.724 240.282 117.098 239.44 117.73C238.44 118.43 237.61 119.42 236.44 120.24C235.845 120.681 235.163 120.991 234.44 121.15C233.691 121.281 232.921 121.209 232.21 120.94C230.79 120.43 229.67 119.56 228.45 119.12C227.272 118.668 226.021 118.441 224.76 118.45C222.587 118.447 220.476 119.169 218.76 120.5C217.613 121.396 216.66 122.515 215.96 123.79C215.47 124.7 215.29 125.26 215.24 125.24C215.19 125.22 215.24 125.09 215.32 124.82C215.433 124.431 215.573 124.05 215.74 123.68C216.386 122.318 217.325 121.116 218.49 120.16C220.245 118.725 222.433 117.925 224.7 117.89C226.034 117.855 227.363 118.083 228.61 118.56C229.93 119.04 231.07 119.91 232.36 120.36C232.971 120.595 233.634 120.661 234.28 120.55C234.906 120.406 235.495 120.134 236.01 119.75C237.06 119 237.94 118.01 239.01 117.27C239.999 116.529 241.204 116.132 242.44 116.14C243.494 116.148 244.528 116.43 245.44 116.96C246.17 117.426 246.805 118.026 247.31 118.73C247.66 119.244 248.113 119.68 248.64 120.01C249.136 120.305 249.727 120.398 250.29 120.27Z" fill="#455A64"/>
<path d="M234.52 159.41C234.77 159.41 235.05 161.03 236.69 161.98C238.33 162.93 240.08 162.45 240.14 162.68C240.2 162.91 239.79 163.08 239.04 163.22C238.06 163.402 237.047 163.232 236.18 162.74C235.349 162.26 234.734 161.48 234.46 160.56C234.28 159.87 234.4 159.42 234.52 159.41Z" fill="#263238"/>
<path d="M337.999 315.66C334.955 313.044 331.004 311.73 326.999 312L320.239 333.47C325.189 333.69 330.129 336.24 334.909 334.93C336.818 334.341 338.519 333.219 339.811 331.695C341.102 330.171 341.931 328.31 342.199 326.33C342.407 324.345 342.134 322.339 341.403 320.482C340.672 318.625 339.505 316.971 337.999 315.66Z" fill="#407BFF"/>
<path d="M327.08 311.51C327.08 311.34 327.81 311.2 329.08 311.21C330.969 311.245 332.839 311.6 334.61 312.26C337.315 313.314 339.656 315.131 341.35 317.49C342.384 318.889 343.147 320.47 343.6 322.15C344.089 323.989 344.144 325.916 343.76 327.78C343.387 329.669 342.545 331.433 341.31 332.91C340.127 334.255 338.629 335.286 336.95 335.91C334.221 336.875 331.279 337.065 328.45 336.46C326.628 336.103 324.851 335.55 323.15 334.81C321.96 334.3 321.33 333.92 321.39 333.75C321.45 333.58 322.17 333.63 323.39 333.84C324.61 334.05 326.46 334.44 328.66 334.64C331.155 334.917 333.679 334.573 336.01 333.64C337.287 333.1 338.419 332.263 339.31 331.2C340.244 330.037 340.882 328.664 341.17 327.2C341.444 325.749 341.424 324.257 341.109 322.814C340.795 321.371 340.193 320.006 339.34 318.8C337.962 316.713 336.067 315.018 333.84 313.88C332.261 313.135 330.609 312.559 328.91 312.16C327.76 311.9 327.06 311.69 327.08 311.51Z" fill="#F5F5F5"/>
<path d="M264.45 392.06L249.75 433.25L300.9 451.8C302.38 446.8 279.47 427.4 279.47 427.4L289.97 401.4L264.45 392.06Z" fill="#407BFF"/>
<g opacity="0.6">
<path d="M264.459 419.45C263.913 419.421 263.374 419.594 262.948 419.938C262.522 420.281 262.237 420.77 262.149 421.31C262.1 421.854 262.262 422.395 262.6 422.823C262.939 423.251 263.429 423.533 263.969 423.61C264.552 423.641 265.126 423.453 265.577 423.083C266.028 422.713 266.325 422.188 266.409 421.61C266.409 420.52 265.329 419.27 264.249 419.42" fill="white"/>
</g>
<path d="M249.75 433.25L251.24 429.1L299.82 448.48C299.82 448.48 301.74 450.29 300.9 451.8L249.75 433.25Z" fill="white"/>
<path d="M280.4 427.44C280.3 427.69 279.01 427.35 277.49 427.71C275.97 428.07 274.93 428.88 274.74 428.71C274.55 428.54 275.44 427.22 277.29 426.82C279.14 426.42 280.53 427.23 280.4 427.44Z" fill="#263238"/>
<path d="M284.999 431.61C284.999 431.87 283.729 431.9 282.499 432.61C281.269 433.32 280.619 434.39 280.369 434.29C280.119 434.19 280.479 432.72 282.029 431.81C283.579 430.9 284.999 431.37 284.999 431.61Z" fill="#263238"/>
<path d="M285.67 439.13C285.43 439.13 285.53 437.73 286.67 436.59C287.81 435.45 289.17 435.34 289.2 435.59C289.23 435.84 288.25 436.3 287.33 437.25C286.41 438.2 285.93 439.2 285.67 439.13Z" fill="#263238"/>
<path d="M282.13 421.25C281.94 421.44 280.92 420.68 279.48 420.25C278.04 419.82 276.77 419.88 276.72 419.62C276.67 419.36 278.04 418.85 279.72 419.37C281.4 419.89 282.33 421.1 282.13 421.25Z" fill="#263238"/>
<path d="M283.109 414.74C282.191 414.659 281.31 414.335 280.559 413.8C279.692 413.304 278.893 412.699 278.179 412C277.752 411.592 277.355 411.154 276.989 410.69C276.759 410.427 276.57 410.13 276.429 409.81C276.329 409.573 276.311 409.31 276.378 409.061C276.445 408.813 276.593 408.594 276.799 408.44C276.987 408.311 277.202 408.228 277.428 408.197C277.654 408.166 277.883 408.187 278.099 408.26C278.424 408.377 278.73 408.538 279.009 408.74C279.509 409.074 279.977 409.452 280.409 409.87C281.132 410.57 281.739 411.38 282.209 412.27C282.723 413.049 282.985 413.967 282.959 414.9C282.819 414.9 282.519 413.95 281.649 412.6C281.133 411.824 280.521 411.115 279.829 410.49C279.42 410.123 278.982 409.788 278.519 409.49C278.029 409.15 277.569 408.98 277.349 409.17C277.129 409.36 277.239 409.28 277.299 409.48C277.403 409.716 277.541 409.935 277.709 410.13C278.037 410.574 278.394 410.995 278.779 411.39C279.428 412.074 280.141 412.693 280.909 413.24C282.229 414.19 283.169 414.61 283.109 414.74Z" fill="#263238"/>
<path d="M282.66 415C282.443 414.093 282.52 413.141 282.88 412.28C283.183 411.316 283.646 410.41 284.25 409.6C284.612 409.124 285.017 408.683 285.46 408.28C285.723 407.994 286.055 407.78 286.424 407.657C286.793 407.535 287.187 407.508 287.57 407.58C287.796 407.67 287.991 407.822 288.135 408.018C288.278 408.215 288.363 408.448 288.38 408.69C288.398 409.026 288.371 409.362 288.3 409.69C288.142 410.502 287.824 411.274 287.364 411.961C286.904 412.648 286.311 413.236 285.62 413.69C284.14 414.69 282.99 414.57 283 414.48C283.01 414.39 284 414.16 285.24 413.16C285.945 412.586 286.518 411.866 286.92 411.05C287.153 410.576 287.318 410.071 287.41 409.55C287.53 408.98 287.48 408.46 287.26 408.45C287.034 408.442 286.81 408.483 286.603 408.571C286.395 408.659 286.21 408.792 286.06 408.96C285.645 409.311 285.263 409.7 284.92 410.12C284.333 410.837 283.855 411.635 283.5 412.49C282.88 414 282.81 415 282.66 415Z" fill="#263238"/>
<path d="M214.899 282.06C207.139 282.24 199.779 283.33 194.429 288.96C187.339 296.43 178.579 307.06 178.079 314.43C177.339 325.43 183.989 328.73 188.839 331.43C190.985 332.59 193.402 333.153 195.839 333.06L285.519 332.38L288.329 317.19L230.329 302.89L232.739 281.06L214.899 282.06Z" fill="#263238"/>
<path d="M232.79 281.05L261 279.75C261 279.75 309.74 282.46 320.13 291.99C330.52 301.52 329.23 312.35 325.76 322.74C322.29 333.13 291.76 399.62 291.76 399.62C291.76 399.62 294.24 403.85 292.85 408.07C292.287 409.918 291.254 411.589 289.852 412.917C288.449 414.246 286.726 415.188 284.85 415.65L257.73 405.65C257.73 405.65 254.05 404.35 256.65 400.88C259.25 397.41 260.98 396.77 260.98 396.77V389.84C260.98 389.84 270.51 372.51 271.37 370.13C272.23 367.75 281.37 332.49 281.37 332.49L287.44 322.06C287.44 322.06 272.77 315.16 260.05 310.16L230.35 302.84L232.79 281.05Z" fill="#263238"/>
<path d="M278.55 404.43C277.729 403.953 276.935 403.432 276.17 402.87C272.338 400.388 268.023 398.748 263.51 398.06C262.563 397.968 261.622 397.828 260.69 397.64C261.641 397.53 262.603 397.547 263.55 397.69C268.175 398.184 272.595 399.865 276.38 402.57C277.182 403.092 277.911 403.717 278.55 404.43Z" fill="#455A64"/>
<path d="M292.1 399.67C291.509 399.185 290.981 398.628 290.53 398.01C289.61 396.94 288.39 395.42 287.12 393.68C285.85 391.94 284.75 390.33 284 389.14C283.553 388.518 283.177 387.847 282.88 387.14C283.417 387.683 283.893 388.284 284.3 388.93L287.54 393.37C288.75 395.01 289.86 396.49 290.82 397.78C291.314 398.362 291.743 398.995 292.1 399.67Z" fill="#455A64"/>
<path d="M301.999 312.58C301.999 312.66 300.999 312.88 299.429 313.4C295.318 314.757 291.593 317.082 288.569 320.18C287.979 320.861 287.355 321.512 286.699 322.13C287.122 321.322 287.661 320.581 288.299 319.93C289.754 318.287 291.438 316.862 293.299 315.7C295.159 314.529 297.181 313.636 299.299 313.05C300.17 312.758 301.081 312.599 301.999 312.58Z" fill="#455A64"/>
<path d="M274.3 359.66C274.311 359.46 274.348 359.261 274.41 359.07L274.83 357.42L276.45 351.37L282 331.46C283.13 327.57 284.09 323.87 285.18 320.51C286.33 317.59 288.07 314.939 290.29 312.72C291.755 311.217 293.378 309.876 295.13 308.72C295.76 308.32 296.25 308.02 296.6 307.84C296.767 307.734 296.945 307.643 297.13 307.57C297.13 307.57 296.45 308.03 295.25 308.88C293.556 310.09 291.982 311.459 290.55 312.97C288.408 315.18 286.735 317.799 285.63 320.67C284.63 323.98 283.63 327.73 282.5 331.6L276.81 351.46C276.07 353.95 275.46 355.98 275.02 357.46C274.81 358.12 274.65 358.66 274.51 359.08C274.466 359.282 274.395 359.477 274.3 359.66Z" fill="#455A64"/>
<path d="M249.349 308.87C249.199 308.87 248.609 303.61 248.019 297.09C247.429 290.57 247.019 285.27 247.219 285.26C247.419 285.25 247.949 290.52 248.539 297.04C249.129 303.56 249.489 308.86 249.349 308.87Z" fill="#455A64"/>
<path d="M202.39 323C202.31 323 201.88 322.19 200.99 320.94C199.841 319.314 198.463 317.863 196.9 316.63C195.324 315.413 193.583 314.427 191.73 313.7C190.3 313.14 189.37 312.93 189.39 312.84C190.232 312.879 191.062 313.052 191.85 313.35C195.761 314.639 199.101 317.248 201.3 320.73C201.785 321.422 202.154 322.189 202.39 323Z" fill="#455A64"/>
<path d="M219.669 303.8C219.669 303.88 218.429 303.12 216.359 302.17C210.928 299.703 204.904 298.842 198.999 299.69C196.749 300.01 195.379 300.41 195.359 300.32C195.65 300.156 195.964 300.034 196.289 299.96C197.158 299.691 198.043 299.478 198.939 299.32C204.912 298.272 211.063 299.155 216.499 301.84C217.314 302.242 218.103 302.697 218.859 303.2C219.156 303.362 219.429 303.563 219.669 303.8Z" fill="#455A64"/>
<path d="M287.229 317.16C286.989 317.148 286.75 317.108 286.519 317.04L284.519 316.61L277.219 315C271.049 313.62 262.509 311.76 253.039 309.89C243.569 308.02 234.969 306.47 228.739 305.4L221.349 304.13L219.349 303.78C219.113 303.752 218.881 303.695 218.659 303.61C218.897 303.617 219.134 303.637 219.369 303.67L221.369 303.93C223.119 304.17 225.649 304.55 228.779 305.04C235.029 306.04 243.649 307.5 253.129 309.38C262.609 311.26 271.129 313.17 277.289 314.64C280.359 315.38 282.849 316 284.559 316.45L286.559 316.97C286.788 317.013 287.012 317.077 287.229 317.16Z" fill="#455A64"/>
<path d="M230.38 305.45C230.28 305.45 230.07 304.27 229.14 302.59C228.596 301.621 227.923 300.729 227.14 299.94C226.152 298.968 225.104 298.059 224 297.22C221.967 295.718 219.816 294.38 217.57 293.22C216.62 292.768 215.704 292.247 214.83 291.66C215.836 291.978 216.811 292.39 217.74 292.89C220.061 293.966 222.266 295.276 224.32 296.8C225.439 297.653 226.495 298.586 227.48 299.59C228.283 300.422 228.957 301.369 229.48 302.4C229.839 303.097 230.111 303.836 230.29 304.6C230.372 304.875 230.403 305.164 230.38 305.45Z" fill="#455A64"/>
<path d="M330.27 319C330.38 319.12 328.88 320.63 327.71 322.94C326.54 325.25 326.16 327.33 326.01 327.3C326.006 325.684 326.434 324.096 327.25 322.7C327.913 321.222 328.954 319.946 330.27 319Z" fill="#263238"/>
<g opacity="0.3">
<path d="M266.08 216.54L272.5 261.76L272.82 262.48C274.326 246.847 272.013 231.082 266.08 216.54Z" fill="black"/>
</g>
<path d="M300.65 242.52L279.78 279L228.35 280.12L228.22 282.45L278.02 282.08L279.6 282.02L332.18 282.13L342.81 263.8L356.39 244.34C356.586 244.051 356.7 243.714 356.719 243.366C356.738 243.017 356.662 242.67 356.499 242.361C356.335 242.052 356.09 241.794 355.791 241.614C355.492 241.434 355.149 241.34 354.8 241.34L302.31 241.54C301.971 241.543 301.639 241.635 301.348 241.807C301.056 241.979 300.815 242.225 300.65 242.52Z" fill="#E0E0E0"/>
<path d="M342.81 263.83C342.81 263.83 345.51 266.31 345.09 268.41C344.67 270.51 344.8 272.08 342.81 272.22C342.847 272.989 342.587 273.742 342.085 274.324C341.582 274.907 340.875 275.274 340.11 275.35C340.11 275.35 340.72 278.65 336.88 279.22C336.88 279.22 335.7 282.75 333.28 281.89C331.885 281.416 330.544 280.796 329.28 280.04L328.57 278.76C328.57 278.76 325 277.42 325.88 275.41C326.42 274.19 328.26 273.87 328.26 273.87C328.048 273.369 327.958 272.825 327.998 272.282C328.038 271.74 328.207 271.215 328.49 270.75C329.34 269.6 332.12 270.55 332.12 270.55C332.062 269.565 332.376 268.595 333 267.83C334 266.7 338.38 269.75 338.38 269.75L340.79 266.87L342.81 263.83Z" fill="#FFBE9D"/>
<path d="M336.879 279.22C335.32 278.556 333.832 277.735 332.439 276.77C330.955 275.951 329.561 274.979 328.279 273.87C329.837 274.54 331.325 275.365 332.719 276.33C334.2 277.151 335.593 278.119 336.879 279.22Z" fill="#EB996E"/>
<path d="M340.11 275.35C338.659 274.78 337.277 274.049 335.99 273.17C334.614 272.441 333.323 271.562 332.14 270.55C333.593 271.115 334.975 271.847 336.26 272.73C337.636 273.459 338.927 274.338 340.11 275.35Z" fill="#EB996E"/>
<path d="M335.71 268.11C335.79 267.96 337.44 268.83 339.36 270.05C340.55 270.737 341.696 271.499 342.79 272.33C342.72 272.5 341 271.72 339.08 270.49C337.876 269.818 336.746 269.02 335.71 268.11Z" fill="#EB996E"/>
<path d="M356.39 242.74C356.307 242.753 356.222 242.753 356.14 242.74H355.4H352.56L342.12 242.82L307.67 242.9H305.16C304.79 242.865 304.417 242.93 304.081 243.088C303.745 243.247 303.458 243.492 303.25 243.8C302.45 245.227 301.67 246.633 300.91 248.02L296.47 256.02L288.94 269.55C286.8 273.37 285.05 276.47 283.82 278.66C283.23 279.66 282.75 280.52 282.41 281.12L282.03 281.75L281.89 281.96C281.89 281.96 281.89 281.87 281.98 281.72L282.32 281.06L283.65 278.56L288.65 269.37L296.09 255.78C297.49 253.23 298.97 250.55 300.49 247.78L302.84 243.53C303.096 243.15 303.448 242.844 303.861 242.644C304.274 242.443 304.732 242.356 305.19 242.39H307.7L342.15 242.46L352.59 242.55L355.43 242.6H356.17C356.25 242.634 356.325 242.681 356.39 242.74Z" fill="#263238"/>
<path d="M319.39 261.09C319.147 261.441 319.011 261.855 318.997 262.282C318.984 262.709 319.094 263.131 319.314 263.497C319.534 263.862 319.855 264.157 320.239 264.345C320.622 264.533 321.052 264.607 321.476 264.557C321.9 264.507 322.301 264.335 322.63 264.063C322.959 263.791 323.203 263.43 323.332 263.023C323.461 262.616 323.47 262.18 323.358 261.768C323.246 261.356 323.017 260.985 322.7 260.7C322.208 260.316 321.584 260.142 320.964 260.215C320.345 260.288 319.779 260.602 319.39 261.09Z" fill="white"/>
<g opacity="0.3">
<path d="M173.39 247C172.95 247.18 172.44 247.48 172.44 248C172.456 248.193 172.536 248.376 172.669 248.517C172.801 248.659 172.978 248.752 173.17 248.78C173.903 248.676 174.622 248.485 175.31 248.21C180.72 247.02 185.17 248.16 190.31 250.21L190.48 250.04C188.44 245.61 179.21 244.63 173.39 247Z" fill="black"/>
</g>
<path d="M452 450C452 450.14 361.55 450.26 250 450.26C138.45 450.26 48 450.1 48 450C48 449.9 138.43 449.74 250 449.74C361.57 449.74 452 449.81 452 450Z" fill="#263238"/>
<path d="M145.42 131.21C145.59 131.38 178.8 119.97 178.8 119.97L166 90.6699L136.47 102L152.73 111.34L145.42 131.21Z" fill="#FAD564"/>
<path d="M161 99.49V59.6C161 59.6 206.81 51.22 239.82 51.72C272.83 52.22 306.82 57.63 306.82 57.63V95.93C306.82 95.93 203.36 86.69 161 99.49Z" fill="#FAD564"/>
<path d="M160.76 99.5299L178.76 120.14V95.9299C178.76 95.9299 163.71 97.7299 160.76 99.5299Z" fill="#E7C55E"/>
<path d="M160.999 59.5901C161.149 59.5901 161.209 68.5901 161.149 79.5901C161.089 90.5901 160.909 99.5901 160.769 99.5901C160.629 99.5901 160.559 90.6501 160.619 79.5901C160.679 68.5301 160.849 59.5901 160.999 59.5901Z" fill="#E7C55E"/>
<path d="M322.319 128.15C322.149 128.32 288.939 116.91 288.939 116.91L301.709 87.6001L331.269 98.9101L314.999 108.25L322.319 128.15Z" fill="#FAD564"/>
<path d="M307 96.4701L289 117.08V94.6201C295.035 94.8267 301.049 95.4448 307 96.4701Z" fill="#E7C55E"/>
<path d="M306.799 57.6299C306.939 57.6299 307.099 66.3199 307.149 77.0499C307.199 87.7799 307.149 96.4699 306.979 96.4699C306.809 96.4699 306.679 87.7799 306.629 77.0499C306.579 66.3199 306.649 57.6299 306.799 57.6299Z" fill="#E7C55E"/>
<path d="M186.83 77.0899C186.735 75.9415 186.982 74.7908 187.538 73.7816C188.094 72.7724 188.935 71.9495 189.956 71.4159C190.978 70.8823 192.134 70.6617 193.28 70.7816C194.426 70.9014 195.511 71.3565 196.4 72.0899L195 73.7699C194.623 73.426 194.175 73.1696 193.687 73.0192C193.2 72.8688 192.685 72.8281 192.18 72.8999C191.283 73.0246 190.473 73.5002 189.927 74.2222C189.382 74.9443 189.145 75.8535 189.27 76.7499C189.394 77.6464 189.87 78.4566 190.592 79.0023C191.314 79.548 192.223 79.7846 193.12 79.6599C193.628 79.5931 194.115 79.4128 194.544 79.1324C194.974 78.852 195.334 78.4786 195.6 78.0399L197.36 79.2699C196.708 80.2185 195.79 80.9537 194.722 81.3834C193.654 81.813 192.483 81.9181 191.356 81.6853C190.229 81.4526 189.195 80.8925 188.385 80.075C187.574 79.2576 187.023 78.2192 186.8 77.0899H186.83Z" fill="white"/>
<path d="M197.74 75.59C197.554 74.4354 197.718 73.2516 198.213 72.1918C198.707 71.1319 199.508 70.2449 200.512 69.6456C201.516 69.0462 202.677 68.7622 203.845 68.8302C205.012 68.8982 206.133 69.3152 207.06 70.0271C207.988 70.739 208.681 71.713 209.049 72.8231C209.417 73.9331 209.443 75.1281 209.124 76.2532C208.805 77.3783 208.155 78.3817 207.26 79.1335C206.364 79.8854 205.263 80.3509 204.1 80.47C203.359 80.5882 202.602 80.5541 201.874 80.3698C201.147 80.1856 200.465 79.855 199.87 79.3983C199.275 78.9416 198.779 78.3683 198.413 77.7135C198.046 77.0588 197.817 76.3362 197.74 75.59ZM206.85 74.65C206.768 74.0011 206.498 73.3906 206.072 72.8945C205.646 72.3984 205.083 72.0387 204.454 71.8603C203.825 71.6818 203.157 71.6926 202.534 71.8912C201.911 72.0897 201.361 72.4673 200.951 72.9769C200.541 73.4864 200.29 74.1054 200.23 74.7565C200.169 75.4076 200.302 76.0621 200.611 76.6383C200.92 77.2145 201.392 77.6869 201.968 77.9967C202.544 78.3064 203.199 78.4397 203.85 78.38C204.299 78.3504 204.737 78.228 205.136 78.0204C205.535 77.8128 205.887 77.5245 206.169 77.1739C206.451 76.8232 206.657 76.4178 206.774 75.9834C206.891 75.5489 206.917 75.0949 206.85 74.65Z" fill="white"/>
<path d="M221.31 78.9199L220.88 72.5399L218.09 77.9999L216.99 78.0699L213.54 73.1499L213.95 79.3899L211.64 79.5399L211 68.9099L213 68.7799L217.4 75.1299L220.89 68.2799L222.89 68.1499L223.61 78.7699L221.31 78.9199Z" fill="white"/>
<path d="M235.08 71.64C235.14 74.02 233.4 75.54 230.56 75.64L228.41 75.7L228.5 78.64L226.03 78.71L225.73 68L230.34 67.87C233.19 67.83 235 69.26 235.08 71.64ZM232.58 71.71C232.58 70.54 231.77 69.88 230.26 69.92L228.26 69.98L228.37 73.68L230.37 73.62C231.87 73.58 232.61 72.87 232.58 71.71Z" fill="white"/>
<path d="M237 67.77H239.46V76.41H244.8V78.41H237V67.77Z" fill="white"/>
<path d="M254.35 76.7201V78.7201L246.1 78.4801L246.41 67.8301L254.41 68.0701L254.35 70.0701L248.75 69.9001L248.69 72.2201L253.63 72.3601L253.57 74.2801L248.63 74.1301L248.56 76.6001L254.35 76.7201Z" fill="white"/>
<path d="M258.91 70.3001L255.51 70.1001L255.63 68.1001L264.89 68.6601L264.77 70.6601L261.37 70.4501L260.85 79.0801L258.39 78.9301L258.91 70.3001Z" fill="white"/>
<path d="M273.86 78.1801L273.68 80.1801L265.46 79.4201L266.46 68.8201L274.46 69.5601L274.28 71.5601L268.7 71.0001L268.49 73.3101L273.41 73.7601L273.24 75.6701L268.31 75.2201L268.09 77.6701L273.86 78.1801Z" fill="white"/>
<path d="M276.939 69.79L281.729 70.43C285.179 70.89 287.269 73.28 286.849 76.43C286.429 79.58 283.769 81.43 280.319 80.93L275.529 80.29L276.939 69.79ZM280.469 78.96C280.905 79.0299 281.349 79.0118 281.778 78.9069C282.206 78.802 282.609 78.6124 282.962 78.3493C283.316 78.0861 283.613 77.7547 283.837 77.3748C284.06 76.9948 284.205 76.5739 284.263 76.1369C284.322 75.6999 284.292 75.2557 284.175 74.8305C284.059 74.4053 283.858 74.0078 283.586 73.6613C283.313 73.3148 282.974 73.0265 282.588 72.8133C282.202 72.6001 281.778 72.4664 281.339 72.42L279.109 72.12L278.239 78.66L280.469 78.96Z" fill="white"/>
<path d="M327.289 61.26L329.909 64.33L337.289 61.26L335.129 58.03L327.289 61.26Z" fill="#455A64"/>
<path d="M323.91 46.6501C323.91 47.4095 323.684 48.152 323.262 48.7834C322.84 49.4149 322.241 49.9071 321.539 50.1978C320.837 50.4884 320.065 50.5644 319.32 50.4163C318.575 50.2681 317.891 49.9024 317.354 49.3653C316.817 48.8283 316.451 48.1441 316.303 47.3992C316.155 46.6543 316.231 45.8822 316.522 45.1806C316.812 44.4789 317.305 43.8792 317.936 43.4572C318.568 43.0353 319.31 42.8101 320.07 42.8101C321.087 42.8127 322.062 43.2181 322.782 43.9377C323.501 44.6573 323.907 45.6324 323.91 46.6501Z" fill="#407BFF"/>
<path d="M237.89 103.93C237.888 104.311 237.773 104.682 237.559 104.997C237.346 105.312 237.043 105.557 236.691 105.699C236.338 105.842 235.951 105.877 235.578 105.799C235.205 105.722 234.864 105.535 234.598 105.263C234.332 104.991 234.152 104.646 234.082 104.272C234.013 103.898 234.055 103.512 234.206 103.162C234.356 102.812 234.607 102.515 234.926 102.308C235.246 102.101 235.619 101.994 236 102C236.506 102.008 236.988 102.215 237.342 102.576C237.695 102.938 237.892 103.424 237.89 103.93Z" fill="#407BFF"/>
<path d="M148.44 75.07C148.44 75.3596 148.353 75.6427 148.192 75.8832C148.031 76.1237 147.801 76.3108 147.534 76.4207C147.266 76.5306 146.971 76.5583 146.687 76.5003C146.404 76.4423 146.143 76.3013 145.94 76.0951C145.737 75.8889 145.599 75.6269 145.545 75.3424C145.491 75.0579 145.523 74.7637 145.636 74.4973C145.75 74.2309 145.94 74.0043 146.183 73.8463C146.426 73.6883 146.71 73.606 147 73.61C147.383 73.6153 147.75 73.7714 148.019 74.0446C148.288 74.3179 148.44 74.6862 148.44 75.07Z" fill="#407BFF"/>
<path d="M143.02 59L147.32 59.26L149.36 50.8L145.34 50.97L143.02 59Z" fill="#455A64"/>
<path d="M277.42 126.53L278.87 130.59L287.45 129.15L285.72 125.52L277.42 126.53Z" fill="#407BFF"/>
<path d="M190.639 103.1L187.989 106.5L193.799 112.97L195.939 109.56L190.639 103.1Z" fill="#455A64"/>
<path d="M180.37 23.23L190.52 33.58L204.81 28.18L205.38 31.73L199.19 44.4L204.9 53.86L204.42 56.69L190.59 54.36L182.41 63.33L180.49 61.88L178.8 50.47L165.9 43.75L165.33 41.14L178.32 37.59L180.37 23.23Z" fill="#407BFF"/>
<g opacity="0.3">
<path d="M180.37 23.23L190.52 33.58L204.81 28.18L205.38 31.73L199.19 44.4L204.9 53.86L204.42 56.69L190.59 54.36L182.41 63.33L180.49 61.88L178.8 50.47L165.9 43.75L165.33 41.14L178.32 37.59L180.37 23.23Z" fill="black"/>
</g>
<path d="M180.37 20.3201L190.52 30.6801L204.81 28.1801L198.1 41.0401L204.9 53.8601L190.59 51.4601L180.49 61.8801L178.36 47.5301L165.33 41.1401L178.32 34.6801L180.37 20.3201Z" fill="#407BFF"/>
<path d="M285.62 23.23L275.46 33.58L261.17 28.18L260.6 31.73L266.79 44.4L261.08 53.86L261.56 56.69L275.39 54.36L283.57 63.33L285.49 61.88L287.18 50.47L300.08 43.75L300.65 41.14L287.66 37.59L285.62 23.23Z" fill="#407BFF"/>
<g opacity="0.3">
<path d="M285.62 23.23L275.46 33.58L261.17 28.18L260.6 31.73L266.79 44.4L261.08 53.86L261.56 56.69L275.39 54.36L283.57 63.33L285.49 61.88L287.18 50.47L300.08 43.75L300.65 41.14L287.66 37.59L285.62 23.23Z" fill="black"/>
</g>
<path d="M285.62 20.3201L275.46 30.6801L261.17 28.1801L267.88 41.0401L261.08 53.8601L275.39 51.4601L285.49 61.8801L287.62 47.5301L300.65 41.1401L287.66 34.6801L285.62 20.3201Z" fill="#407BFF"/>
<path d="M232.66 5.06006L241.11 21.5701L260.6 20.4201L259.94 24.9601L247.56 38.0701L250.91 51.7801L249.26 55.0501L233.27 46.9401L219.88 54.7801L218.09 52.2701L220.37 37.7001L207.19 24.5901L207.49 21.2001L224.69 21.8101L232.66 5.06006Z" fill="#407BFF"/>
<g opacity="0.3">
<path d="M232.66 5.06006L241.11 21.5701L260.6 20.4201L259.94 24.9601L247.56 38.0701L250.91 51.7801L249.26 55.0501L233.27 46.9401L219.88 54.7801L218.09 52.2701L220.37 37.7001L207.19 24.5901L207.49 21.2001L224.69 21.8101L232.66 5.06006Z" fill="black"/>
</g>
<path d="M233.76 1.52002L242.21 18.02L260.6 20.42L247.51 33.56L250.91 51.78L234.38 43.4L218.09 52.27L220.96 33.95L207.49 21.2L225.8 18.26L233.76 1.52002Z" fill="#407BFF"/>
<path d="M267.43 149.63L281.55 151.19C286.317 144.441 293.436 139.719 301.507 137.952C309.579 136.186 318.019 137.502 325.17 141.642C332.321 145.782 337.664 152.446 340.151 160.326C342.637 168.206 342.087 176.73 338.608 184.225C335.128 191.719 328.972 197.641 321.348 200.827C313.724 204.013 305.185 204.233 297.407 201.442C289.63 198.652 283.178 193.054 279.318 185.748C275.459 178.442 274.471 169.957 276.55 161.96L267.43 149.63Z" fill="#FAFAFA"/>
<path d="M267.43 149.63C267.98 150.37 270.84 154.15 276.68 161.9H276.47C276.477 161.883 276.488 161.869 276.501 161.857C276.515 161.845 276.53 161.837 276.548 161.832C276.565 161.827 276.583 161.826 276.601 161.829C276.618 161.832 276.635 161.84 276.65 161.85C276.673 161.864 276.692 161.885 276.702 161.91C276.713 161.935 276.716 161.963 276.71 161.99C275.278 167.6 275.354 173.489 276.93 179.06C277.392 180.732 278.005 182.358 278.76 183.92C279.16 184.72 279.54 185.54 279.97 186.35L281.46 188.72C286.218 195.617 293.415 200.453 301.6 202.25C306.13 203.246 310.821 203.266 315.36 202.31C320.144 201.269 324.641 199.186 328.53 196.21C332.602 193.117 335.877 189.095 338.08 184.48C340.36 179.787 341.485 174.616 341.36 169.4C341.214 164.41 339.95 159.516 337.66 155.08C335.506 150.875 332.454 147.194 328.72 144.3C321.993 139.101 313.528 136.681 305.07 137.54C301.496 137.969 298.007 138.933 294.72 140.4C289.49 142.817 284.984 146.561 281.65 151.26C281.639 151.279 281.623 151.294 281.603 151.303C281.583 151.312 281.561 151.315 281.54 151.31L267.43 149.63L281.57 151.06L281.45 151.12C284.773 146.357 289.3 142.562 294.57 140.12C297.873 138.598 301.391 137.593 305 137.14C313.574 136.232 322.168 138.66 329 143.92C332.798 146.849 335.903 150.581 338.09 154.85C340.428 159.35 341.717 164.321 341.86 169.39C341.991 174.688 340.853 179.941 338.54 184.71C336.298 189.397 332.969 193.48 328.83 196.62C324.877 199.637 320.309 201.747 315.45 202.8C310.83 203.772 306.056 203.741 301.45 202.71C293.178 200.887 285.91 195.985 281.12 189L279.62 186.6C279.19 185.78 278.81 184.94 278.4 184.13C277.647 182.548 277.038 180.901 276.58 179.21C275.011 173.579 274.97 167.632 276.46 161.98L276.7 162.07C276.681 162.099 276.652 162.12 276.619 162.129C276.586 162.139 276.551 162.135 276.52 162.12L267.43 149.63Z" fill="#263238"/>
<path d="M296.399 158.44C296.411 158.593 296.411 158.747 296.399 158.9C296.399 159.23 296.399 159.65 296.399 160.18C296.399 161.34 296.399 162.95 296.459 164.99C296.459 169.14 296.529 174.99 296.579 181.99L296.349 181.76H319.879C319.939 181.7 319.389 182.25 319.619 182.01V178.81C319.619 177.76 319.619 176.71 319.619 175.67V169.58C319.619 165.64 319.619 161.91 319.619 158.48L319.839 158.71L302.839 158.59L298.029 158.54H296.749H296.289H296.699H297.939L302.689 158.48L319.819 158.37H320.049V158.59C320.049 162.02 320.049 165.75 320.049 169.69V182C320.289 181.77 319.739 182.33 319.789 182.27H296.259H296.029V182C296.029 174.94 296.109 169.05 296.139 164.87C296.139 162.87 296.139 161.25 296.199 160.11C296.199 159.6 296.199 159.19 296.199 158.87C296.246 158.718 296.314 158.574 296.399 158.44Z" fill="#263238"/>
<path d="M317.39 162.33C317.73 162.6 314.57 167.16 310.32 172.52C309.48 173.59 308.65 174.61 307.88 175.52L307.38 176.13L306.82 175.62C303.14 172.31 300.65 169.77 300.87 169.51C301.09 169.25 303.98 171.35 307.79 174.51L306.72 174.61C307.45 173.61 308.25 172.61 309.1 171.55C313.34 166.19 317.06 162.07 317.39 162.33Z" fill="#FAD564"/>
</svg>
