<svg width="25" height="25" viewBox="0 0 25 25" fill="none" xmlns="http://www.w3.org/2000/svg">
<g id="Group 36">
<path id="secondary" d="M22.9992 4.21045L12.6692 14.7104L8.07812 10.0438" stroke="#E7AE10" stroke-width="3" stroke-linecap="round" stroke-linejoin="round"/>
<path id="primary" d="M22.93 11.3333C22.9769 11.7204 23.0003 12.11 23 12.5C23 14.5767 22.3842 16.6068 21.2304 18.3335C20.0767 20.0602 18.4368 21.406 16.5182 22.2007C14.5996 22.9954 12.4884 23.2034 10.4516 22.7982C8.41475 22.3931 6.54383 21.3931 5.07538 19.9246C3.60693 18.4562 2.6069 16.5852 2.20176 14.5484C1.79661 12.5116 2.00455 10.4004 2.79927 8.48182C3.59399 6.5632 4.9398 4.92332 6.66652 3.76957C8.39323 2.61581 10.4233 2 12.5 2C14.1258 2.01517 15.725 2.41496 17.1667 3.16667" stroke="#67BAEB" stroke-width="3" stroke-linecap="round" stroke-linejoin="round"/>
</g>
</svg>
