<svg width="604" height="670" viewBox="0 0 604 670" fill="none" xmlns="http://www.w3.org/2000/svg">
<path d="M130.985 553.219C243.652 612.085 426.348 612.085 539.015 553.219C651.682 494.353 651.695 398.918 539.015 340.052C426.334 281.186 243.652 281.186 130.985 340.052C18.3177 398.918 18.3043 494.353 130.985 553.219Z" fill="#F5F5F5"/>
<path d="M423.052 538.331C457.028 538.331 484.571 525.205 484.571 509.012C484.571 492.82 457.028 479.693 423.052 479.693C389.075 479.693 361.532 492.82 361.532 509.012C361.532 525.205 389.075 538.331 423.052 538.331Z" fill="#EBEBEB"/>
<path d="M532.034 471.465C558.247 471.465 579.497 461.338 579.497 448.846C579.497 436.354 558.247 426.227 532.034 426.227C505.821 426.227 484.571 436.354 484.571 448.846C484.571 461.338 505.821 471.465 532.034 471.465Z" fill="#EBEBEB"/>
<path d="M193.75 442.508C191.07 428.358 181.261 408.191 169.295 396.948C157.785 386.148 140.7 382.382 133.892 387.367C127.085 392.352 131.547 403.126 144.76 416.258C159.674 431.065 188.31 472.149 193.75 495.425V442.508Z" fill="#1222AD"/>
<g opacity="0.2">
<path d="M193.75 442.508C191.07 428.358 181.261 408.191 169.295 396.948C157.785 386.148 140.7 382.382 133.892 387.367C127.085 392.352 131.547 403.126 144.76 416.258C159.674 431.065 188.31 472.149 193.75 495.425V442.508Z" fill="black"/>
</g>
<path d="M193.75 476.558C193.582 476.555 193.421 476.491 193.298 476.377C193.174 476.263 193.097 476.108 193.08 475.941C189.703 440.297 164.779 400.231 140.82 391.883C140.653 391.822 140.516 391.699 140.438 391.539C140.361 391.378 140.349 391.194 140.405 391.025C140.466 390.858 140.589 390.721 140.749 390.644C140.91 390.566 141.094 390.554 141.262 390.61C166.106 399.253 190.963 439.078 194.447 475.821C194.462 475.998 194.408 476.174 194.295 476.311C194.183 476.449 194.021 476.537 193.844 476.558H193.75Z" fill="white"/>
<path d="M193.75 512.537C193.75 512.537 189.114 516.235 173.65 514.788C158.187 513.341 150.214 502.286 150.214 497.542C150.214 492.798 164.431 491.981 167.513 480.216C164.378 483.576 160.208 485.789 155.668 486.5C147.628 488.015 141.169 485.442 139.333 470.796C143.296 471.375 147.338 471.04 151.152 469.817C157.517 467.767 159.031 464.27 157.369 463.519C155.708 462.769 146.837 463.519 141.155 461.362C135.474 459.205 139.815 429.617 143.541 427.514C147.266 425.41 164.887 430.368 168.317 433.021C171.372 435.379 175.66 439.466 173.677 448.109C176.026 445.913 177.857 443.222 179.037 440.23C180.699 436.21 181.905 437.148 184.397 438.689C185.894 439.533 187.193 440.687 188.208 442.073C189.222 443.46 189.929 445.047 190.28 446.729C190.883 450.481 189.905 463.426 184.625 467.633C184.625 467.633 189.69 468.276 193.831 459.727C193.831 459.727 201.871 462.97 203.693 468.223C205.516 473.476 207.499 499.19 193.75 512.537Z" fill="#1222AD"/>
<path d="M195.117 515.458C194.953 515.456 194.796 515.396 194.673 515.288C194.55 515.179 194.47 515.031 194.447 514.868C190.91 485.911 168.893 447.868 147.306 433.584C147.157 433.484 147.053 433.33 147.018 433.154C146.983 432.978 147.019 432.795 147.118 432.646C147.218 432.497 147.373 432.393 147.549 432.358C147.725 432.323 147.907 432.359 148.056 432.458C169.912 446.997 192.276 485.429 195.774 514.707C195.797 514.883 195.749 515.061 195.641 515.202C195.533 515.342 195.373 515.435 195.198 515.458H195.117Z" fill="white"/>
<path d="M196.471 519.505C195.672 518.951 195.013 518.218 194.547 517.364C194.082 516.51 193.823 515.559 193.791 514.587V194.447C193.846 193.44 194.138 192.46 194.643 191.587C195.148 190.713 195.853 189.972 196.699 189.422L397.699 73.3516C398.539 72.8247 399.507 72.5367 400.498 72.5187C401.49 72.5007 402.467 72.7534 403.326 73.2495C404.184 73.7456 404.891 74.4665 405.371 75.3345C405.85 76.2024 406.084 77.1847 406.047 78.1756L202.099 519.397C201.235 519.857 200.276 520.106 199.298 520.124C198.32 520.143 197.351 519.931 196.471 519.505Z" fill="#E0E0E0"/>
<path d="M199.19 200.531L280.837 147.105L275.396 143.956L196.658 189.423C195.812 189.972 195.107 190.713 194.602 191.587C194.097 192.46 193.805 193.44 193.75 194.448V197.382L199.19 200.531Z" fill="#37474F"/>
<path opacity="0.2" d="M199.19 200.531L280.837 147.105L275.396 143.956L196.658 189.423C195.812 189.972 195.107 190.713 194.602 191.587C194.097 192.46 193.805 193.44 193.75 194.448V197.382L199.19 200.531Z" fill="#37474F"/>
<path d="M226.46 209.951L194.595 191.62C194.075 192.484 193.785 193.467 193.75 194.474V514.56C193.716 515.55 193.951 516.53 194.432 517.396C194.913 518.262 195.62 518.981 196.478 519.476C197.336 519.97 198.313 520.222 199.303 520.203C200.293 520.185 201.26 519.897 202.099 519.371L226.46 505.368V209.951Z" fill="#263238"/>
<path opacity="0.4" d="M226.46 209.951L194.595 191.62C194.075 192.484 193.785 193.467 193.75 194.474V514.56C193.716 515.55 193.951 516.53 194.432 517.396C194.913 518.262 195.62 518.981 196.478 519.476C197.336 519.97 198.313 520.222 199.303 520.203C200.293 520.185 201.26 519.897 202.099 519.371L226.46 505.368V209.951Z" fill="#263238"/>
<path d="M202.098 519.397L403.098 403.327C403.944 402.777 404.649 402.036 405.154 401.162C405.659 400.289 405.951 399.309 406.006 398.302V78.1756C406.006 76.3264 404.666 75.576 403.098 76.5006L202.098 192.571C201.252 193.121 200.548 193.862 200.042 194.736C199.537 195.609 199.245 196.589 199.19 197.596V517.722C199.19 519.572 200.49 520.322 202.098 519.397Z" fill="#455A64"/>
<path opacity="0.1" d="M202.098 519.397L403.098 403.327C403.944 402.777 404.649 402.036 405.154 401.162C405.659 400.289 405.951 399.309 406.006 398.302V78.1756C406.006 76.3264 404.666 75.576 403.098 76.5006L202.098 192.571C201.252 193.121 200.548 193.862 200.042 194.736C199.537 195.609 199.245 196.589 199.19 197.596V517.722C199.19 519.572 200.49 520.322 202.098 519.397Z" fill="#455A64"/>
<path d="M215.887 271.538L264.127 243.666C267.33 241.816 269.929 243.13 269.929 246.6C269.786 248.549 269.186 250.436 268.178 252.11C267.17 253.784 265.783 255.197 264.127 256.235L215.887 284.107C212.671 285.956 210.085 284.643 210.085 281.172C210.225 279.223 210.824 277.334 211.832 275.66C212.84 273.986 214.23 272.573 215.887 271.538Z" fill="#1222AD"/>
<path d="M215.887 291.316L247.819 272.878C251.022 271.028 253.622 272.342 253.622 275.812C253.478 277.761 252.879 279.648 251.871 281.322C250.863 282.996 249.475 284.409 247.819 285.447L215.887 303.885C212.671 305.734 210.085 304.421 210.085 300.951C210.225 299.001 210.824 297.112 211.832 295.438C212.84 293.764 214.23 292.351 215.887 291.316Z" fill="#1222AD"/>
<path d="M212.403 325.165L218.648 321.56C219.988 320.823 220.966 321.426 220.966 322.9V330.109C220.922 330.914 220.69 331.698 220.287 332.396C219.884 333.095 219.323 333.688 218.648 334.129L212.403 337.68C211.063 338.431 210.085 337.828 210.085 336.34V329.131C210.138 328.335 210.375 327.563 210.777 326.875C211.179 326.186 211.736 325.601 212.403 325.165Z" fill="#1222AD"/>
<path opacity="0.2" d="M212.403 325.165L218.648 321.56C219.988 320.823 220.966 321.426 220.966 322.9V330.109C220.922 330.914 220.69 331.698 220.287 332.396C219.884 333.095 219.323 333.688 218.648 334.129L212.403 337.68C211.063 338.431 210.085 337.828 210.085 336.34V329.131C210.138 328.335 210.375 327.563 210.777 326.875C211.179 326.186 211.736 325.601 212.403 325.165Z" fill="black"/>
<path d="M212.403 350.316L218.648 346.712C219.988 345.961 220.966 346.564 220.966 348.052V355.261C220.919 356.065 220.685 356.847 220.283 357.545C219.88 358.243 219.32 358.837 218.648 359.281L212.403 362.885C211.063 363.622 210.085 363.019 210.085 361.545V354.336C210.126 353.531 210.358 352.746 210.761 352.048C211.164 351.349 211.727 350.755 212.403 350.316Z" fill="#1222AD"/>
<g opacity="0.2">
<path d="M212.403 350.316L218.648 346.712C219.988 345.961 220.966 346.564 220.966 348.052V355.261C220.919 356.065 220.685 356.847 220.283 357.545C219.88 358.243 219.32 358.837 218.648 359.281L212.403 362.885C211.063 363.622 210.085 363.019 210.085 361.545V354.336C210.126 353.531 210.358 352.746 210.761 352.048C211.164 351.349 211.727 350.755 212.403 350.316Z" fill="black"/>
</g>
<path d="M229.314 343.697L267.048 321.895C268.656 320.97 269.956 321.627 269.956 323.369C269.883 324.343 269.582 325.286 269.077 326.122C268.572 326.957 267.877 327.662 267.048 328.179L229.314 349.981C227.706 350.906 226.406 350.249 226.406 348.507C226.479 347.533 226.78 346.59 227.285 345.755C227.791 344.919 228.486 344.214 229.314 343.697Z" fill="#1222AD"/>
<path opacity="0.2" d="M229.314 343.697L267.048 321.895C268.656 320.97 269.956 321.627 269.956 323.369C269.883 324.343 269.582 325.286 269.077 326.122C268.572 326.957 267.877 327.662 267.048 328.179L229.314 349.981C227.706 350.906 226.406 350.249 226.406 348.507C226.479 347.533 226.78 346.59 227.285 345.755C227.791 344.919 228.486 344.214 229.314 343.697Z" fill="black"/>
<path d="M212.403 375.455L218.648 371.85C219.988 371.1 220.966 371.703 220.966 373.19V380.399C220.92 381.204 220.687 381.986 220.284 382.685C219.882 383.383 219.321 383.977 218.648 384.419L212.403 388.024C211.063 388.761 210.085 388.158 210.085 386.684V379.475C210.126 378.669 210.358 377.885 210.761 377.186C211.164 376.487 211.727 375.894 212.403 375.455Z" fill="#E0E0E0"/>
<path d="M229.314 368.835L267.048 347.06C268.656 346.135 269.956 346.792 269.956 348.534C269.886 349.508 269.585 350.452 269.08 351.288C268.574 352.124 267.878 352.829 267.048 353.345L229.314 375.146C227.706 376.071 226.406 375.414 226.406 373.672C226.475 372.694 226.774 371.745 227.28 370.905C227.785 370.064 228.482 369.355 229.314 368.835Z" fill="#F0F0F0"/>
<path d="M212.403 400.66L218.648 397.056C219.988 396.305 220.966 396.908 220.966 398.396V405.605C220.92 406.409 220.687 407.192 220.284 407.89C219.882 408.588 219.321 409.182 218.648 409.625L212.403 413.229C211.063 413.966 210.085 413.363 210.085 411.889V404.68C210.126 403.875 210.358 403.09 210.761 402.391C211.164 401.693 211.727 401.099 212.403 400.66Z" fill="#E0E0E0"/>
<path d="M229.314 394.04L267.048 372.252C268.656 371.314 269.956 371.984 269.956 373.713C269.885 374.689 269.585 375.635 269.08 376.473C268.575 377.311 267.879 378.018 267.048 378.537L229.314 400.325C227.706 401.25 226.406 400.593 226.406 398.851C226.479 397.877 226.78 396.934 227.285 396.098C227.791 395.263 228.486 394.558 229.314 394.04Z" fill="#F0F0F0"/>
<path d="M212.403 425.799L218.648 422.194C219.988 421.444 220.966 422.047 220.966 423.534V430.743C220.92 431.548 220.687 432.33 220.284 433.028C219.882 433.727 219.321 434.321 218.648 434.763L212.403 438.368C211.063 439.105 210.085 438.502 210.085 437.028V429.819C210.126 429.013 210.358 428.229 210.761 427.53C211.164 426.831 211.727 426.238 212.403 425.799Z" fill="#E0E0E0"/>
<path d="M229.314 419.179L267.048 397.39C268.656 396.452 269.956 397.122 269.956 398.851C269.885 399.827 269.585 400.773 269.08 401.611C268.575 402.449 267.879 403.157 267.048 403.675L229.314 425.463C227.706 426.388 226.406 425.731 226.406 423.989C226.479 423.016 226.78 422.073 227.285 421.237C227.791 420.401 228.486 419.696 229.314 419.179Z" fill="#F0F0F0"/>
<path d="M212.979 450.535L239.779 435.031C241.387 434.107 242.687 434.763 242.687 436.505C242.614 437.479 242.313 438.422 241.808 439.258C241.303 440.094 240.608 440.799 239.779 441.316L212.979 456.82C211.385 457.744 210.085 457.088 210.085 455.359C210.155 454.384 210.454 453.44 210.957 452.602C211.46 451.764 212.152 451.056 212.979 450.535Z" fill="#1222AD"/>
<path d="M212.979 463.104L267.048 431.896C268.656 430.971 269.956 431.628 269.956 433.356C269.885 434.332 269.585 435.278 269.08 436.116C268.575 436.955 267.879 437.662 267.048 438.18L212.979 469.389C211.385 470.313 210.085 469.657 210.085 467.928C210.155 466.953 210.454 466.009 210.957 465.171C211.46 464.333 212.152 463.625 212.979 463.104Z" fill="#1222AD"/>
<path opacity="0.8" d="M212.979 463.104L267.048 431.896C268.656 430.971 269.956 431.628 269.956 433.356C269.885 434.332 269.585 435.278 269.08 436.116C268.575 436.955 267.879 437.662 267.048 438.18L212.979 469.389C211.385 470.313 210.085 469.657 210.085 467.928C210.155 466.953 210.454 466.009 210.957 465.171C211.46 464.333 212.152 463.625 212.979 463.104Z" fill="white"/>
<path d="M212.979 463.104L250.727 441.316C252.322 440.391 253.622 441.048 253.622 442.79C253.549 443.762 253.25 444.704 252.747 445.539C252.244 446.375 251.552 447.081 250.727 447.6L212.979 469.389C211.385 470.313 210.085 469.657 210.085 467.928C210.155 466.953 210.454 466.009 210.957 465.171C211.46 464.333 212.152 463.625 212.979 463.104Z" fill="#1222AD"/>
<path d="M212.979 475.7L239.779 460.196C241.387 459.272 242.687 459.928 242.687 461.67C242.614 462.644 242.313 463.587 241.808 464.423C241.303 465.259 240.608 465.964 239.779 466.481L212.979 481.985C211.385 482.909 210.085 482.253 210.085 480.524C210.155 479.549 210.454 478.605 210.957 477.767C211.46 476.929 212.152 476.221 212.979 475.7Z" fill="#1222AD"/>
<path d="M229.314 318.545L267.048 296.756C268.656 295.832 269.956 296.488 269.956 298.23C269.883 299.204 269.582 300.147 269.077 300.983C268.572 301.819 267.877 302.524 267.048 303.041L229.314 324.829C227.706 325.754 226.406 325.097 226.406 323.369C226.477 322.393 226.777 321.447 227.283 320.609C227.788 319.77 228.484 319.063 229.314 318.545Z" fill="#1222AD"/>
<path opacity="0.2" d="M229.314 318.545L267.048 296.756C268.656 295.832 269.956 296.488 269.956 298.23C269.883 299.204 269.582 300.147 269.077 300.983C268.572 301.819 267.877 302.524 267.048 303.041L229.314 324.829C227.706 325.754 226.406 325.097 226.406 323.369C226.477 322.393 226.777 321.447 227.283 320.609C227.788 319.77 228.484 319.063 229.314 318.545Z" fill="black"/>
<path d="M212.979 475.7L239.779 460.196C241.387 459.272 242.687 459.928 242.687 461.67C242.614 462.644 242.313 463.587 241.808 464.423C241.303 465.259 240.608 465.964 239.779 466.481L212.979 481.985C211.385 482.909 210.085 482.253 210.085 480.524C210.155 479.549 210.454 478.605 210.957 477.767C211.46 476.929 212.152 476.221 212.979 475.7Z" fill="#1222AD"/>
<path d="M212.979 488.229L267.048 457.021C268.656 456.096 269.956 456.753 269.956 458.481C269.885 459.457 269.585 460.403 269.08 461.241C268.575 462.08 267.879 462.787 267.048 463.305L212.979 494.46C211.385 495.398 210.085 494.728 210.085 493C210.163 492.034 210.466 491.1 210.968 490.272C211.471 489.444 212.159 488.745 212.979 488.229Z" fill="#1222AD"/>
<path opacity="0.8" d="M212.979 488.229L267.048 457.021C268.656 456.096 269.956 456.753 269.956 458.481C269.885 459.457 269.585 460.403 269.08 461.241C268.575 462.08 267.879 462.787 267.048 463.305L212.979 494.46C211.385 495.398 210.085 494.728 210.085 493C210.163 492.034 210.466 491.1 210.968 490.272C211.471 489.444 212.159 488.745 212.979 488.229Z" fill="white"/>
<path d="M212.979 488.229L261.608 460.089C263.216 459.164 264.516 459.821 264.516 461.563C264.443 462.537 264.142 463.48 263.637 464.316C263.131 465.151 262.436 465.856 261.608 466.374L212.979 494.514C211.385 495.452 210.085 494.782 210.085 493.053C210.155 492.078 210.454 491.134 210.957 490.296C211.46 489.458 212.152 488.75 212.979 488.229Z" fill="#1222AD"/>
<path d="M403.125 76.5006L280.837 147.105V473.931L403.125 403.34C403.971 402.791 404.676 402.049 405.181 401.176C405.687 400.303 405.978 399.322 406.033 398.315V78.1756C406.02 76.38 404.68 75.576 403.125 76.5006Z" fill="#EBEBEB"/>
<path opacity="0.6" d="M403.125 76.5006L280.837 147.105V473.931L403.125 403.34C403.971 402.791 404.676 402.049 405.181 401.176C405.687 400.303 405.978 399.322 406.033 398.315V78.1756C406.02 76.38 404.68 75.576 403.125 76.5006Z" fill="#FAFAFA"/>
<path d="M280.837 159.674V184.813L269.956 197.382H280.837V222.52L395.139 156.525V93.6794L280.837 159.674Z" fill="#1222AD"/>
<g opacity="0.6">
<path d="M295.791 160.545L342.102 133.745C344.34 132.405 346.122 133.504 346.122 136.09C346.048 137.496 345.646 138.864 344.948 140.086C344.25 141.307 343.275 142.348 342.102 143.125L295.791 169.858C293.54 171.198 291.771 170.1 291.771 167.513C291.852 166.119 292.258 164.763 292.956 163.553C293.654 162.343 294.625 161.313 295.791 160.545Z" fill="white"/>
</g>
<path d="M293.179 180.9L382.811 129.149C383.615 128.694 384.258 129.015 384.258 129.886C384.224 130.374 384.075 130.846 383.823 131.265C383.572 131.684 383.225 132.038 382.811 132.298L293.179 183.982C292.375 184.438 291.731 184.116 291.731 183.245C291.776 182.769 291.93 182.31 292.181 181.904C292.432 181.497 292.773 181.153 293.179 180.9Z" fill="#1222AD"/>
<path d="M293.179 180.9L382.811 129.149C383.615 128.694 384.258 129.015 384.258 129.886C384.224 130.374 384.075 130.846 383.823 131.265C383.572 131.684 383.225 132.038 382.811 132.298L293.179 183.982C292.375 184.438 291.731 184.116 291.731 183.245C291.776 182.769 291.93 182.31 292.181 181.904C292.432 181.497 292.773 181.153 293.179 180.9Z" fill="#1222AD"/>
<path opacity="0.6" d="M293.179 180.9L382.811 129.149C383.615 128.694 384.258 129.015 384.258 129.886C384.224 130.374 384.075 130.846 383.823 131.265C383.572 131.684 383.225 132.038 382.811 132.298L293.179 183.982C292.375 184.438 291.731 184.116 291.731 183.245C291.776 182.769 291.93 182.31 292.181 181.904C292.432 181.497 292.773 181.153 293.179 180.9Z" fill="white"/>
<path d="M293.179 190.28L382.811 138.529C383.615 138.06 384.258 138.395 384.258 139.266C384.224 139.752 384.075 140.223 383.823 140.639C383.572 141.056 383.225 141.408 382.811 141.665L293.179 193.416C292.375 193.885 291.731 193.55 291.731 192.679C291.766 192.193 291.915 191.722 292.167 191.305C292.418 190.889 292.765 190.537 293.179 190.28Z" fill="#1222AD"/>
<path opacity="0.6" d="M293.179 190.28L382.811 138.529C383.615 138.06 384.258 138.395 384.258 139.266C384.224 139.752 384.075 140.223 383.823 140.639C383.572 141.056 383.225 141.408 382.811 141.665L293.179 193.416C292.375 193.885 291.731 193.55 291.731 192.679C291.766 192.193 291.915 191.722 292.167 191.305C292.418 190.889 292.765 190.537 293.179 190.28Z" fill="white"/>
<path opacity="0.6" d="M293.179 199.66L382.811 147.909C383.615 147.454 384.258 147.775 384.258 148.646C384.224 149.134 384.075 149.606 383.823 150.025C383.572 150.444 383.225 150.798 382.811 151.058L293.179 202.809C292.375 203.265 291.731 202.943 291.731 202.072C291.766 201.585 291.915 201.112 292.167 200.693C292.418 200.274 292.765 199.92 293.179 199.66Z" fill="white"/>
<path d="M296.555 226.058L302.84 222.44C304.18 221.69 305.158 222.293 305.158 223.78V230.989C305.114 231.794 304.881 232.577 304.478 233.275C304.075 233.974 303.514 234.568 302.84 235.009L296.596 238.614C295.256 239.351 294.277 238.748 294.277 237.274V230.078C294.314 229.276 294.54 228.494 294.936 227.796C295.331 227.097 295.886 226.502 296.555 226.058Z" fill="#1222AD"/>
<path opacity="0.2" d="M296.555 226.058L302.84 222.44C304.18 221.69 305.158 222.293 305.158 223.78V230.989C305.114 231.794 304.881 232.577 304.478 233.275C304.075 233.974 303.514 234.568 302.84 235.009L296.596 238.614C295.256 239.351 294.277 238.748 294.277 237.274V230.078C294.314 229.276 294.54 228.494 294.936 227.796C295.331 227.097 295.886 226.502 296.555 226.058Z" fill="white"/>
<path d="M313.466 219.438L351.201 197.637C352.809 196.712 354.109 197.369 354.109 199.111C354.036 200.084 353.735 201.027 353.229 201.863C352.724 202.699 352.029 203.404 351.201 203.921L313.466 225.723C311.858 226.648 310.559 225.991 310.559 224.249C310.631 223.275 310.933 222.332 311.438 221.496C311.943 220.661 312.638 219.956 313.466 219.438Z" fill="#1222AD"/>
<path opacity="0.8" d="M313.466 219.438L351.201 197.637C352.809 196.712 354.109 197.369 354.109 199.111C354.036 200.084 353.735 201.027 353.229 201.863C352.724 202.699 352.029 203.404 351.201 203.921L313.466 225.723C311.858 226.648 310.559 225.991 310.559 224.249C310.631 223.275 310.933 222.332 311.438 221.496C311.943 220.661 312.638 219.956 313.466 219.438Z" fill="white"/>
<path d="M295.685 248.57L390.825 193.63C391.629 193.161 392.272 193.496 392.272 194.354C392.238 194.841 392.089 195.314 391.838 195.733C391.586 196.153 391.239 196.506 390.825 196.766L295.685 251.706C294.881 252.175 294.237 251.84 294.237 250.969C294.272 250.483 294.421 250.012 294.673 249.595C294.924 249.178 295.271 248.827 295.685 248.57Z" fill="#1222AD"/>
<path d="M295.685 257.99L390.825 203.05C391.629 202.595 392.272 202.916 392.272 203.787C392.237 204.275 392.088 204.747 391.837 205.166C391.585 205.585 391.238 205.939 390.825 206.199L295.685 261.139C294.881 261.595 294.237 261.273 294.237 260.402C294.272 259.915 294.421 259.442 294.672 259.023C294.924 258.604 295.271 258.25 295.685 257.99Z" fill="#1222AD"/>
<path d="M295.685 267.424L390.825 212.484C391.629 212.015 392.272 212.35 392.272 213.207C392.238 213.695 392.089 214.168 391.838 214.587C391.586 215.006 391.239 215.36 390.825 215.619L295.685 270.559C294.881 271.028 294.237 270.693 294.237 269.836C294.271 269.348 294.42 268.875 294.671 268.456C294.923 268.037 295.27 267.683 295.685 267.424Z" fill="#1222AD"/>
<path d="M295.685 276.871L390.825 221.931C391.629 221.475 392.272 221.797 392.272 222.668C392.237 223.155 392.088 223.628 391.837 224.047C391.585 224.466 391.238 224.82 390.825 225.08L295.685 280.02C294.881 280.475 294.237 280.154 294.237 279.283C294.272 278.795 294.421 278.323 294.672 277.904C294.924 277.485 295.271 277.131 295.685 276.871Z" fill="#1222AD"/>
<path d="M295.685 248.57L390.825 193.63C391.629 193.161 392.272 193.496 392.272 194.354C392.238 194.841 392.089 195.314 391.838 195.733C391.586 196.153 391.239 196.506 390.825 196.766L295.685 251.706C294.881 252.175 294.237 251.84 294.237 250.969C294.272 250.483 294.421 250.012 294.673 249.595C294.924 249.178 295.271 248.827 295.685 248.57Z" fill="#E0E0E0"/>
<path d="M295.685 257.99L390.825 203.05C391.629 202.595 392.272 202.916 392.272 203.787C392.237 204.275 392.088 204.747 391.837 205.166C391.585 205.585 391.238 205.939 390.825 206.199L295.685 261.139C294.881 261.595 294.237 261.273 294.237 260.402C294.272 259.915 294.421 259.442 294.672 259.023C294.924 258.604 295.271 258.25 295.685 257.99Z" fill="#E0E0E0"/>
<path d="M295.685 267.424L390.825 212.484C391.629 212.015 392.272 212.35 392.272 213.207C392.238 213.695 392.089 214.168 391.838 214.587C391.586 215.006 391.239 215.36 390.825 215.619L295.685 270.559C294.881 271.028 294.237 270.693 294.237 269.836C294.271 269.348 294.42 268.875 294.671 268.456C294.923 268.037 295.27 267.683 295.685 267.424Z" fill="#E0E0E0"/>
<path d="M295.685 276.871L390.825 221.931C391.629 221.475 392.272 221.797 392.272 222.668C392.237 223.155 392.088 223.628 391.837 224.047C391.585 224.466 391.238 224.82 390.825 225.08L295.685 280.02C294.881 280.475 294.237 280.154 294.237 279.283C294.272 278.795 294.421 278.323 294.672 277.904C294.924 277.485 295.271 277.131 295.685 276.871Z" fill="#E0E0E0"/>
<path opacity="0.8" d="M295.685 248.57L390.825 193.63C391.629 193.161 392.272 193.496 392.272 194.354C392.238 194.841 392.089 195.314 391.838 195.733C391.586 196.153 391.239 196.506 390.825 196.766L295.685 251.706C294.881 252.175 294.237 251.84 294.237 250.969C294.272 250.483 294.421 250.012 294.673 249.595C294.924 249.178 295.271 248.827 295.685 248.57Z" fill="#E0E0E0"/>
<path opacity="0.8" d="M295.685 257.99L390.825 203.05C391.629 202.595 392.272 202.916 392.272 203.787C392.237 204.275 392.088 204.747 391.837 205.166C391.585 205.585 391.238 205.939 390.825 206.199L295.685 261.139C294.881 261.595 294.237 261.273 294.237 260.402C294.272 259.915 294.421 259.442 294.672 259.023C294.924 258.604 295.271 258.25 295.685 257.99Z" fill="#E0E0E0"/>
<path opacity="0.8" d="M295.685 267.424L390.825 212.484C391.629 212.015 392.272 212.35 392.272 213.207C392.238 213.695 392.089 214.168 391.838 214.587C391.586 215.006 391.239 215.36 390.825 215.619L295.685 270.559C294.881 271.028 294.237 270.693 294.237 269.836C294.271 269.348 294.42 268.875 294.671 268.456C294.923 268.037 295.27 267.683 295.685 267.424Z" fill="#E0E0E0"/>
<path opacity="0.8" d="M295.685 276.871L390.825 221.931C391.629 221.475 392.272 221.797 392.272 222.668C392.237 223.155 392.088 223.628 391.837 224.047C391.585 224.466 391.238 224.82 390.825 225.08L295.685 280.02C294.881 280.475 294.237 280.154 294.237 279.283C294.272 278.795 294.421 278.323 294.672 277.904C294.924 277.485 295.271 277.131 295.685 276.871Z" fill="#E0E0E0"/>
<path d="M295.685 316.91L390.825 261.97C391.629 261.501 392.272 261.836 392.272 262.694C392.238 263.181 392.089 263.654 391.838 264.074C391.586 264.493 391.239 264.847 390.825 265.106L295.685 320.046C294.881 320.515 294.237 320.18 294.237 319.309C294.272 318.823 294.421 318.352 294.673 317.935C294.924 317.519 295.271 317.167 295.685 316.91Z" fill="#E0E0E0"/>
<path d="M295.685 326.33L390.825 271.39C391.629 270.935 392.272 271.256 392.272 272.127C392.237 272.615 392.088 273.087 391.837 273.506C391.585 273.925 391.238 274.279 390.825 274.539L295.685 329.479C294.881 329.935 294.237 329.613 294.237 328.742C294.272 328.255 294.421 327.782 294.672 327.363C294.924 326.944 295.271 326.59 295.685 326.33Z" fill="#E0E0E0"/>
<path d="M295.685 335.764L390.825 280.824C391.629 280.355 392.272 280.69 392.272 281.547C392.238 282.035 392.089 282.508 391.838 282.927C391.586 283.347 391.239 283.7 390.825 283.959L295.685 338.899C294.881 339.368 294.237 339.033 294.237 338.176C294.271 337.688 294.42 337.215 294.671 336.796C294.923 336.377 295.27 336.023 295.685 335.764Z" fill="#E0E0E0"/>
<path d="M295.685 345.211L390.825 290.271C391.629 289.815 392.272 290.137 392.272 291.008C392.237 291.495 392.088 291.968 391.837 292.387C391.585 292.806 391.238 293.16 390.825 293.42L295.685 348.36C294.881 348.816 294.237 348.494 294.237 347.623C294.272 347.135 294.421 346.663 294.672 346.244C294.924 345.825 295.271 345.471 295.685 345.211Z" fill="#E0E0E0"/>
<path opacity="0.8" d="M295.685 316.91L390.825 261.97C391.629 261.501 392.272 261.836 392.272 262.694C392.238 263.181 392.089 263.654 391.838 264.074C391.586 264.493 391.239 264.847 390.825 265.106L295.685 320.046C294.881 320.515 294.237 320.18 294.237 319.309C294.272 318.823 294.421 318.352 294.673 317.935C294.924 317.519 295.271 317.167 295.685 316.91Z" fill="#E0E0E0"/>
<path opacity="0.8" d="M295.685 326.33L390.825 271.39C391.629 270.935 392.272 271.256 392.272 272.127C392.237 272.615 392.088 273.087 391.837 273.506C391.585 273.925 391.238 274.279 390.825 274.539L295.685 329.479C294.881 329.935 294.237 329.613 294.237 328.742C294.272 328.255 294.421 327.782 294.672 327.363C294.924 326.944 295.271 326.59 295.685 326.33Z" fill="#E0E0E0"/>
<path opacity="0.8" d="M295.685 335.764L390.825 280.824C391.629 280.355 392.272 280.69 392.272 281.547C392.238 282.035 392.089 282.508 391.838 282.927C391.586 283.347 391.239 283.7 390.825 283.959L295.685 338.899C294.881 339.368 294.237 339.033 294.237 338.176C294.271 337.688 294.42 337.215 294.671 336.796C294.923 336.377 295.27 336.023 295.685 335.764Z" fill="#E0E0E0"/>
<path opacity="0.8" d="M295.685 345.211L390.825 290.271C391.629 289.815 392.272 290.137 392.272 291.008C392.237 291.495 392.088 291.968 391.837 292.387C391.585 292.806 391.238 293.16 390.825 293.42L295.685 348.36C294.881 348.816 294.237 348.494 294.237 347.623C294.272 347.135 294.421 346.663 294.672 346.244C294.924 345.825 295.271 345.471 295.685 345.211Z" fill="#E0E0E0"/>
<path d="M295.685 386.59L390.825 331.65C391.629 331.181 392.272 331.516 392.272 332.374C392.238 332.861 392.089 333.334 391.838 333.754C391.586 334.173 391.239 334.526 390.825 334.786L295.685 389.726C294.881 390.195 294.237 389.86 294.237 388.989C294.272 388.503 294.421 388.032 294.673 387.615C294.924 387.198 295.271 386.847 295.685 386.59Z" fill="#E0E0E0"/>
<path d="M295.685 396.01L390.825 341.07C391.629 340.615 392.272 340.936 392.272 341.807C392.237 342.295 392.088 342.767 391.837 343.186C391.585 343.605 391.238 343.959 390.825 344.219L295.685 399.159C294.881 399.615 294.237 399.293 294.237 398.422C294.272 397.935 294.421 397.462 294.672 397.043C294.924 396.624 295.271 396.27 295.685 396.01Z" fill="#E0E0E0"/>
<path d="M295.685 405.444L390.825 350.504C391.629 350.035 392.272 350.37 392.272 351.227C392.238 351.715 392.089 352.188 391.838 352.607C391.586 353.027 391.239 353.38 390.825 353.639L295.685 408.579C294.881 409.048 294.237 408.713 294.237 407.856C294.271 407.368 294.42 406.895 294.671 406.476C294.923 406.057 295.27 405.703 295.685 405.444Z" fill="#E0E0E0"/>
<path d="M295.685 414.891L390.825 359.951C391.629 359.495 392.272 359.817 392.272 360.688C392.237 361.175 392.088 361.648 391.837 362.067C391.585 362.486 391.238 362.84 390.825 363.1L295.685 418.04C294.881 418.495 294.237 418.174 294.237 417.303C294.272 416.815 294.421 416.343 294.672 415.924C294.924 415.505 295.271 415.151 295.685 414.891Z" fill="#E0E0E0"/>
<path opacity="0.8" d="M295.685 386.59L390.825 331.65C391.629 331.181 392.272 331.516 392.272 332.374C392.238 332.861 392.089 333.334 391.838 333.754C391.586 334.173 391.239 334.526 390.825 334.786L295.685 389.726C294.881 390.195 294.237 389.86 294.237 388.989C294.272 388.503 294.421 388.032 294.673 387.615C294.924 387.198 295.271 386.847 295.685 386.59Z" fill="#E0E0E0"/>
<path opacity="0.8" d="M295.685 396.01L390.825 341.07C391.629 340.615 392.272 340.936 392.272 341.807C392.237 342.295 392.088 342.767 391.837 343.186C391.585 343.605 391.238 343.959 390.825 344.219L295.685 399.159C294.881 399.615 294.237 399.293 294.237 398.422C294.272 397.935 294.421 397.462 294.672 397.043C294.924 396.624 295.271 396.27 295.685 396.01Z" fill="#E0E0E0"/>
<path opacity="0.8" d="M295.685 405.444L390.825 350.504C391.629 350.035 392.272 350.37 392.272 351.227C392.238 351.715 392.089 352.188 391.838 352.607C391.586 353.027 391.239 353.38 390.825 353.639L295.685 408.579C294.881 409.048 294.237 408.713 294.237 407.856C294.271 407.368 294.42 406.895 294.671 406.476C294.923 406.057 295.27 405.703 295.685 405.444Z" fill="#E0E0E0"/>
<path opacity="0.8" d="M295.685 414.891L390.825 359.951C391.629 359.495 392.272 359.817 392.272 360.688C392.237 361.175 392.088 361.648 391.837 362.067C391.585 362.486 391.238 362.84 390.825 363.1L295.685 418.04C294.881 418.495 294.237 418.174 294.237 417.303C294.272 416.815 294.421 416.343 294.672 415.924C294.924 415.505 295.271 415.151 295.685 414.891Z" fill="#E0E0E0"/>
<path d="M296.555 295.189L302.84 291.584C304.18 290.847 305.158 291.45 305.158 292.924V300.16C305.117 300.966 304.885 301.75 304.482 302.449C304.079 303.147 303.516 303.741 302.84 304.18L296.596 307.785C295.256 308.522 294.277 307.932 294.277 306.445V299.235C294.311 298.429 294.535 297.642 294.931 296.939C295.327 296.236 295.883 295.636 296.555 295.189Z" fill="#1222AD"/>
<path opacity="0.2" d="M296.555 295.189L302.84 291.584C304.18 290.847 305.158 291.45 305.158 292.924V300.16C305.117 300.966 304.885 301.75 304.482 302.449C304.079 303.147 303.516 303.741 302.84 304.18L296.596 307.785C295.256 308.522 294.277 307.932 294.277 306.445V299.235C294.311 298.429 294.535 297.642 294.931 296.939C295.327 296.236 295.883 295.636 296.555 295.189Z" fill="white"/>
<path d="M313.466 288.569L351.201 266.781C352.809 265.856 354.109 266.513 354.109 268.241C354.038 269.217 353.738 270.163 353.232 271.001C352.727 271.84 352.031 272.547 351.201 273.065L313.466 294.8C311.858 295.725 310.559 295.068 310.559 293.339C310.638 292.372 310.942 291.437 311.447 290.609C311.951 289.781 312.643 289.082 313.466 288.569Z" fill="#1222AD"/>
<path opacity="0.8" d="M313.466 288.569L351.201 266.781C352.809 265.856 354.109 266.513 354.109 268.241C354.038 269.217 353.738 270.163 353.232 271.001C352.727 271.84 352.031 272.547 351.201 273.065L313.466 294.8C311.858 295.725 310.559 295.068 310.559 293.339C310.638 292.372 310.942 291.437 311.447 290.609C311.951 289.781 312.643 289.082 313.466 288.569Z" fill="white"/>
<path d="M296.555 364.333L302.84 360.728C304.18 359.978 305.158 360.581 305.158 362.068V369.277C305.116 370.083 304.884 370.866 304.481 371.565C304.078 372.264 303.516 372.857 302.84 373.297L296.596 376.902C295.256 377.639 294.277 377.036 294.277 375.562V368.353C294.314 367.551 294.54 366.769 294.936 366.07C295.331 365.372 295.886 364.776 296.555 364.333Z" fill="#1222AD"/>
<path opacity="0.2" d="M296.555 364.333L302.84 360.728C304.18 359.978 305.158 360.581 305.158 362.068V369.277C305.116 370.083 304.884 370.866 304.481 371.565C304.078 372.264 303.516 372.857 302.84 373.297L296.596 376.902C295.256 377.639 294.277 377.036 294.277 375.562V368.353C294.314 367.551 294.54 366.769 294.936 366.07C295.331 365.372 295.886 364.776 296.555 364.333Z" fill="white"/>
<path d="M313.466 357.78L351.201 335.978C352.809 335.054 354.109 335.71 354.109 337.452C354.037 338.428 353.736 339.373 353.231 340.211C352.726 341.05 352.03 341.757 351.201 342.276L313.466 364.065C311.858 364.989 310.559 364.333 310.559 362.591C310.631 361.617 310.933 360.674 311.438 359.838C311.943 359.002 312.638 358.297 313.466 357.78Z" fill="#1222AD"/>
<path opacity="0.8" d="M313.466 357.78L351.201 335.978C352.809 335.054 354.109 335.71 354.109 337.452C354.037 338.428 353.736 339.373 353.231 340.211C352.726 341.05 352.03 341.757 351.201 342.276L313.466 364.065C311.858 364.989 310.559 364.333 310.559 362.591C310.631 361.617 310.933 360.674 311.438 359.838C311.943 359.002 312.638 358.297 313.466 357.78Z" fill="white"/>
<path d="M305.439 425.196L311.684 421.591C313.024 420.854 314.015 421.457 314.015 422.931V430.14C313.971 430.947 313.737 431.731 313.332 432.43C312.927 433.129 312.362 433.722 311.684 434.16L305.439 437.765C304.166 438.515 303.121 437.912 303.121 436.425V429.216C303.168 428.411 303.402 427.629 303.804 426.931C304.207 426.233 304.766 425.639 305.439 425.196Z" fill="#1222AD"/>
<path d="M295.685 449.691L321.453 434.817C322.257 434.361 322.9 434.683 322.9 435.554C322.865 436.041 322.716 436.514 322.465 436.933C322.213 437.352 321.867 437.706 321.453 437.966L295.685 452.84C294.881 453.295 294.237 452.974 294.237 452.103C294.272 451.615 294.421 451.143 294.672 450.724C294.924 450.304 295.271 449.951 295.685 449.691Z" fill="#E0E0E0"/>
<path d="M340.105 405.176L346.349 401.571C347.622 400.834 348.668 401.437 348.668 402.911V410.12C348.624 410.925 348.392 411.709 347.989 412.407C347.586 413.106 347.024 413.699 346.349 414.14L340.105 417.745C338.765 418.482 337.773 417.892 337.773 416.405V409.196C337.818 408.389 338.053 407.605 338.458 406.907C338.863 406.208 339.428 405.615 340.105 405.176Z" fill="#1222AD"/>
<path d="M330.337 429.671L356.105 414.797C356.909 414.328 357.552 414.663 357.552 415.534C357.518 416.02 357.368 416.49 357.117 416.907C356.865 417.324 356.519 417.676 356.105 417.933L330.337 432.82C329.533 433.289 328.89 432.954 328.89 432.096C328.921 431.606 329.069 431.131 329.321 430.709C329.572 430.287 329.921 429.932 330.337 429.671Z" fill="#E0E0E0"/>
<path d="M374.758 385.156L381.002 381.552C382.275 380.801 383.32 381.404 383.32 382.892V390.101C383.275 390.905 383.041 391.688 382.639 392.386C382.236 393.084 381.676 393.678 381.002 394.121L374.758 397.725C373.418 398.462 372.439 397.859 372.439 396.385V389.176C372.481 388.371 372.712 387.586 373.115 386.888C373.518 386.189 374.081 385.595 374.758 385.156Z" fill="#1222AD"/>
<path opacity="0.2" d="M305.439 425.196L311.684 421.591C313.024 420.854 314.015 421.457 314.015 422.931V430.14C313.971 430.947 313.737 431.731 313.332 432.43C312.927 433.129 312.362 433.722 311.684 434.16L305.439 437.765C304.166 438.515 303.121 437.912 303.121 436.425V429.216C303.168 428.411 303.402 427.629 303.804 426.931C304.207 426.233 304.766 425.639 305.439 425.196Z" fill="white"/>
<path opacity="0.2" d="M340.105 405.176L346.349 401.571C347.622 400.834 348.668 401.437 348.668 402.911V410.12C348.624 410.925 348.392 411.709 347.989 412.407C347.586 413.106 347.024 413.699 346.349 414.14L340.105 417.745C338.765 418.482 337.773 417.892 337.773 416.405V409.196C337.818 408.389 338.053 407.605 338.458 406.907C338.863 406.208 339.428 405.615 340.105 405.176Z" fill="white"/>
<path opacity="0.2" d="M374.758 385.156L381.002 381.552C382.275 380.801 383.32 381.404 383.32 382.892V390.101C383.275 390.905 383.041 391.688 382.639 392.386C382.236 393.084 381.676 393.678 381.002 394.121L374.758 397.725C373.418 398.462 372.439 397.859 372.439 396.385V389.176C372.481 388.371 372.712 387.586 373.115 386.888C373.518 386.189 374.081 385.595 374.758 385.156Z" fill="white"/>
<path d="M364.989 409.651L390.757 394.777C391.561 394.308 392.205 394.643 392.205 395.501C392.171 395.989 392.022 396.462 391.771 396.881C391.519 397.3 391.172 397.654 390.757 397.913L364.989 412.787C364.199 413.256 363.542 412.921 363.542 412.05C363.58 411.565 363.73 411.096 363.981 410.679C364.233 410.263 364.578 409.911 364.989 409.651Z" fill="#E0E0E0"/>
<mask id="mask0_349_5526" style="mask-type:luminance" maskUnits="userSpaceOnUse" x="210" y="182" width="55" height="71">
<path d="M237.3 186.072C222.266 194.541 210.085 215.646 210.085 233.2C210.085 250.754 222.266 257.963 237.3 249.28C252.335 240.597 264.516 219.505 264.516 202.139C264.516 184.773 252.322 177.59 237.3 186.072Z" fill="white"/>
</mask>
<g mask="url(#mask0_349_5526)">
<path d="M237.3 186.072C222.266 194.541 210.085 215.646 210.085 233.2C210.085 250.754 222.266 257.963 237.3 249.28C252.335 240.597 264.516 219.505 264.516 202.139C264.516 184.773 252.322 177.59 237.3 186.072Z" fill="#FAFAFA"/>
<path d="M250.486 240.168L228.697 246.011C228.322 246.133 227.922 246.16 227.534 246.089C227.146 246.017 226.782 245.851 226.474 245.603C226.167 245.356 225.926 245.035 225.774 244.671C225.621 244.307 225.562 243.911 225.602 243.518V206.427C225.679 203.357 226.704 200.386 228.537 197.922C230.37 195.458 232.921 193.621 235.839 192.665L243.29 190.669C248.958 189.154 253.554 192.853 253.554 198.923V236.028C253.53 236.949 253.222 237.841 252.673 238.582C252.124 239.323 251.36 239.877 250.486 240.168Z" fill="#37474F"/>
<path d="M251.531 249.763L249.24 239.646C249.24 239.646 249.24 225.991 247.297 224.731C245.354 223.472 244.791 223.231 244.791 223.231C247.283 222.373 252.536 221.73 254.171 226.527C255.739 231.056 258.084 242.218 259.196 247.712L251.531 249.763Z" fill="#F28F8F"/>
<path d="M251.343 249.816L243.571 223.351C247.015 222.011 251.437 220.899 253.581 224.45C255.511 227.639 258.593 244.349 259.196 247.712L251.343 249.816Z" fill="#1222AD"/>
<g opacity="0.4">
<path d="M251.343 249.816L243.571 223.351C247.015 222.011 251.437 220.899 253.581 224.45C255.511 227.639 258.593 244.349 259.196 247.712L251.343 249.816Z" fill="black"/>
</g>
<path d="M252.389 249.535L244.751 251.585C245.059 249.391 245.782 247.277 246.882 245.354C248.41 243.151 250.61 241.501 253.153 240.651C252.602 243.579 252.346 246.555 252.389 249.535Z" fill="#1222AD"/>
<path d="M252.389 249.535L244.751 251.585C245.059 249.391 245.782 247.277 246.882 245.354C248.41 243.151 250.61 241.501 253.153 240.651C252.602 243.579 252.346 246.555 252.389 249.535Z" fill="#1222AD"/>
<g opacity="0.7">
<path d="M252.389 249.535L244.751 251.585C245.059 249.391 245.782 247.277 246.882 245.354C248.41 243.151 250.61 241.501 253.153 240.651C252.602 243.579 252.346 246.555 252.389 249.535Z" fill="black"/>
</g>
<path d="M250.754 249.977L229.314 255.699L226.955 248.396C226.955 248.396 233.213 233.749 225.481 229.984C226.46 229.247 234.701 226.031 234.701 226.031L243.558 223.351C245.246 222.895 252.067 225.924 253.796 232.637C254.412 235.009 254.198 237.14 250.727 249.494C250.767 249.655 250.754 249.816 250.754 249.977Z" fill="#1222AD"/>
<path d="M248.985 195.225C250.459 195.761 252.281 199.245 252.107 207.646C251.96 214.775 249.816 217.026 248.744 217.884C247.138 218.688 245.367 219.105 243.571 219.103V223.351C243.571 223.351 246.358 226.031 246.184 228.068C246.01 230.105 242.164 231.552 239.565 230.346C237.666 229.276 236.024 227.803 234.754 226.031V216.249C234.558 216.475 234.32 216.659 234.052 216.792C233.784 216.924 233.493 217.002 233.195 217.02C232.897 217.039 232.598 216.998 232.316 216.9C232.034 216.803 231.774 216.65 231.551 216.45C231.133 216.164 230.776 215.796 230.502 215.369C230.228 214.943 230.043 214.465 229.957 213.966C229.87 213.466 229.885 212.954 230 212.46C230.116 211.966 230.329 211.5 230.627 211.09C231.967 209.335 234.312 209.08 235.223 210.836C236.357 208.082 238.388 205.793 240.985 204.337C245.219 201.764 247.524 199.472 248.985 195.225Z" fill="#FFA8A7"/>
<path d="M244.737 207.847C244.743 208.101 244.67 208.351 244.529 208.562C244.387 208.773 244.184 208.935 243.947 209.027C243.846 209.061 243.738 209.071 243.633 209.055C243.527 209.039 243.428 208.998 243.342 208.934C243.256 208.871 243.187 208.788 243.141 208.692C243.094 208.596 243.072 208.49 243.076 208.383C243.07 208.129 243.143 207.88 243.284 207.668C243.426 207.457 243.629 207.295 243.866 207.204C243.967 207.169 244.075 207.159 244.18 207.175C244.285 207.192 244.385 207.233 244.471 207.296C244.557 207.36 244.626 207.443 244.672 207.539C244.719 207.635 244.741 207.741 244.737 207.847Z" fill="#37474F"/>
<path d="M244.952 213.797L246.881 213.931C246.825 214.225 246.671 214.492 246.446 214.689C246.22 214.885 245.934 215.001 245.635 215.016C245.099 214.976 244.791 214.4 244.952 213.797Z" fill="#F28F8F"/>
<path d="M251.544 203.291L249.869 202.501C249.969 202.242 250.161 202.029 250.408 201.902C250.656 201.776 250.941 201.746 251.209 201.817C251.329 201.891 251.433 201.988 251.515 202.103C251.597 202.217 251.655 202.347 251.686 202.484C251.717 202.621 251.721 202.763 251.696 202.902C251.672 203.041 251.62 203.173 251.544 203.291Z" fill="#37474F"/>
<path d="M242.325 206.427L244 204.725C243.911 204.635 243.804 204.564 243.686 204.518C243.568 204.472 243.442 204.452 243.315 204.458C243.188 204.464 243.065 204.497 242.952 204.555C242.839 204.612 242.739 204.693 242.66 204.792C242.428 204.987 242.268 205.254 242.207 205.551C242.146 205.848 242.188 206.157 242.325 206.427Z" fill="#37474F"/>
<path d="M251.156 205.489C251.164 205.743 251.092 205.994 250.95 206.205C250.808 206.417 250.604 206.579 250.365 206.668C250.263 206.703 250.154 206.713 250.048 206.696C249.941 206.68 249.841 206.637 249.755 206.572C249.668 206.507 249.6 206.422 249.554 206.324C249.509 206.227 249.488 206.119 249.494 206.011C249.49 205.758 249.564 205.509 249.705 205.298C249.846 205.088 250.049 204.925 250.285 204.832C250.387 204.797 250.496 204.787 250.602 204.804C250.709 204.821 250.809 204.863 250.895 204.928C250.982 204.993 251.05 205.078 251.096 205.176C251.141 205.274 251.162 205.381 251.156 205.489Z" fill="#37474F"/>
<path d="M247.243 206.025L247.364 211.345L250.004 209.763L247.243 206.025Z" fill="#F28F8F"/>
<path d="M243.571 219.103C241.454 219.371 237.086 219.197 236.402 217.536C236.65 218.352 237.195 219.045 237.93 219.479C239.27 220.336 243.571 220.524 243.571 220.524V219.103Z" fill="#F28F8F"/>
<path d="M229.435 255.685L228.537 252.496L230.896 255.297L229.435 255.685Z" fill="#1222AD"/>
<path d="M227.679 256.154C226.717 251.57 225.414 247.064 223.78 242.674C221.529 236.496 224.048 231.163 225.562 229.984C227.076 228.805 234.781 226.031 234.781 226.031C237.568 233.964 238.332 244.59 238.399 253.287L227.679 256.154Z" fill="#1222AD"/>
<path opacity="0.4" d="M227.679 256.154C226.717 251.57 225.414 247.064 223.78 242.674C221.529 236.496 224.048 231.163 225.562 229.984C227.076 228.805 234.781 226.031 234.781 226.031C237.568 233.964 238.332 244.59 238.399 253.287L227.679 256.154Z" fill="black"/>
<path d="M223.874 257.173L216.222 259.223C216.008 259.079 215.807 258.918 215.619 258.741C215.619 258.741 219.237 244.778 220.39 240.141C221.542 235.505 222.426 232.316 225.535 229.984C231.123 233.616 228.537 243.706 228.537 243.706L223.874 257.173Z" fill="#1222AD"/>
<path opacity="0.4" d="M223.874 257.173L216.222 259.223C216.008 259.079 215.807 258.918 215.619 258.741C215.619 258.741 219.237 244.778 220.39 240.141C221.542 235.505 222.426 232.316 225.535 229.984C231.123 233.616 228.537 243.706 228.537 243.706L223.874 257.173Z" fill="black"/>
</g>
<path d="M112.466 167.942V141.397C112.386 136.251 115.736 131.092 122.53 127.18C135.93 119.421 157.718 119.421 171.145 127.18C177.939 131.092 181.289 136.251 181.208 141.397V167.849C181.208 172.967 177.912 182.12 171.145 186.019C157.745 193.778 135.956 193.778 122.53 186.019C115.83 182.16 112.48 173.075 112.466 167.996V167.942Z" fill="#EBEBEB"/>
<path d="M146.837 108.46L203.56 141.209L146.837 173.959L90.1152 141.209L146.837 108.46Z" fill="#F5F5F5"/>
<path d="M118.456 157.571L146.395 141.625C146.51 141.559 146.637 141.516 146.769 141.499C146.901 141.482 147.035 141.492 147.163 141.526C147.291 141.561 147.411 141.621 147.516 141.702C147.621 141.783 147.709 141.885 147.775 142C147.841 142.115 147.884 142.242 147.901 142.374C147.918 142.506 147.908 142.639 147.873 142.768C147.839 142.896 147.779 143.016 147.698 143.121C147.616 143.226 147.515 143.314 147.4 143.38L120.453 158.723L118.456 157.571Z" fill="#E0E0E0"/>
<path d="M203.56 141.209V143.554L146.838 176.29V173.959L203.56 141.209Z" fill="#E6E6E6"/>
<path d="M90.1152 141.209V143.554L146.837 176.29V173.959L90.1152 141.209Z" fill="#F0F0F0"/>
<path d="M117.049 159.098L118.777 160.09C119.039 159.663 119.403 159.309 119.836 159.058L120.439 158.71L118.469 157.584C117.887 157.975 117.402 158.493 117.049 159.098Z" fill="#E0E0E0"/>
<path d="M181.275 156.418L146.837 179.801L112.493 156.472L146.837 176.29L181.275 156.418Z" fill="#E0E0E0"/>
<path d="M114.838 186.676C115.319 186.923 115.852 187.053 116.393 187.053C116.933 187.053 117.466 186.923 117.947 186.676L120.506 203.198C120.506 206.32 112.399 206.32 112.399 203.198L114.838 186.676Z" fill="#F5F5F5"/>
<path d="M114.691 196.109L114.182 205.168C114.014 205.117 113.853 205.05 113.699 204.967L114.691 196.109Z" fill="#EBEBEB"/>
<path d="M118.523 205.235L117.451 190.495L119.046 205.02C118.876 205.102 118.701 205.174 118.523 205.235Z" fill="#EBEBEB"/>
<path d="M116.701 205.529H116.191L116.459 193.831L116.701 205.529Z" fill="#EBEBEB"/>
<path d="M116.379 188.056C116.973 188.041 117.548 187.845 118.027 187.493C118.231 187.343 118.369 187.12 118.414 186.871C118.459 186.622 118.407 186.365 118.268 186.153C118.122 185.944 117.9 185.801 117.65 185.754C117.4 185.706 117.141 185.758 116.928 185.898C116.801 186.022 116.63 186.091 116.453 186.091C116.275 186.091 116.105 186.022 115.977 185.898C115.873 185.806 115.75 185.736 115.618 185.693C115.485 185.65 115.345 185.635 115.206 185.649C115.067 185.664 114.933 185.707 114.811 185.776C114.69 185.845 114.585 185.938 114.501 186.05C114.418 186.162 114.359 186.291 114.329 186.427C114.298 186.563 114.296 186.704 114.322 186.841C114.349 186.978 114.404 187.108 114.483 187.222C114.563 187.337 114.665 187.434 114.784 187.506C115.246 187.851 115.803 188.044 116.379 188.056Z" fill="#E0E0E0"/>
<path d="M116.446 185.483C116.577 185.485 116.708 185.46 116.829 185.411C116.951 185.362 117.062 185.29 117.156 185.197C117.249 185.105 117.323 184.995 117.374 184.874C117.425 184.753 117.451 184.623 117.451 184.491V161.068C117.452 160.542 117.591 160.024 117.855 159.568C118.118 159.112 118.496 158.733 118.952 158.469L147.4 142.255C147.626 142.125 147.792 141.912 147.862 141.661C147.932 141.411 147.901 141.142 147.775 140.915C147.712 140.801 147.628 140.702 147.526 140.622C147.425 140.541 147.308 140.482 147.183 140.447C147.059 140.412 146.928 140.402 146.8 140.418C146.672 140.434 146.547 140.475 146.435 140.539L117.92 156.78C117.16 157.219 116.528 157.85 116.088 158.609C115.649 159.369 115.416 160.231 115.414 161.108V184.532C115.419 184.662 115.45 184.79 115.505 184.908C115.559 185.026 115.637 185.133 115.733 185.221C115.829 185.31 115.941 185.378 116.063 185.423C116.186 185.468 116.316 185.488 116.446 185.483Z" fill="#FAFAFA"/>
<path d="M118.644 184.491C118.647 184.056 118.52 183.63 118.28 183.267C118.04 182.904 117.698 182.62 117.297 182.451C116.896 182.283 116.453 182.238 116.026 182.321C115.599 182.404 115.206 182.612 114.897 182.919C114.589 183.226 114.378 183.618 114.292 184.044C114.206 184.471 114.249 184.913 114.415 185.316C114.581 185.718 114.863 186.062 115.224 186.304C115.586 186.546 116.011 186.675 116.447 186.675C116.735 186.677 117.02 186.622 117.287 186.513C117.553 186.404 117.795 186.243 118 186.04C118.204 185.837 118.366 185.596 118.477 185.33C118.587 185.064 118.644 184.779 118.644 184.491Z" fill="#F5F5F5"/>
<path d="M114.276 184.612C114.367 184.839 114.506 185.043 114.684 185.211C114.862 185.379 115.073 185.507 115.305 185.586C115.536 185.664 115.782 185.693 116.025 185.668C116.268 185.643 116.503 185.566 116.714 185.443C116.983 185.281 117.206 185.052 117.361 184.778C117.515 184.505 117.596 184.196 117.596 183.882C117.596 183.567 117.515 183.259 117.361 182.985C117.206 182.712 116.983 182.483 116.714 182.321C117.124 182.377 117.51 182.549 117.826 182.816C118.142 183.083 118.375 183.435 118.5 183.829C118.624 184.224 118.633 184.646 118.527 185.046C118.42 185.446 118.202 185.807 117.898 186.088C117.595 186.369 117.217 186.558 116.81 186.633C116.403 186.707 115.983 186.665 115.599 186.51C115.216 186.355 114.884 186.095 114.642 185.759C114.401 185.423 114.26 185.025 114.235 184.612H114.276Z" fill="#EBEBEB"/>
<path d="M504.657 171.56L494.299 165.597L499.994 164.391L505.662 168.344L504.657 171.56Z" fill="#E0E0E0"/>
<path d="M486.527 118.188C486.527 102.108 476.678 94.6442 464.578 101.626L446.702 111.944C434.642 118.925 424.767 137.739 424.767 153.872C424.767 154.529 424.767 155.212 424.767 155.788C424.767 156.15 424.767 156.458 424.767 156.807C424.767 157.155 424.834 157.437 424.86 157.745C424.887 158.053 424.941 158.455 424.994 158.803C425.264 160.708 425.74 162.577 426.415 164.378C426.696 165.048 426.991 165.718 427.313 166.281C427.461 166.591 427.631 166.891 427.822 167.178L427.996 167.46C428.294 167.94 428.64 168.389 429.028 168.8C429.242 169.041 429.443 169.296 429.671 169.523L430.368 170.193C430.609 170.381 430.837 170.609 431.091 170.796C431.332 170.99 431.587 171.165 431.855 171.319L432.646 171.775C433.67 172.327 434.78 172.703 435.929 172.887C436.017 172.865 436.109 172.865 436.197 172.887C436.505 172.887 436.786 172.954 437.095 172.954C437.42 172.981 437.747 172.981 438.073 172.954C438.934 172.963 439.793 172.869 440.632 172.672C441.134 172.573 441.63 172.447 442.12 172.297C443.685 171.818 445.188 171.152 446.595 170.314L464.471 159.996C465.696 159.285 466.869 158.488 467.982 157.611C467.982 157.396 467.982 157.209 467.982 157.008C467.982 156.807 467.982 156.378 467.982 156.137C467.982 155.601 467.982 155.051 467.982 154.502C467.941 140.794 476.196 124.62 486.527 118.188Z" fill="#E0E0E0"/>
<path d="M489.542 106.597L479.157 100.621C479.224 100.621 480.216 107.843 480.216 107.843L487.921 108.754L489.542 106.597Z" fill="#E0E0E0"/>
<path d="M441.556 176.826L431.962 171.386L437.737 168.907L441.556 176.826Z" fill="#E0E0E0"/>
<path d="M446.702 170.475C446.634 174.446 445.358 178.302 443.044 181.53C442.615 182.093 443.272 182.589 443.754 182.334C445.944 181.197 447.885 179.635 449.463 177.738C452.494 174.156 454.613 169.894 455.64 165.316L446.702 170.475Z" fill="#E0E0E0"/>
<path d="M443.151 182.307L453.536 188.283C453.536 188.283 459.365 183.366 459.365 173.409L448.096 172.646C448.096 172.646 447.828 179.131 443.151 182.307Z" fill="#E0E0E0"/>
<path d="M470.809 153.015C470.809 153.515 470.809 153.997 470.809 154.462C470.809 154.73 470.809 154.958 470.809 155.212C470.809 155.467 470.809 155.681 470.889 155.922C470.969 156.164 470.889 156.458 470.983 156.726C471.138 157.914 471.416 159.081 471.814 160.21C471.871 160.416 471.943 160.618 472.028 160.813C472.126 161.083 472.238 161.347 472.363 161.604C472.467 161.853 472.588 162.095 472.725 162.328C472.831 162.561 472.956 162.785 473.1 162.998L473.234 163.212C473.47 163.581 473.73 163.935 474.011 164.271C474.158 164.466 474.319 164.65 474.494 164.82L475.003 165.316C475.176 165.479 475.36 165.631 475.552 165.771C475.736 165.913 475.928 166.043 476.128 166.16C476.329 166.281 476.517 166.401 476.731 166.508L477.348 166.803L477.991 167.031C478.383 167.15 478.781 167.248 479.184 167.326H479.385C479.607 167.346 479.832 167.346 480.055 167.326C480.295 167.353 480.538 167.353 480.778 167.326C481.354 167.326 481.929 167.267 482.493 167.152C482.946 167.075 483.393 166.972 483.833 166.843C485.01 166.483 486.139 165.984 487.197 165.356L500.597 157.611C501.792 156.921 502.919 156.118 503.96 155.212C504.335 154.891 504.711 154.542 505.086 154.194C505.761 153.565 506.401 152.898 507.002 152.197L507.86 151.42C508.087 151.152 508.302 150.871 508.53 150.589C508.585 150.492 508.653 150.402 508.731 150.321C509.623 149.142 510.446 147.911 511.196 146.636C511.397 146.301 511.585 145.953 511.786 145.604C511.987 145.256 512.174 144.908 512.362 144.546C512.55 144.184 512.724 143.822 512.911 143.474L513.421 142.375C513.595 142.013 513.756 141.625 513.916 141.276C514.198 140.633 514.452 139.936 514.68 139.32C514.68 139.199 514.774 139.079 514.814 138.958C514.962 138.583 515.082 138.208 515.203 137.832C515.444 137.109 515.658 136.385 515.873 135.635C516.344 133.874 516.698 132.083 516.931 130.275C516.931 129.967 516.998 129.672 517.039 129.364C517.079 129.055 517.039 128.841 517.106 128.573C517.173 128.305 517.106 128.037 517.106 127.769C517.106 127.269 517.106 126.773 517.106 126.282C517.106 114.222 509.722 108.58 500.637 113.82L487.237 121.578C478.192 126.791 470.809 140.901 470.809 153.015Z" fill="#E0E0E0"/>
<path d="M521.944 118.965L511.639 113.042L507.753 115.789L519.773 123.066L521.944 118.965Z" fill="#E0E0E0"/>
<path d="M486.567 172.123L476.209 166.16L484.329 163.735L486.567 172.123Z" fill="#E0E0E0"/>
<path d="M498.654 158.911C498.654 161.055 501.334 163.976 504.402 164.525C504.818 164.606 504.711 165.517 504.215 165.865C502.386 166.859 500.276 167.208 498.225 166.857C496.893 166.817 495.595 166.424 494.465 165.718C493.335 165.011 492.412 164.017 491.793 162.837L498.654 158.911Z" fill="#1222AD"/>
<path d="M474.95 107.589L457.061 117.92C445.001 124.901 435.139 143.715 435.139 159.835C435.139 160.505 435.139 161.175 435.139 161.765C435.139 162.127 435.139 162.435 435.139 162.783C435.139 163.132 435.206 163.4 435.246 163.708C435.286 164.016 435.326 164.445 435.38 164.78C435.622 166.677 436.071 168.542 436.72 170.341C437.001 171.024 437.296 171.681 437.618 172.257C437.765 172.564 437.936 172.86 438.127 173.142C438.183 173.239 438.246 173.333 438.314 173.423C438.606 173.929 438.947 174.405 439.333 174.843C439.547 175.084 439.762 175.353 439.989 175.567L440.673 176.237C440.914 176.424 441.155 176.652 441.396 176.84C441.639 177.031 441.894 177.205 442.16 177.362L442.964 177.818C443.984 178.369 445.09 178.745 446.234 178.93C446.321 178.901 446.415 178.901 446.502 178.93C446.81 178.93 447.105 178.93 447.4 178.93C447.725 178.95 448.052 178.95 448.378 178.93C449.239 178.934 450.098 178.84 450.937 178.649C451.439 178.549 451.936 178.424 452.425 178.274C453.987 177.79 455.488 177.129 456.9 176.304C456.834 180.273 455.553 184.127 453.229 187.345C452.8 187.922 453.456 188.417 453.952 188.163C456.145 187.025 458.087 185.458 459.661 183.553C462.683 179.971 464.802 175.716 465.838 171.145L464.498 171.882L474.722 165.986C475.712 165.416 476.665 164.785 477.576 164.096C477.498 163.756 477.44 163.412 477.402 163.065C477.402 162.837 477.322 162.502 477.295 162.153C477.246 161.856 477.215 161.557 477.201 161.256V161.095C477.188 160.872 477.188 160.648 477.201 160.425C477.201 159.916 477.201 159.38 477.201 158.844C477.201 145.283 485.241 129.993 495.586 124.004L496.725 123.334C496.618 107.83 486.876 100.701 474.95 107.589Z" fill="#F0F0F0"/>
<path d="M511.063 119.756L497.663 127.501C488.591 132.754 481.194 146.864 481.194 158.978C481.194 159.473 481.194 159.956 481.194 160.425C481.194 160.894 481.194 160.921 481.194 161.175C481.194 161.43 481.194 161.644 481.261 161.885C481.283 162.151 481.319 162.415 481.369 162.676C481.516 163.869 481.794 165.042 482.199 166.173C482.251 166.381 482.322 166.583 482.414 166.776C482.505 167.042 482.612 167.301 482.735 167.554C482.842 167.806 482.963 168.052 483.097 168.291C483.208 168.524 483.338 168.748 483.486 168.961C483.517 169.037 483.558 169.109 483.606 169.175C483.861 169.55 484.116 169.899 484.384 170.234C484.538 170.426 484.704 170.609 484.879 170.783L485.389 171.279C485.562 171.442 485.746 171.594 485.938 171.734C486.115 171.879 486.303 172.009 486.501 172.123C486.702 172.244 486.889 172.364 487.104 172.471L487.72 172.766L488.363 172.994C488.756 173.113 489.154 173.211 489.556 173.289H489.757C489.98 173.309 490.204 173.309 490.427 173.289C490.671 173.323 490.919 173.323 491.164 173.289C491.74 173.292 492.314 173.238 492.879 173.128C493.331 173.05 493.779 172.947 494.219 172.82C495.397 172.464 496.527 171.965 497.583 171.332L502.112 168.733C502.74 169.9 503.666 170.881 504.796 171.575C505.925 172.269 507.218 172.653 508.544 172.686C510.597 173.032 512.706 172.678 514.534 171.681C515.016 171.373 515.137 170.461 514.708 170.341C511.639 169.791 508.973 166.87 508.973 164.726L511.009 163.547C512.203 162.854 513.329 162.051 514.373 161.148C514.748 160.827 515.123 160.478 515.485 160.13C516.165 159.501 516.809 158.834 517.415 158.133C517.656 157.852 517.897 157.584 518.138 157.262C518.379 156.941 518.58 156.726 518.808 156.445L519.009 156.177C519.901 154.997 520.725 153.767 521.475 152.492L522.078 151.46C522.279 151.112 522.466 150.763 522.654 150.402C522.842 150.04 523.002 149.678 523.19 149.33L523.713 148.231C523.887 147.856 524.034 147.48 524.195 147.132C524.476 146.489 524.744 145.792 524.972 145.176L525.093 144.814C525.24 144.439 525.374 144.063 525.481 143.688C525.736 142.951 525.937 142.241 526.165 141.491C526.636 139.729 526.99 137.939 527.223 136.131C527.223 135.822 527.29 135.528 527.317 135.219C527.344 134.911 527.317 134.683 527.384 134.429C527.451 134.174 527.384 133.893 527.384 133.625C527.384 133.129 527.384 132.62 527.384 132.124C527.532 120.104 520.135 114.516 511.063 119.756Z" fill="#F0F0F0"/>
<path d="M403.407 297.011C398.342 295.43 393.143 299.53 389.739 307.811C386.335 316.093 379.193 337.157 378.135 342.772C377.076 348.387 401.035 360.607 400.365 360.286C399.695 359.964 403.407 297.011 403.407 297.011Z" fill="#263238"/>
<path d="M392.271 491.927C391.548 492.195 391.373 493.562 391.266 496.269C391.186 498.319 390.744 501.897 393.142 502.607C395.541 503.317 399.065 502.956 400.606 501.026C402.522 498.614 403.822 496.497 406.556 493.549C408.941 491.003 411.5 488.618 412.465 485.04C413.336 481.797 412.612 480.403 410.401 479.465C407.373 478.125 402.603 482.387 400.231 483.057C398.181 483.633 392.981 491.659 392.271 491.927Z" fill="#263238"/>
<path d="M392.271 489.422V492.745C393.519 493.543 394.96 493.986 396.441 494.026C397.921 494.066 399.384 493.702 400.673 492.973C400.821 492.651 401.544 488.216 401.544 488.216L392.271 489.422Z" fill="#FFA8A7"/>
<path d="M419.192 511.089C419.192 511.089 418.241 513.984 417.732 516.449C417.316 518.459 416.74 521.809 417.437 523.337C418.134 524.865 420.894 525.829 425.142 525.789C427.902 525.789 432.204 527.652 435.138 529.287C438.073 530.921 444.518 531.658 447.721 531.283C451.5 530.841 455.426 528.603 456.042 527.076C456.659 525.548 455.841 523.873 446.917 520.067C446.837 520.067 434.509 516.047 430.18 511.264L419.192 511.089Z" fill="#263238"/>
<path d="M419.192 507.498C419.192 507.498 419.192 509.964 419.192 511.371C419.192 512.778 420.854 514.881 425.169 514.734C428.197 514.627 430.301 513.809 430.18 511.317V507.712L419.192 507.498Z" fill="#FFA8A7"/>
<path d="M390.1 445.295C390.841 439.406 392.156 433.603 394.027 427.969C394.027 427.969 392.847 413.028 392.271 398.864C391.655 383.561 392.271 364.319 392.017 360.513C392.017 360.513 441.396 350.517 442.28 368.205C443.164 385.893 440.324 430.917 439.748 438.689C439.171 446.461 437.818 453.335 436.21 465.931C434.602 478.527 430.18 507.712 430.18 507.712C428.472 508.583 426.576 509.019 424.659 508.981C422.742 508.944 420.865 508.434 419.192 507.498C419.192 507.498 415.721 472.122 416.083 463.157C416.365 456.499 417.509 449.905 419.487 443.54L417.731 416.271C416.9 403.581 416.03 397.511 415.829 391.977L414.77 391.441C414.77 391.441 413.685 413.336 413.108 421.108C412.532 428.88 411.286 436.331 409.088 450.762C407.132 463.278 401.33 489.77 401.33 489.77C395.688 492.825 392.325 489.381 392.325 489.381C392.325 489.381 388.6 456.149 390.1 445.295Z" fill="#455A64"/>
<path d="M415.829 392.017C415.829 392.017 403.849 386.107 397.859 380.788C397.859 380.788 403.42 388.627 410.737 392.111C410.737 392.111 413.336 419.299 413.323 418.763L414.824 391.963L415.829 392.017Z" fill="#37474F"/>
<path d="M426.496 291.41L423.574 307.49L409.049 306.431L412.091 288.194L426.496 291.41Z" fill="#FFA8A7"/>
<path d="M393.706 305.252C395.139 300.883 400.687 296.126 406.235 297.212C414.485 298.608 422.616 300.637 430.556 303.282C435.634 305.091 440.257 309.486 440.686 326.209L443.259 376.004L437.108 377.344L434.964 366.061L433.973 377.344C427.541 378.952 416.378 377.625 409.049 376.004C393.773 372.667 391.937 366.329 391.937 366.329C391.937 366.329 391.736 338.31 392.191 326.209C392.62 315.865 392.714 308.2 393.706 305.252Z" fill="#37474F"/>
<path d="M437.242 272.355C437.242 272.355 440.766 277.568 440.311 278.117C439.496 278.666 438.588 279.061 437.631 279.283L437.242 272.355Z" fill="#FFA8A7"/>
<path d="M426.495 255.846C429.886 257.561 435.741 260.724 437.349 273.119C439.011 285.849 436.827 289.949 435.112 291.638C433.946 292.777 427.621 292.844 424.459 291.892C420.439 290.7 411.568 287.309 407.494 280.77C402.697 273.079 401.625 262.774 407.039 258.674C414.636 252.912 423.628 254.399 426.495 255.846Z" fill="#FFA8A7"/>
<path d="M438.06 260.107C436.948 263.163 435.072 270.64 427.273 273.762C427.273 273.762 426.161 268.992 422.154 269.501C418.148 270.01 417.464 275.115 419.93 278.291C422.395 281.467 424.78 280.315 424.78 280.315C424.78 280.315 425.316 287.149 420.76 290.244C420.76 290.244 415.253 293.728 409.424 291.048C406.744 289.842 403.086 283.557 400.915 278.398C396.306 267.491 395.649 258.741 402.604 255.98C403.461 251.022 405.699 249.16 410.188 248.235C419.849 246.238 427.152 252.59 435.273 251.478C439.52 250.888 439.333 256.623 438.06 260.107Z" fill="#37474F"/>
<path d="M402.443 257.642L397.887 254.828C398.063 254.512 398.302 254.235 398.588 254.014C398.875 253.793 399.203 253.633 399.553 253.542C399.903 253.451 400.268 253.432 400.626 253.486C400.983 253.54 401.326 253.666 401.634 253.856C401.942 254.046 402.208 254.296 402.416 254.592C402.625 254.888 402.771 255.222 402.847 255.576C402.922 255.93 402.925 256.295 402.856 256.65C402.786 257.005 402.646 257.343 402.443 257.642Z" fill="#37474F"/>
<path d="M425.423 297.265L427.085 302.076C427.085 302.076 425.865 304.22 420.679 304.327C415.494 304.434 409.959 302.786 408.244 300.575C407.854 300.142 407.565 299.628 407.398 299.069C407.231 298.511 407.19 297.922 407.279 297.346C407.279 297.346 409.343 292.79 411.299 292.991L410.978 294.974C410.978 294.974 411.42 296.595 416.123 297.842C423.44 299.785 425.423 297.265 425.423 297.265Z" fill="#455A64"/>
<path d="M467.098 329.238C469.188 326.839 469.992 321.519 472.779 317.875C475.566 314.23 476.598 311.563 477.697 313.158C479.158 315.262 475.861 319.483 476.598 319.858C477.335 320.233 480.055 325.834 480.337 328.916C480.618 331.998 472.444 339.77 472.444 339.77L467.098 329.238Z" fill="#FFA8A7"/>
<path d="M425.423 297.266C425.76 297.259 426.093 297.344 426.385 297.511C426.678 297.679 426.92 297.923 427.084 298.217C427.904 299.697 428.638 301.222 429.282 302.786L427.084 302.076L425.423 297.266Z" fill="#455A64"/>
<path d="M476.37 319.429C476.37 319.429 486.246 318.571 487.68 319.429C489.114 320.287 488.685 324.561 487.68 327.188C486.675 329.814 481.636 331.516 476.96 334.678C476.96 334.196 476.37 319.429 476.37 319.429Z" fill="#FFA8A7"/>
<path d="M429.283 302.84C433.531 304.327 437.242 306.029 441.209 313.479C446.301 323.047 455.949 338.35 455.949 338.35L467.057 328.554C467.057 328.554 468.732 326.933 471.855 332.092C472.769 333.481 473.349 335.063 473.546 336.715C473.744 338.366 473.555 340.041 472.994 341.606C472.994 341.606 460.17 356.654 457.718 358.946C455.265 361.237 451.205 359.455 448.565 355.85C445.926 352.246 429.243 331.409 429.243 331.409C429.243 331.409 420.184 319.375 429.283 302.84Z" fill="#37474F"/>
<path d="M543.866 277.822H512.228C511.034 277.822 509.889 277.348 509.045 276.503C508.2 275.659 507.726 274.514 507.726 273.32V223.056C507.726 219.101 509.297 215.307 512.094 212.51C514.891 209.713 518.685 208.142 522.64 208.142H533.494C537.443 208.153 541.226 209.729 544.014 212.524C546.802 215.32 548.368 219.108 548.368 223.056V273.32C548.368 274.514 547.894 275.659 547.049 276.503C546.205 277.348 545.06 277.822 543.866 277.822Z" fill="#37474F"/>
<path d="M506.895 260.67C503.826 269.715 498.681 295.738 498.681 295.738C498.681 295.738 487.961 308.843 484.463 312.019C482.547 313.788 478.232 316.964 478.232 316.964L486.071 322.726C493.149 317.282 499.797 311.301 505.957 304.837C507.327 303.379 508.288 301.585 508.744 299.637L514.104 276.643C514.104 276.643 514.104 258.151 516.932 255.726C519.759 253.3 520.576 252.791 520.576 252.791C516.945 252.523 509.307 253.555 506.895 260.67Z" fill="#F28F8F"/>
<path d="M522.251 252.523C517.253 251.947 510.848 252.054 507.726 257.642C504.603 263.229 499.404 292.12 499.404 292.12C499.404 292.12 504.322 295.939 509.629 295.872L522.251 252.523Z" fill="#1222AD"/>
<path d="M508.356 279.443C509.256 283.75 509.603 288.154 509.388 292.549C508.999 298.337 505.006 308.441 505.006 308.441C505.006 308.441 508.128 311.871 516.932 310.491C524.101 309.379 521.568 287.711 517.454 283.557C515.055 281.079 511.802 279.607 508.356 279.443Z" fill="#1222AD"/>
<path opacity="0.3" d="M508.356 279.443C509.256 283.75 509.603 288.154 509.388 292.549C508.999 298.337 505.006 308.441 505.006 308.441C505.006 308.441 508.128 311.871 516.932 310.491C524.101 309.379 521.568 287.711 517.454 283.557C515.055 281.079 511.802 279.607 508.356 279.443Z" fill="black"/>
<path d="M524.918 432.471C524.975 433.46 524.727 434.442 524.208 435.285C522.883 437.475 521.324 439.515 519.558 441.369C517.079 444.049 513.368 447.198 510.701 449.516C509.227 450.856 509.173 452.759 511.291 453.442C515.237 454.403 519.401 453.824 522.935 451.821C525.615 450.401 529.34 443.781 531.538 442.843C534.071 441.704 535.478 441.141 536.335 439.975C536.984 439.313 537.388 438.45 537.483 437.527C537.578 436.605 537.358 435.678 536.858 434.897C535.665 432.672 533.87 429.255 533.133 429.644L533.36 430.341C532.784 432.15 527.853 434.254 525.32 433.758L524.918 432.471Z" fill="#37474F"/>
<path d="M550.74 356.869C551.879 344.809 555.148 325.406 551.798 311.041L507.31 313.399C506.078 327.563 504.63 371.783 506.185 376.848C507.98 382.825 524.02 424.19 524.945 432.512C525.009 433.488 524.76 434.46 524.235 435.286C522.911 437.481 521.352 439.525 519.585 441.383C518.379 442.723 516.905 444.063 515.35 445.403C515.22 445.594 515.142 445.815 515.123 446.046C515.123 447.386 518.499 447.801 520.483 447.225C522.956 446.352 525.087 444.714 526.566 442.548C527.705 441.034 530.265 438.126 531.926 435.942C532.481 435.268 532.953 434.53 533.333 433.745C533.777 432.763 533.853 431.655 533.548 430.622L533.44 430.287C532.571 427.575 532.031 424.767 531.832 421.926C531.216 412.8 529.648 391.722 528.201 386.108C527.196 382.016 525.67 378.071 523.658 374.369L528.737 334.853C528.737 334.853 529.273 369.693 530.854 378.577C532.1 385.692 532.583 394.59 534.043 406.797C535.383 418.482 536.938 439.064 536.938 439.064C536.978 439.072 537.019 439.072 537.058 439.064V448.9H545.38V443.192C545.38 440.614 545.595 438.041 546.023 435.5C547.363 427.728 550.15 409.946 550.726 403.93C551.638 394.389 548.194 382.396 548.194 382.396C548.194 382.396 549.628 368.634 550.74 356.869Z" fill="#FFA8A7"/>
<path d="M535.062 252.938C535.062 252.938 547.028 254.278 548.462 254.962C537.233 262.854 546.331 280.422 546.331 280.422L542.03 293.916C546.814 300.039 550.941 303.684 553.5 310.398C556.341 317.902 558.86 329.064 558.19 351.938C547.47 359.978 514.855 359.107 502.151 351.938C502.151 351.938 504.295 331.744 506.828 316.052C508.503 305.694 512.456 294.411 511.786 290.592C506.748 275.102 506.426 272.315 507.337 268.858C509.843 259.129 519.759 252.55 522.198 252.55L535.062 252.938Z" fill="#1222AD"/>
<path opacity="0.6" d="M535.062 252.938C535.062 252.938 547.028 254.278 548.462 254.962C537.233 262.854 546.331 280.422 546.331 280.422L542.03 293.916C546.814 300.039 550.941 303.684 553.5 310.398C556.341 317.902 558.86 329.064 558.19 351.938C547.47 359.978 514.855 359.107 502.151 351.938C502.151 351.938 504.295 331.744 506.828 316.052C508.503 305.694 512.456 294.411 511.786 290.592C506.748 275.102 506.426 272.315 507.337 268.858C509.843 259.129 519.759 252.55 522.198 252.55L535.062 252.938Z" fill="white"/>
<path d="M536.979 444.733V443.54C535.933 447.547 533.843 451.204 530.922 454.139C528.242 456.565 524.624 459.379 523.686 462.099C522.748 464.819 527.987 466.038 531.444 465.69C534.794 465.281 537.881 463.666 540.128 461.148C542.325 458.628 542.285 456.913 543.303 455.519C544.322 454.126 546.694 452.598 547.243 450.99C547.414 449.49 547.25 447.97 546.761 446.541C546.372 445.054 545.943 443.406 545.421 443.54V444.464C544.215 445.413 542.72 445.919 541.186 445.898C540.02 445.925 536.965 445.671 536.979 444.733Z" fill="#37474F"/>
<path d="M545.38 444.438C544.174 445.386 542.68 445.892 541.146 445.871C539.913 445.871 536.911 445.67 536.925 444.732V443.54C535.879 447.547 533.789 451.204 530.868 454.139L528.844 455.948C527.424 457.529 527.826 458.91 531.163 459.191C534.499 459.472 537.434 457.462 539.953 454.367C542.101 451.254 543.92 447.926 545.38 444.438Z" fill="#FFA8A7"/>
<path d="M514.399 216.356C512.255 217.629 509.602 223.056 509.857 234.339C510.085 243.933 513.193 246.305 514.761 246.989C516.329 247.672 519.331 247.257 522.252 246.774V252.523C522.252 252.523 518.232 257.226 518.46 259.866C518.687 262.506 524.302 263.122 528.094 260.549C530.832 258.426 533.189 255.852 535.062 252.938L534.995 239.712C534.995 239.712 536.724 241.374 539.645 238.828C542.057 236.724 542.861 233.16 540.985 231.257C540.498 230.799 539.908 230.464 539.266 230.28C538.623 230.096 537.945 230.069 537.29 230.2C536.634 230.331 536.019 230.617 535.497 231.034C534.974 231.451 534.559 231.987 534.285 232.597C534.285 232.597 532.664 228.081 525.923 225.897C519.84 223.874 516.53 221.582 514.399 216.356Z" fill="#FFA8A7"/>
<path d="M520.576 231.94C520.576 232.177 520.646 232.408 520.776 232.605C520.907 232.802 521.092 232.956 521.309 233.049C521.526 233.141 521.766 233.168 521.998 233.126C522.231 233.083 522.446 232.974 522.616 232.81C522.787 232.647 522.906 232.437 522.958 232.207C523.011 231.977 522.994 231.736 522.911 231.515C522.828 231.294 522.682 231.102 522.491 230.963C522.299 230.824 522.072 230.745 521.836 230.734C521.674 230.731 521.513 230.759 521.362 230.818C521.211 230.877 521.073 230.964 520.956 231.076C520.839 231.188 520.745 231.322 520.68 231.471C520.615 231.619 520.58 231.779 520.576 231.94Z" fill="#37474F"/>
<path d="M520.255 240.061L517.454 240.959C517.503 241.146 517.59 241.321 517.708 241.473C517.827 241.626 517.975 241.753 518.144 241.847C518.313 241.941 518.5 241.999 518.692 242.02C518.884 242.04 519.078 242.021 519.263 241.964C519.641 241.835 519.955 241.565 520.14 241.211C520.325 240.856 520.366 240.445 520.255 240.061Z" fill="#F28F8F"/>
<path d="M510.687 228.229L513.126 226.54C513.023 226.375 512.887 226.233 512.728 226.122C512.568 226.011 512.387 225.934 512.197 225.895C512.006 225.857 511.81 225.857 511.619 225.896C511.429 225.936 511.249 226.013 511.089 226.125C510.762 226.355 510.538 226.703 510.463 227.095C510.388 227.488 510.468 227.894 510.687 228.229Z" fill="#37474F"/>
<path d="M524.087 229.14L521.635 227.451C521.738 227.287 521.873 227.145 522.033 227.034C522.192 226.923 522.372 226.845 522.562 226.805C522.752 226.765 522.948 226.764 523.139 226.801C523.33 226.838 523.511 226.914 523.672 227.023C523.996 227.257 524.219 227.606 524.296 227.999C524.374 228.392 524.299 228.8 524.087 229.14Z" fill="#37474F"/>
<path d="M511.25 231.056C511.248 231.293 511.315 231.525 511.444 231.724C511.572 231.923 511.757 232.079 511.974 232.174C512.191 232.268 512.431 232.297 512.664 232.256C512.897 232.215 513.113 232.107 513.285 231.944C513.457 231.781 513.577 231.572 513.631 231.341C513.684 231.11 513.669 230.869 513.586 230.647C513.503 230.425 513.357 230.233 513.166 230.093C512.974 229.954 512.746 229.874 512.51 229.864C512.185 229.856 511.87 229.978 511.635 230.201C511.399 230.424 511.261 230.732 511.25 231.056Z" fill="#37474F"/>
<path d="M516.931 230.373L516.744 237.636L512.925 236.456L516.931 230.373Z" fill="#F28F8F"/>
<path d="M522.252 246.774C525.334 246.359 531.632 244.537 532.677 242.031C532.279 243.3 531.503 244.417 530.453 245.233C528.55 246.855 522.252 248.691 522.252 248.691V246.774Z" fill="#F28F8F"/>
<path d="M544.107 286.559L535.651 298.002L542.03 293.915L544.107 286.559Z" fill="#1222AD"/>
<path d="M477.496 316.963C475.687 319.295 474.575 323.824 473.624 325.352C472.672 326.879 471.533 328.206 473.624 328.487C475.714 328.769 478.769 324.682 479.908 322.203C480.485 320.805 481.573 319.679 482.95 319.054C481.972 318.719 482.481 314.793 481.798 314.243C481.798 314.243 478.233 315.704 477.496 316.963Z" fill="#F28F8F"/>
<path d="M476.96 334.652C478.849 333.245 478.916 331.516 479.278 328.769C479.64 326.022 487.211 323.047 487.452 325.097C487.693 327.148 488.377 328.863 486.112 331.355C483.848 333.848 480.417 336.501 476.96 334.652Z" fill="#F28F8F"/>
<path d="M535.062 252.938C535.062 252.938 546.264 253.916 548.462 254.962C550.66 256.007 554.318 262.332 551.048 271.511C547.779 280.69 544.804 291.49 545.139 293.661C545.474 295.832 553.286 307.061 553.286 307.061C551.131 308.652 548.694 309.82 546.104 310.505L542.084 301.768L543.022 311.054C538.984 312.036 534.835 312.486 530.68 312.394C530.68 312.394 526.888 276.723 535.062 252.938Z" fill="#1222AD"/>
<path d="M562.666 296.689C563.564 291.41 562.666 289.681 560.817 284.509L551.437 290.579C552.206 292.531 552.658 294.594 552.777 296.689C552.696 298.217 550.619 313.359 548.676 318.639C548.326 319.577 547.638 320.352 546.747 320.809C544.815 321.989 543.063 323.443 541.548 325.124C540.114 326.464 538.961 326.705 539.109 327.161C539.33 327.655 539.726 328.05 540.221 328.27C540.715 328.49 541.274 328.52 541.789 328.354C542.956 327.974 544.076 327.462 545.125 326.826C544.195 328.797 542.955 330.606 541.454 332.186C538.01 335.858 537.702 338.243 544.134 338.739C548.154 339.047 551.517 336.796 555.149 328.153C556.274 324.984 557.2 321.748 557.922 318.464C559.879 310.974 561.782 302.009 562.666 296.689Z" fill="#FFA8A7"/>
<path d="M548.462 254.962C552.978 256.985 554.264 260.978 555.939 266.847C557.614 272.717 562.867 290.324 562.867 290.324C562.867 290.324 558.365 295.684 552.147 294.183L544.107 274.66C544.107 274.66 540.355 261.916 548.462 254.962Z" fill="#1222AD"/>
</svg>
