<svg width="475" height="547" viewBox="0 0 475 547" fill="none" xmlns="http://www.w3.org/2000/svg">
<path d="M106.95 459.414C198.933 507.474 348.067 507.474 440.051 459.414C532.034 411.355 532.045 333.451 440.051 285.392C348.056 237.332 198.933 237.343 106.939 285.392C14.9442 333.44 14.9551 411.344 106.95 459.414Z" fill="#F5F5F5"/>
<path d="M223.176 417.678C247.966 429.494 288.148 429.494 312.884 417.678C337.619 405.863 337.674 386.718 312.884 374.903C288.094 363.088 247.922 363.088 223.176 374.903C198.429 386.718 198.342 405.874 223.176 417.678Z" fill="#EBEBEB"/>
<path d="M437.774 388.436L349.16 439.58C348.426 439.952 347.615 440.146 346.792 440.146C345.969 440.146 345.157 439.952 344.423 439.58L233.656 375.603C233.37 375.506 233.122 375.322 232.946 375.077C232.77 374.831 232.676 374.537 232.676 374.236C232.676 373.934 232.77 373.64 232.946 373.394C233.122 373.149 233.37 372.965 233.656 372.868L322.27 321.724C323.004 321.352 323.815 321.158 324.638 321.158C325.461 321.158 326.273 321.352 327.007 321.724L437.807 385.701C438.092 385.801 438.338 385.988 438.511 386.235C438.684 386.483 438.775 386.778 438.771 387.08C438.767 387.382 438.669 387.675 438.491 387.918C438.312 388.161 438.061 388.342 437.774 388.436Z" fill="#EBEBEB"/>
<path d="M462.433 107.289V130.777C462.433 130.777 452.784 135.295 435.083 135.295C417.382 135.295 407.733 130.766 407.733 130.766V107.792L426.2 55.5315C425.948 57.1725 426.911 58.8135 429.077 60.1044C430.662 61.0824 432.463 61.6549 434.322 61.7713C436.18 61.8877 438.039 61.5444 439.733 60.7717C440.209 60.5846 440.669 60.3616 441.111 60.1044C443.409 58.7806 444.393 56.9646 443.945 55.2361L462.433 107.289Z" fill="#F5F5F5"/>
<path opacity="0.5" d="M462.433 107.289V130.777C462.433 130.777 452.784 135.295 435.083 135.295C417.382 135.295 407.733 130.766 407.733 130.766V107.792L426.2 55.5315C425.948 57.1725 426.911 58.8135 429.077 60.1044C430.662 61.0824 432.463 61.6549 434.322 61.7713C436.18 61.8877 438.039 61.5444 439.733 60.7717C440.209 60.5846 440.669 60.3616 441.111 60.1044C443.409 58.7806 444.393 56.9646 443.945 55.2361L462.433 107.289Z" fill="white"/>
<path d="M460.311 271.936C458.725 274.025 456.716 275.754 454.414 277.012C443.715 283.193 426.375 283.193 415.687 277.012C413.381 275.756 411.368 274.026 409.779 271.936C408.545 270.294 407.815 268.329 407.679 266.28V278.478C407.876 282.372 410.534 286.234 415.687 289.21C426.375 295.38 443.715 295.38 454.414 289.21C459.753 286.125 462.433 282.077 462.433 278.029V265.842C462.393 268.047 461.649 270.182 460.311 271.936Z" fill="#F5F5F5"/>
<path d="M460.311 259.738C458.725 261.826 456.716 263.556 454.414 264.814C453.78 265.175 453.134 265.514 452.467 265.831C442.369 270.645 427.721 270.645 417.634 265.831C416.967 265.514 416.31 265.175 415.687 264.814C413.381 263.558 411.368 261.828 409.779 259.738C408.545 258.1 407.815 256.138 407.679 254.093V266.28C407.815 268.329 408.545 270.294 409.779 271.936C411.368 274.026 413.381 275.756 415.687 277.012C426.375 283.193 443.715 283.193 454.414 277.012C456.716 275.755 458.725 274.025 460.311 271.936C461.649 270.182 462.393 268.047 462.433 265.842V253.644C462.393 255.85 461.65 257.985 460.311 259.738Z" fill="#EBEBEB"/>
<path d="M460.311 247.539C458.724 249.63 456.715 251.363 454.414 252.626C453.78 252.988 453.134 253.316 452.467 253.644C442.369 258.458 427.721 258.458 417.634 253.644C416.967 253.316 416.31 252.988 415.687 252.626C413.384 251.363 411.371 249.63 409.779 247.539C408.545 245.902 407.815 243.94 407.679 241.894V254.092C407.815 256.138 408.545 258.1 409.779 259.737C411.368 261.828 413.381 263.558 415.687 264.814C416.31 265.175 416.967 265.514 417.634 265.831C427.721 270.645 442.369 270.645 452.467 265.831C453.134 265.514 453.78 265.175 454.414 264.814C456.716 263.556 458.725 261.826 460.311 259.737C461.65 257.984 462.393 255.849 462.433 253.644V241.446C462.395 243.652 461.651 245.787 460.311 247.539Z" fill="#F5F5F5"/>
<path d="M407.679 107.748V241.894C407.815 243.94 408.545 245.902 409.779 247.539C411.371 249.63 413.384 251.363 415.687 252.626C416.31 252.987 416.967 253.316 417.634 253.644C420.279 254.876 423.063 255.784 425.927 256.346L420.971 114.968L407.679 107.748Z" fill="#F5F5F5"/>
<path d="M449.131 114.968L444.164 256.346C447.027 255.784 449.812 254.876 452.457 253.644C453.124 253.316 453.769 252.988 454.404 252.626C456.704 251.363 458.713 249.63 460.301 247.539C461.641 245.787 462.384 243.652 462.423 241.446V107.289L449.131 114.968Z" fill="#F5F5F5"/>
<path d="M407.679 107.748V241.894C407.815 243.94 408.545 245.902 409.779 247.539C411.371 249.63 413.384 251.363 415.687 252.626C416.31 252.987 416.967 253.316 417.634 253.644C420.279 254.876 423.063 255.784 425.927 256.346L420.971 114.968L407.679 107.748Z" fill="#E0E0E0"/>
<path d="M449.131 114.968L444.164 256.346C447.027 255.784 449.812 254.876 452.457 253.644C453.124 253.316 453.769 252.988 454.404 252.626C456.704 251.363 458.713 249.63 460.301 247.539C461.641 245.787 462.384 243.652 462.423 241.446V107.289L449.131 114.968Z" fill="#E0E0E0"/>
<path d="M420.972 114.969V255.001C422.592 255.561 424.248 256.014 425.927 256.357C428.931 256.964 431.987 257.268 435.051 257.265C438.115 257.263 441.171 256.958 444.175 256.357C445.855 256.014 447.511 255.561 449.131 255.001V114.969H420.972Z" fill="#EBEBEB"/>
<path d="M441.068 60.0497C440.626 60.3069 440.165 60.53 439.69 60.7171C437.995 61.4897 436.137 61.8331 434.278 61.7167C432.42 61.6003 430.619 61.0278 429.034 60.0497C426.846 58.8026 425.905 57.1178 426.157 55.4768L432.458 37.8306C432.666 37.3146 433.024 36.8734 433.487 36.5649C433.95 36.2564 434.495 36.0951 435.051 36.1021C435.609 36.0943 436.156 36.2552 436.62 36.5637C437.085 36.8721 437.446 37.3137 437.655 37.8306L443.891 55.1595C444.317 56.8881 443.366 58.726 441.068 60.0497Z" fill="#E0E0E0"/>
<path d="M454.415 289.21C445.225 294.516 431.134 295.249 420.566 291.398C419.976 291.194 419.396 290.964 418.827 290.709L418.039 290.381C417.219 290.009 416.431 289.604 415.687 289.177C410.534 286.201 407.876 282.34 407.679 278.445V311.681C407.482 315.882 410.141 320.115 415.687 323.31C416.344 323.693 417.033 324.054 417.744 324.404C418.007 324.535 418.291 324.634 418.553 324.754C419.013 324.951 419.462 325.159 419.932 325.334C420.402 325.509 420.665 325.596 421.026 325.717C421.387 325.837 421.803 326.001 422.207 326.122C422.612 326.242 423.105 326.373 423.553 326.493C424.002 326.614 424.242 326.69 424.592 326.767C424.942 326.844 425.632 326.997 426.157 327.095C426.452 327.095 426.748 327.226 427.043 327.27C427.634 327.38 428.235 327.456 428.837 327.544L429.548 327.642C430.216 327.719 430.883 327.773 431.55 327.817H432.075C432.808 327.872 433.541 327.894 434.263 327.905H434.613C435.401 327.905 436.189 327.905 436.976 327.905H437.151C437.983 327.905 438.814 327.806 439.646 327.73C444.519 327.316 449.264 325.956 453.616 323.726C453.857 323.594 454.108 323.485 454.349 323.343C459.688 320.258 462.368 316.21 462.368 312.162V278.029C462.434 282.077 459.754 286.125 454.415 289.21Z" fill="#E0E0E0"/>
<path d="M124.147 308.595C120.985 307.797 104.105 298.191 102.387 297.021C100.67 295.85 97.2783 293.433 97.2783 289.264C97.2783 285.578 97.6612 250.81 100.681 234.017C101.673 228.794 103.723 223.828 106.705 219.425C109.687 215.023 113.537 211.277 118.021 208.418C128.523 201.909 139.08 197.193 147.974 200.891C156.868 204.589 164.986 211.383 168.487 219.588C171.988 227.793 174.383 244.224 174.635 250.581C174.887 256.937 174.635 278.729 174.635 280.666C174.635 282.602 174.285 285.118 163.859 291.606C153.433 298.093 139.036 305.828 134.584 307.83C131.272 309.176 127.62 309.444 124.147 308.595Z" fill="#37474F"/>
<path d="M121.544 212.936C120.581 213.483 117.802 212.116 117.387 211.426C116.971 210.737 116.861 204.775 118.94 201.482C121.019 198.189 133.982 192.117 137.188 192.566C138.388 192.761 139.537 193.2 140.562 193.854C141.587 194.509 142.468 195.366 143.15 196.373C143.544 197.215 143.982 202.762 143.15 203.9C142.319 205.037 139.354 203.287 139.091 202.806C138.829 202.324 140.065 198.266 137.997 197.423C136.094 196.657 127.057 200.497 123.382 203.582C121.784 204.928 121.861 208.265 121.938 209.917C122.014 211.569 122.025 212.652 121.544 212.936Z" fill="#455A64"/>
<path d="M118.94 252.079C120.8 234.018 124.147 223.471 141.816 215.606C159.484 207.74 166.343 214.435 168.848 220.463C172.13 228.909 174.395 244.443 174.636 250.581C174.887 256.937 174.636 278.729 174.636 280.666C174.636 282.602 174.285 285.118 163.86 291.606C153.434 298.093 139.037 305.828 134.584 307.83C131.276 309.187 127.624 309.466 124.147 308.628C123.449 308.416 122.769 308.149 122.113 307.83C116.61 300.762 117.233 268.577 118.94 252.079Z" fill="#455A64"/>
<path d="M160.128 208.549C155.512 205.847 147.941 204.064 136.826 209.02C116.959 217.87 111.916 228.952 109.914 248.404C109.553 251.97 109.017 256.215 108.82 260.777L107.179 259.781C107.408 254.858 107.89 250.646 108.273 246.839C110.461 227.246 116.335 216.415 135.316 207.958C145.83 203.276 152.733 203.889 157.306 206.197C158.288 206.93 159.23 207.715 160.128 208.549Z" fill="#A0A7DE"/>
<path d="M160.818 209.052C156.212 206.35 148.631 204.567 137.527 209.523C117.649 218.373 112.605 229.455 110.603 248.907C110.242 252.473 109.706 256.718 109.509 261.28L107.868 260.284C108.098 255.361 108.579 251.15 108.962 247.342C111.15 227.749 117.025 216.907 136.006 208.462C146.519 203.779 153.608 204.556 158.181 206.853C159.101 207.536 159.981 208.27 160.818 209.052Z" fill="#455A64"/>
<path d="M154.385 226.228L148.379 222.793C148.083 222.627 147.733 222.584 147.405 222.674C147.077 222.764 146.798 222.98 146.629 223.274L140.469 233.985C140.298 234.279 140.25 234.63 140.336 234.96C140.422 235.29 140.635 235.573 140.929 235.746L146.858 239.203C147.153 239.375 147.504 239.423 147.834 239.337C148.164 239.251 148.446 239.037 148.62 238.744L154.855 227.968C154.941 227.823 154.997 227.663 155.019 227.497C155.042 227.33 155.031 227.161 154.987 226.999C154.943 226.837 154.867 226.685 154.764 226.553C154.661 226.42 154.532 226.31 154.385 226.228Z" fill="#A0A7DE"/>
<path d="M147.942 237.978L153.86 227.771C153.903 227.698 153.931 227.617 153.941 227.533C153.952 227.449 153.947 227.364 153.924 227.283C153.902 227.201 153.863 227.125 153.811 227.058C153.759 226.992 153.694 226.937 153.62 226.896L148.15 223.789C148.001 223.705 147.826 223.684 147.663 223.729C147.499 223.774 147.359 223.882 147.274 224.029L141.421 234.193C141.338 234.341 141.317 234.516 141.362 234.68C141.407 234.843 141.515 234.983 141.662 235.068L147.034 238.208C147.108 238.254 147.191 238.286 147.277 238.299C147.364 238.313 147.452 238.309 147.537 238.288C147.622 238.266 147.702 238.228 147.771 238.174C147.841 238.121 147.899 238.054 147.942 237.978Z" fill="#455A64"/>
<path d="M149.21 233.098C149.368 233.003 149.502 232.872 149.6 232.717C149.699 232.561 149.76 232.385 149.779 232.201V227.311C149.779 226.994 149.528 226.895 149.21 227.071C149.053 227.166 148.919 227.297 148.821 227.452C148.722 227.608 148.661 227.784 148.642 227.968V232.858C148.642 233.175 148.893 233.274 149.21 233.098Z" fill="#37474F"/>
<path d="M146.038 234.936C146.195 234.838 146.328 234.705 146.427 234.548C146.525 234.39 146.587 234.213 146.607 234.028V229.149C146.607 228.832 146.344 228.722 146.038 228.908C145.879 229.002 145.744 229.133 145.646 229.289C145.547 229.445 145.486 229.622 145.469 229.805V234.696C145.502 235.002 145.72 235.111 146.038 234.936Z" fill="#37474F"/>
<path d="M127.122 267.352C127.122 267.352 130.098 269.802 132.242 279.035C134.387 288.269 135.677 299.898 133.336 301.298C130.995 302.699 127.615 299.767 126.772 298.76C125.044 296.693 125.47 274.747 127.122 267.352Z" fill="#A0A7DE"/>
<path d="M127.123 267.352C127.123 267.352 130.099 269.802 132.243 279.036C134.387 288.269 135.678 299.898 133.337 301.298L169.439 280.009C171.802 278.609 172.382 266.389 170.249 257.156C168.837 251.084 166.244 248.196 164.647 246.927C164.281 246.644 163.838 246.477 163.376 246.448C162.914 246.418 162.454 246.528 162.054 246.763L127.123 267.352Z" fill="#37474F"/>
<path d="M163.903 248.338C165.632 249.191 168.564 251.543 169.887 257.79C170.111 258.64 170.09 259.536 169.829 260.376C169.568 261.215 169.077 261.964 168.41 262.538C167.207 263.391 141.367 278.084 137.943 280.129C134.989 281.891 133.457 279.55 132.812 278.084C131.718 275.48 130.777 273.456 129.967 271.903C129.349 270.208 128.384 268.662 127.134 267.362L161.562 248.436C161.914 248.229 162.312 248.112 162.72 248.095C163.128 248.078 163.535 248.161 163.903 248.338Z" fill="#A0A7DE"/>
<path d="M109.936 262.297C110.436 264.178 110.762 266.1 110.91 268.041C110.91 268.435 110.374 268.642 110.221 268.642C108.97 268.391 107.812 267.8 106.873 266.936C107.048 265.282 107.348 263.643 107.77 262.035L109.936 262.297Z" fill="#A0A7DE"/>
<path d="M111.052 260.755C111.052 260.342 110.93 259.938 110.7 259.594C110.47 259.25 110.144 258.982 109.762 258.824C109.38 258.666 108.96 258.625 108.555 258.705C108.15 258.786 107.777 258.985 107.485 259.277C107.193 259.57 106.994 259.942 106.913 260.347C106.833 260.753 106.874 261.173 107.032 261.554C107.19 261.936 107.458 262.263 107.802 262.492C108.145 262.722 108.549 262.844 108.963 262.844C109.517 262.844 110.048 262.624 110.44 262.232C110.832 261.84 111.052 261.309 111.052 260.755Z" fill="#A0A7DE"/>
<path d="M137.188 197.325C139.474 197.106 141.629 197.325 142.176 199.611C142.723 201.898 142.526 203.987 142.176 204.272C141.018 204.125 139.937 203.611 139.091 202.806C138.828 202.313 140.065 198.266 137.997 197.423C137.744 197.339 137.476 197.306 137.209 197.325H137.188Z" fill="#A0A7DE"/>
<path d="M162.273 246.642C162.627 246.433 163.027 246.315 163.437 246.298C163.847 246.281 164.256 246.365 164.625 246.544C166.354 247.397 169.286 249.749 170.61 255.996C170.831 256.846 170.811 257.742 170.55 258.581C170.289 259.42 169.798 260.169 169.133 260.744C167.929 261.597 142.1 276.29 138.676 278.335C135.722 280.097 134.179 277.756 133.534 276.29C129.957 268.807 127.123 267.352 127.123 267.352L162.273 246.642Z" fill="#37474F"/>
<path d="M156.081 373.918L127.112 357.202C126.355 356.707 125.725 356.041 125.273 355.258C124.821 354.475 124.559 353.597 124.508 352.695V353.023C124.557 352.12 124.819 351.241 125.271 350.458C125.723 349.675 126.354 349.009 127.112 348.515L185.367 314.886C186.172 314.476 187.062 314.262 187.965 314.262C188.868 314.262 189.759 314.476 190.564 314.886L219.533 331.613C220.291 332.103 220.923 332.766 221.375 333.548C221.828 334.33 222.089 335.208 222.136 336.11V335.781C222.088 336.683 221.829 337.561 221.378 338.345C220.928 339.128 220.299 339.794 219.544 340.289L161.288 373.918C160.481 374.328 159.589 374.542 158.684 374.542C157.779 374.542 156.887 374.328 156.081 373.918Z" fill="#1222AD"/>
<path opacity="0.7" d="M156.081 373.918L127.112 357.202C126.355 356.707 125.725 356.041 125.273 355.258C124.821 354.475 124.559 353.597 124.508 352.695V353.023C124.557 352.12 124.819 351.241 125.271 350.458C125.723 349.675 126.354 349.009 127.112 348.515L185.367 314.886C186.172 314.476 187.062 314.262 187.965 314.262C188.868 314.262 189.759 314.476 190.564 314.886L219.533 331.613C220.291 332.103 220.923 332.766 221.375 333.548C221.828 334.33 222.089 335.208 222.136 336.11V335.781C222.088 336.683 221.829 337.561 221.378 338.345C220.928 339.128 220.299 339.794 219.544 340.289L161.288 373.918C160.481 374.328 159.589 374.542 158.684 374.542C157.779 374.542 156.887 374.328 156.081 373.918Z" fill="black"/>
<path d="M158.629 330.29L127.068 348.516C126.31 349.009 125.679 349.675 125.227 350.458C124.775 351.241 124.513 352.12 124.464 353.023V352.695C124.515 353.597 124.777 354.475 125.229 355.258C125.681 356.041 126.311 356.707 127.068 357.202L156.037 373.918C156.837 374.344 157.734 374.559 158.64 374.542L158.629 330.29Z" fill="#1222AD"/>
<path opacity="0.7" d="M158.629 330.29L127.068 348.516C126.31 349.009 125.679 349.675 125.227 350.458C124.775 351.241 124.513 352.12 124.464 353.023V352.695C124.515 353.597 124.777 354.475 125.229 355.258C125.681 356.041 126.311 356.707 127.068 357.202L156.037 373.918C156.837 374.344 157.734 374.559 158.64 374.542L158.629 330.29Z" fill="black"/>
<path d="M127.101 351.524L156.059 368.251C156.867 368.656 157.759 368.866 158.663 368.866C159.566 368.866 160.458 368.656 161.266 368.251L219.522 334.611C220.966 333.779 220.966 332.423 219.522 331.613L190.553 314.886C189.748 314.476 188.858 314.262 187.954 314.262C187.051 314.262 186.161 314.476 185.356 314.886L127.101 348.515C125.657 349.347 125.657 350.693 127.101 351.524Z" fill="#1222AD"/>
<path opacity="0.5" d="M127.101 351.524L156.059 368.251C156.867 368.656 157.759 368.866 158.663 368.866C159.566 368.866 160.458 368.656 161.266 368.251L219.522 334.611C220.966 333.779 220.966 332.423 219.522 331.613L190.553 314.886C189.748 314.476 188.858 314.262 187.954 314.262C187.051 314.262 186.161 314.476 185.356 314.886L127.101 348.515C125.657 349.347 125.657 350.693 127.101 351.524Z" fill="black"/>
<path d="M127.101 346.021V348.8L157.164 366.162C157.621 366.425 158.14 366.563 158.668 366.563C159.196 366.563 159.715 366.425 160.172 366.162L219.522 331.887V329.021L158.662 358.559L127.101 346.021Z" fill="#1222AD"/>
<path d="M156.07 362.749L127.101 346.021C126.342 345.529 125.71 344.864 125.258 344.08C124.805 343.297 124.545 342.417 124.497 341.514V336.164C124.545 335.261 124.805 334.382 125.258 333.598C125.71 332.815 126.342 332.15 127.101 331.657L185.356 298.017C186.161 297.606 187.051 297.393 187.955 297.393C188.858 297.393 189.748 297.606 190.553 298.017L219.522 314.744C220.281 315.236 220.912 315.902 221.365 316.685C221.817 317.468 222.078 318.348 222.126 319.251V324.612C222.071 325.496 221.806 326.354 221.353 327.115C220.9 327.876 220.273 328.518 219.522 328.988L161.266 362.716C160.464 363.131 159.575 363.35 158.672 363.356C157.769 363.362 156.877 363.154 156.07 362.749Z" fill="#1222AD"/>
<path opacity="0.6" d="M156.07 362.749L127.101 346.021C126.342 345.529 125.71 344.864 125.258 344.08C124.805 343.297 124.545 342.417 124.497 341.514V336.164C124.545 335.261 124.805 334.382 125.258 333.598C125.71 332.815 126.342 332.15 127.101 331.657L185.356 298.017C186.161 297.606 187.051 297.393 187.955 297.393C188.858 297.393 189.748 297.606 190.553 298.017L219.522 314.744C220.281 315.236 220.912 315.902 221.365 316.685C221.817 317.468 222.078 318.348 222.126 319.251V324.612C222.071 325.496 221.806 326.354 221.353 327.115C220.9 327.876 220.273 328.518 219.522 328.988L161.266 362.716C160.464 363.131 159.575 363.35 158.672 363.356C157.769 363.362 156.877 363.154 156.07 362.749Z" fill="black"/>
<path d="M158.629 313.431L127.068 331.657C126.309 332.149 125.677 332.815 125.225 333.598C124.772 334.381 124.511 335.261 124.464 336.164V341.514C124.511 342.417 124.772 343.297 125.225 344.08C125.677 344.863 126.309 345.529 127.068 346.021L156.037 362.748C156.833 363.176 157.726 363.391 158.629 363.372V313.431Z" fill="#1222AD"/>
<path opacity="0.7" d="M158.629 313.431L127.068 331.657C126.309 332.149 125.677 332.815 125.225 333.598C124.772 334.381 124.511 335.261 124.464 336.164V341.514C124.511 342.417 124.772 343.297 125.225 344.08C125.677 344.863 126.309 345.529 127.068 346.021L156.037 362.748C156.833 363.176 157.726 363.391 158.629 363.372V313.431Z" fill="black"/>
<path d="M127.101 334.655L156.059 351.382C156.865 351.792 157.758 352.006 158.663 352.006C159.567 352.006 160.46 351.792 161.266 351.382L219.522 317.752C220.966 316.921 220.966 315.564 219.522 314.744L190.553 298.017C189.748 297.606 188.858 297.393 187.954 297.393C187.051 297.393 186.161 297.606 185.356 298.017L127.101 331.657C125.657 332.489 125.657 333.834 127.101 334.655Z" fill="#1222AD"/>
<path opacity="0.5" d="M127.101 334.655L156.059 351.382C156.865 351.792 157.758 352.006 158.663 352.006C159.567 352.006 160.46 351.792 161.266 351.382L219.522 317.752C220.966 316.921 220.966 315.564 219.522 314.744L190.553 298.017C189.748 297.606 188.858 297.393 187.954 297.393C187.051 297.393 186.161 297.606 185.356 298.017L127.101 331.657C125.657 332.489 125.657 333.834 127.101 334.655Z" fill="black"/>
<path d="M167.503 321.362C164.297 323.222 164.297 326.209 167.503 328.047C169.305 328.953 171.294 329.425 173.312 329.425C175.329 329.425 177.319 328.953 179.121 328.047C182.326 326.209 182.326 323.222 179.121 321.362C177.32 320.451 175.33 319.976 173.312 319.976C171.294 319.976 169.304 320.451 167.503 321.362Z" fill="#1222AD"/>
<path d="M214.806 323.321C214.509 323.515 214.262 323.777 214.085 324.085C213.909 324.393 213.807 324.738 213.789 325.093C213.789 325.75 214.249 326.023 214.806 325.706C215.104 325.511 215.351 325.25 215.528 324.942C215.704 324.634 215.806 324.288 215.824 323.933C215.824 323.277 215.364 323.004 214.806 323.321Z" fill="#1222AD"/>
<path d="M214.806 327.248C214.509 327.443 214.262 327.705 214.085 328.013C213.909 328.321 213.807 328.666 213.789 329.021C213.789 329.677 214.249 329.951 214.806 329.633C215.108 329.443 215.358 329.182 215.535 328.873C215.712 328.564 215.811 328.217 215.824 327.861C215.824 327.205 215.364 326.931 214.806 327.248Z" fill="#1222AD"/>
<path d="M143.938 396.028C143.804 396.028 143.672 395.994 143.555 395.93L115.483 379.618C114.756 379.197 114.152 378.592 113.733 377.865C113.314 377.137 113.093 376.312 113.093 375.472C113.093 374.632 113.314 373.807 113.733 373.079C114.152 372.351 114.756 371.747 115.483 371.326L136.061 359.445C136.235 359.356 136.437 359.338 136.625 359.393C136.813 359.449 136.972 359.575 137.07 359.744C137.168 359.914 137.198 360.114 137.152 360.305C137.107 360.495 136.99 360.661 136.827 360.768L116.259 372.616C115.77 372.907 115.364 373.32 115.082 373.815C114.8 374.31 114.652 374.87 114.652 375.439C114.652 376.008 114.8 376.568 115.082 377.063C115.364 377.558 115.77 377.971 116.259 378.262L144.331 394.551C144.426 394.601 144.509 394.669 144.574 394.753C144.64 394.837 144.688 394.934 144.714 395.037C144.739 395.14 144.743 395.248 144.724 395.353C144.706 395.457 144.665 395.557 144.605 395.645C144.539 395.764 144.442 395.862 144.325 395.93C144.207 395.997 144.073 396.031 143.938 396.028Z" fill="#1222AD"/>
<path d="M179.098 380.275L173.016 355.856C172.929 355.52 172.816 355.191 172.677 354.872L174.449 354.62L170.587 352.432C169.777 351.992 168.862 351.781 167.941 351.821C167.019 351.862 166.126 352.152 165.358 352.662L140.032 367.322C138.293 368.46 136.847 369.993 135.811 371.795C134.775 373.596 134.178 375.617 134.069 377.693V407.056C134.069 409.397 134.638 411.005 135.809 411.563L139.441 413.663L138.566 411.344L138.763 411.268C142.931 409.276 144.44 405.644 145.688 402.045L150.512 388.097C151.759 384.497 154.888 380.373 157.448 378.874C160.008 377.375 163.662 378.874 165.544 382.156L167.972 386.401C168.714 387.748 169.831 388.851 171.189 389.574L174.886 391.762L173.946 390.296C174.715 390.297 175.47 390.093 176.134 389.705C178.661 388.195 180.017 383.994 179.098 380.275Z" fill="#1222AD"/>
<path opacity="0.7" d="M179.098 380.275L173.016 355.856C172.929 355.52 172.816 355.191 172.677 354.872L174.449 354.62L170.587 352.432C169.777 351.992 168.862 351.781 167.941 351.821C167.019 351.862 166.126 352.152 165.358 352.662L140.032 367.322C138.293 368.46 136.847 369.993 135.811 371.795C134.775 373.596 134.178 375.617 134.069 377.693V407.056C134.069 409.397 134.638 411.005 135.809 411.563L139.441 413.663L138.566 411.344L138.763 411.268C142.931 409.276 144.44 405.644 145.688 402.045L150.512 388.097C151.759 384.497 154.888 380.373 157.448 378.874C160.008 377.375 163.662 378.874 165.544 382.156L167.972 386.401C168.714 387.748 169.831 388.851 171.189 389.574L174.886 391.762L173.946 390.296C174.715 390.297 175.47 390.093 176.134 389.705C178.661 388.195 180.017 383.994 179.098 380.275Z" fill="black"/>
<path d="M172.677 354.872L174.449 354.62L170.587 352.432C169.777 351.992 168.862 351.781 167.941 351.821C167.019 351.862 166.127 352.152 165.358 352.662L140.032 367.322C138.617 368.203 137.408 369.378 136.487 370.768L142.515 374.443L173.344 357.027L173.049 355.856C172.951 355.519 172.827 355.19 172.677 354.872Z" fill="#1222AD"/>
<path opacity="0.5" d="M172.677 354.872L174.449 354.62L170.587 352.432C169.777 351.992 168.862 351.781 167.941 351.821C167.019 351.862 166.127 352.152 165.358 352.662L140.032 367.322C138.617 368.203 137.408 369.378 136.487 370.768L142.515 374.443L173.344 357.027L173.049 355.856C172.951 355.519 172.827 355.19 172.677 354.872Z" fill="black"/>
<path d="M179.996 391.98C177.403 393.479 173.76 391.98 171.868 388.698L169.45 384.454C167.557 381.172 163.98 379.673 161.343 381.172C158.707 382.67 155.654 386.784 154.407 390.394L149.594 404.332C148.347 407.931 146.826 411.563 142.658 413.554C139.507 415.064 137.986 413.16 137.986 409.353V379.968C138.099 377.894 138.699 375.875 139.736 374.075C140.774 372.275 142.221 370.745 143.96 369.608L169.329 354.894C170.013 354.415 170.807 354.119 171.637 354.033C172.467 353.947 173.305 354.074 174.072 354.403C174.839 354.732 175.509 355.251 176.019 355.911C176.53 356.571 176.863 357.351 176.987 358.176L183.07 382.605C183.967 386.259 182.6 390.481 179.996 391.98Z" fill="#1222AD"/>
<path opacity="0.6" d="M179.996 391.98C177.403 393.479 173.76 391.98 171.868 388.698L169.45 384.454C167.557 381.172 163.98 379.673 161.343 381.172C158.707 382.67 155.654 386.784 154.407 390.394L149.594 404.332C148.347 407.931 146.826 411.563 142.658 413.554C139.507 415.064 137.986 413.16 137.986 409.353V379.968C138.099 377.894 138.699 375.875 139.736 374.075C140.774 372.275 142.221 370.745 143.96 369.608L169.329 354.894C170.013 354.415 170.807 354.119 171.637 354.033C172.467 353.947 173.305 354.074 174.072 354.403C174.839 354.732 175.509 355.251 176.019 355.911C176.53 356.571 176.863 357.351 176.987 358.176L183.07 382.605C183.967 386.259 182.6 390.481 179.996 391.98Z" fill="black"/>
<path d="M170.161 363.35L170.796 366.95L173.607 365.155L174.231 368.755L171.43 370.56L172.065 374.159L169.264 375.953L168.629 372.354L165.829 374.159L165.194 370.549L167.995 368.755L167.36 365.155L170.161 363.35Z" fill="#A0A7DE"/>
<path d="M170.971 363.777L171.605 367.376L174.406 365.582L175.04 369.181L172.24 370.986L172.874 374.586L170.074 376.38L169.439 372.78L166.638 374.575L166.004 370.975L168.805 369.181L168.17 365.582L170.971 363.777Z" fill="#1222AD"/>
<path d="M148.937 376.095C149.012 376.602 148.95 377.12 148.757 377.595C148.565 378.07 148.249 378.485 147.843 378.797C147.066 379.29 146.3 378.885 146.125 377.889C146.047 377.382 146.107 376.863 146.3 376.387C146.492 375.912 146.81 375.497 147.219 375.187C147.985 374.695 148.784 375.1 148.937 376.095Z" fill="#A0A7DE"/>
<path d="M150.206 383.294C150.285 383.801 150.224 384.32 150.032 384.796C149.839 385.271 149.521 385.686 149.112 385.996C148.335 386.488 147.57 386.083 147.395 385.099C147.315 384.592 147.375 384.072 147.567 383.596C147.76 383.12 148.079 382.706 148.489 382.397C149.254 381.893 150.031 382.298 150.206 383.294Z" fill="#A0A7DE"/>
<path d="M152.372 377.89C152.452 378.397 152.392 378.916 152.199 379.392C152.007 379.868 151.688 380.283 151.278 380.592C150.501 381.095 149.736 380.69 149.561 379.695C149.481 379.187 149.541 378.668 149.733 378.192C149.926 377.716 150.245 377.301 150.655 376.992C151.431 376.5 152.197 376.894 152.372 377.89Z" fill="#A0A7DE"/>
<path d="M146.771 381.489C146.85 381.996 146.791 382.515 146.598 382.991C146.405 383.467 146.087 383.882 145.677 384.191C144.9 384.694 144.134 384.289 143.959 383.294C143.881 382.786 143.941 382.268 144.134 381.792C144.326 381.316 144.644 380.901 145.053 380.592C145.83 380.099 146.596 380.493 146.771 381.489Z" fill="#A0A7DE"/>
<path d="M148.991 376.128C149.07 376.635 149.009 377.154 148.817 377.63C148.624 378.106 148.307 378.521 147.897 378.83C147.121 379.323 146.355 378.929 146.18 377.933C146.1 377.426 146.16 376.907 146.353 376.431C146.545 375.955 146.864 375.54 147.274 375.231C148.051 374.728 148.783 375.133 148.991 376.128Z" fill="#A0A7DE"/>
<path d="M150.261 383.327C150.34 383.834 150.281 384.353 150.088 384.829C149.895 385.305 149.577 385.72 149.167 386.029C148.39 386.532 147.624 386.127 147.449 385.132C147.37 384.625 147.429 384.105 147.622 383.629C147.815 383.153 148.133 382.739 148.543 382.43C149.32 381.937 150.086 382.331 150.261 383.327Z" fill="#A0A7DE"/>
<path d="M152.427 377.933C152.505 378.439 152.444 378.956 152.251 379.43C152.059 379.904 151.742 380.317 151.333 380.625C150.567 381.128 149.791 380.723 149.616 379.728C149.54 379.22 149.601 378.702 149.793 378.227C149.986 377.752 150.302 377.337 150.71 377.025C151.486 376.533 152.252 376.938 152.427 377.933Z" fill="#A0A7DE"/>
<path d="M146.826 381.532C146.904 382.04 146.844 382.559 146.651 383.034C146.459 383.51 146.141 383.925 145.732 384.235C144.966 384.727 144.189 384.322 144.014 383.327C143.939 382.82 144.001 382.302 144.194 381.827C144.386 381.352 144.702 380.937 145.108 380.624C145.885 380.132 146.651 380.537 146.826 381.532Z" fill="#A0A7DE"/>
<path d="M149.046 376.161C149.126 376.668 149.066 377.188 148.874 377.664C148.681 378.14 148.362 378.554 147.952 378.863C147.187 379.366 146.41 378.962 146.235 377.966C146.159 377.459 146.22 376.941 146.413 376.466C146.605 375.99 146.921 375.575 147.329 375.264C148.106 374.772 148.871 375.165 149.046 376.161Z" fill="#A0A7DE"/>
<path d="M150.316 383.37C150.393 383.876 150.333 384.393 150.14 384.867C149.947 385.341 149.63 385.754 149.222 386.062C148.456 386.565 147.679 386.16 147.504 385.165C147.428 384.657 147.49 384.139 147.682 383.664C147.875 383.189 148.191 382.774 148.598 382.462C149.375 381.97 150.141 382.375 150.316 383.37Z" fill="#A0A7DE"/>
<path d="M152.492 377.966C152.568 378.473 152.507 378.991 152.315 379.467C152.122 379.942 151.806 380.357 151.398 380.668C150.622 381.161 149.856 380.756 149.681 379.771C149.601 379.264 149.661 378.745 149.854 378.269C150.046 377.793 150.365 377.378 150.775 377.069C151.541 376.566 152.317 376.971 152.492 377.966Z" fill="#A0A7DE"/>
<path d="M146.892 381.565C146.968 382.072 146.906 382.591 146.714 383.066C146.522 383.541 146.205 383.956 145.798 384.267C145.021 384.76 144.255 384.366 144.08 383.37C144.001 382.863 144.06 382.344 144.253 381.868C144.446 381.392 144.764 380.977 145.174 380.668C145.94 380.165 146.717 380.57 146.892 381.565Z" fill="#A0A7DE"/>
<path d="M149.112 376.205C149.188 376.712 149.127 377.23 148.934 377.705C148.742 378.18 148.425 378.595 148.018 378.907C147.241 379.399 146.475 378.994 146.3 377.999C146.223 377.493 146.284 376.976 146.476 376.502C146.669 376.028 146.986 375.616 147.394 375.308C148.16 374.804 148.937 375.242 149.112 376.205Z" fill="#A0A7DE"/>
<path d="M150.381 383.403C150.457 383.91 150.396 384.429 150.203 384.904C150.011 385.379 149.694 385.794 149.287 386.106C148.51 386.598 147.744 386.204 147.569 385.208C147.49 384.701 147.55 384.182 147.742 383.706C147.935 383.23 148.253 382.815 148.663 382.506C149.429 382.003 150.206 382.408 150.381 383.403Z" fill="#A0A7DE"/>
<path d="M152.547 377.999C152.627 378.506 152.567 379.025 152.374 379.501C152.182 379.977 151.863 380.392 151.453 380.701C150.676 381.204 149.911 380.8 149.736 379.804C149.657 379.297 149.717 378.778 149.91 378.302C150.103 377.826 150.42 377.412 150.83 377.102C151.606 376.61 152.372 377.003 152.547 377.999Z" fill="#A0A7DE"/>
<path d="M146.946 381.598C147.025 382.105 146.965 382.625 146.773 383.101C146.58 383.577 146.262 383.991 145.852 384.3C145.075 384.803 144.309 384.399 144.134 383.403C144.056 382.896 144.116 382.377 144.308 381.901C144.501 381.426 144.819 381.011 145.228 380.701C146.005 380.209 146.771 380.602 146.946 381.598Z" fill="#A0A7DE"/>
<path d="M149.167 376.238C149.246 376.745 149.185 377.264 148.993 377.739C148.8 378.215 148.482 378.63 148.073 378.94C147.296 379.432 146.531 379.038 146.356 378.043C146.276 377.535 146.336 377.016 146.528 376.54C146.721 376.064 147.039 375.65 147.45 375.34C148.226 374.837 148.992 375.242 149.167 376.238Z" fill="#A0A7DE"/>
<path d="M150.436 383.436C150.515 383.943 150.456 384.463 150.263 384.939C150.07 385.415 149.752 385.829 149.342 386.138C148.565 386.642 147.799 386.237 147.624 385.241C147.546 384.734 147.606 384.215 147.799 383.739C147.991 383.264 148.309 382.849 148.718 382.539C149.495 382.047 150.261 382.441 150.436 383.436Z" fill="#A0A7DE"/>
<path d="M152.602 378.043C152.679 378.55 152.618 379.068 152.426 379.544C152.233 380.019 151.916 380.434 151.508 380.745C150.731 381.237 149.965 380.832 149.79 379.837C149.712 379.33 149.772 378.811 149.965 378.335C150.157 377.859 150.475 377.445 150.884 377.135C151.661 376.642 152.427 377.047 152.602 378.043Z" fill="#A0A7DE"/>
<path d="M147.001 381.642C147.079 382.149 147.019 382.668 146.826 383.144C146.634 383.619 146.316 384.034 145.907 384.344C145.141 384.836 144.364 384.432 144.189 383.436C144.114 382.931 144.176 382.414 144.368 381.941C144.561 381.468 144.877 381.054 145.283 380.745C146.06 380.242 146.826 380.646 147.001 381.642Z" fill="#A0A7DE"/>
<path d="M149.221 376.27C149.301 376.778 149.241 377.297 149.048 377.773C148.856 378.249 148.537 378.663 148.127 378.972C147.361 379.476 146.585 379.071 146.41 378.075C146.334 377.568 146.395 377.05 146.587 376.575C146.78 376.1 147.096 375.685 147.504 375.373C148.28 374.881 149.046 375.242 149.221 376.27Z" fill="#A0A7DE"/>
<path d="M150.491 383.48C150.568 383.987 150.507 384.505 150.315 384.981C150.122 385.456 149.805 385.871 149.397 386.182C148.631 386.674 147.854 386.269 147.679 385.274C147.603 384.767 147.665 384.249 147.857 383.773C148.049 383.298 148.366 382.883 148.773 382.572C149.55 382.079 150.316 382.484 150.491 383.48Z" fill="#A0A7DE"/>
<path d="M152.657 378.075C152.735 378.583 152.675 379.102 152.482 379.577C152.289 380.053 151.972 380.468 151.563 380.778C150.797 381.27 150.02 380.876 149.845 379.881C149.768 379.373 149.829 378.855 150.021 378.379C150.214 377.904 150.531 377.489 150.939 377.178C151.716 376.675 152.482 377.08 152.657 378.075Z" fill="#A0A7DE"/>
<path d="M147.067 381.675C147.143 382.182 147.081 382.7 146.889 383.175C146.696 383.65 146.38 384.065 145.973 384.377C145.196 384.869 144.43 384.475 144.255 383.48C144.175 382.972 144.235 382.453 144.428 381.977C144.62 381.501 144.939 381.087 145.349 380.778C146.115 380.274 146.891 380.712 147.067 381.675Z" fill="#A0A7DE"/>
<path d="M149.287 376.336C149.363 376.843 149.302 377.361 149.109 377.837C148.917 378.312 148.601 378.727 148.193 379.038C147.417 379.53 146.651 379.126 146.476 378.141C146.396 377.634 146.456 377.114 146.648 376.638C146.841 376.163 147.16 375.748 147.57 375.439C148.335 374.914 149.112 375.319 149.287 376.336Z" fill="#A0A7DE"/>
<path d="M150.556 383.513C150.632 384.02 150.57 384.538 150.378 385.013C150.186 385.489 149.869 385.904 149.462 386.215C148.685 386.707 147.919 386.313 147.744 385.318C147.665 384.811 147.724 384.291 147.917 383.815C148.11 383.339 148.428 382.925 148.838 382.616C149.604 382.112 150.381 382.517 150.556 383.513Z" fill="#A0A7DE"/>
<path d="M152.722 378.108C152.799 378.615 152.738 379.134 152.546 379.61C152.353 380.085 152.036 380.5 151.628 380.81C150.851 381.314 150.085 380.909 149.91 379.913C149.832 379.406 149.892 378.887 150.085 378.411C150.277 377.936 150.595 377.521 151.004 377.211C151.77 376.719 152.547 377.113 152.722 378.108Z" fill="#A0A7DE"/>
<path d="M147.121 381.708C147.201 382.215 147.141 382.734 146.948 383.21C146.756 383.686 146.437 384.101 146.027 384.41C145.251 384.913 144.485 384.508 144.31 383.513C144.231 383.006 144.292 382.487 144.484 382.011C144.677 381.535 144.995 381.12 145.404 380.811C146.18 380.318 146.946 380.712 147.121 381.708Z" fill="#A0A7DE"/>
<path d="M149.342 376.336C149.422 376.843 149.362 377.363 149.169 377.839C148.976 378.315 148.658 378.729 148.248 379.038C147.471 379.541 146.705 379.137 146.53 378.141C146.451 377.634 146.51 377.115 146.703 376.639C146.896 376.163 147.214 375.748 147.624 375.439C148.401 374.947 149.167 375.351 149.342 376.336Z" fill="#A0A7DE"/>
<path d="M150.611 383.546C150.69 384.053 150.63 384.572 150.438 385.048C150.245 385.524 149.927 385.939 149.517 386.248C148.74 386.751 147.974 386.346 147.799 385.351C147.721 384.843 147.781 384.324 147.974 383.849C148.166 383.373 148.484 382.958 148.893 382.648C149.67 382.156 150.436 382.55 150.611 383.546Z" fill="#A0A7DE"/>
<path d="M152.777 378.152C152.855 378.659 152.795 379.178 152.602 379.654C152.41 380.13 152.092 380.545 151.683 380.854C150.906 381.347 150.14 380.942 149.965 379.946C149.888 379.441 149.949 378.924 150.141 378.45C150.334 377.976 150.651 377.563 151.059 377.255C151.836 376.752 152.602 377.157 152.777 378.152Z" fill="#A0A7DE"/>
<path d="M147.176 381.806C147.254 382.313 147.194 382.832 147.001 383.308C146.809 383.784 146.491 384.198 146.082 384.508C145.316 385.001 144.539 384.596 144.364 383.611C144.285 383.104 144.344 382.584 144.537 382.109C144.73 381.633 145.048 381.218 145.458 380.909C146.235 380.351 147.001 380.712 147.176 381.806Z" fill="#A0A7DE"/>
<path d="M149.397 376.391C149.474 376.896 149.413 377.413 149.221 377.887C149.028 378.361 148.711 378.774 148.303 379.082C147.526 379.585 146.76 379.18 146.585 378.185C146.507 377.678 146.567 377.159 146.76 376.683C146.952 376.207 147.27 375.792 147.679 375.483C148.456 374.99 149.222 375.395 149.397 376.391Z" fill="#A0A7DE"/>
<path d="M150.666 383.589C150.744 384.096 150.684 384.615 150.491 385.091C150.299 385.567 149.981 385.982 149.572 386.291C148.806 386.784 148.029 386.379 147.854 385.383C147.777 384.878 147.837 384.361 148.03 383.887C148.222 383.413 148.54 383 148.948 382.692C149.725 382.189 150.491 382.594 150.666 383.589Z" fill="#A0A7DE"/>
<path d="M152.831 378.185C152.91 378.692 152.85 379.211 152.657 379.687C152.464 380.162 152.147 380.577 151.737 380.887C150.972 381.379 150.195 380.985 150.02 379.99C149.943 379.483 150.003 378.964 150.196 378.489C150.388 378.013 150.706 377.598 151.114 377.288C151.891 376.785 152.656 377.189 152.831 378.185Z" fill="#A0A7DE"/>
<path d="M147.231 381.806C147.31 382.313 147.251 382.833 147.058 383.308C146.865 383.784 146.547 384.199 146.137 384.508C145.371 385.011 144.605 384.607 144.419 383.611C144.342 383.104 144.403 382.585 144.595 382.11C144.788 381.634 145.105 381.219 145.513 380.909C146.29 380.384 147.056 380.788 147.231 381.806Z" fill="#A0A7DE"/>
<path d="M149.452 376.424C149.53 376.931 149.47 377.45 149.277 377.926C149.084 378.401 148.767 378.816 148.358 379.126C147.592 379.618 146.815 379.213 146.64 378.229C146.563 377.722 146.624 377.203 146.816 376.727C147.009 376.252 147.326 375.837 147.734 375.527C148.511 375.023 149.276 375.428 149.452 376.424Z" fill="#A0A7DE"/>
<path d="M150.721 383.622C150.799 384.129 150.739 384.648 150.546 385.124C150.354 385.6 150.036 386.014 149.627 386.324C148.861 386.817 148.095 386.423 147.92 385.427C147.84 384.92 147.9 384.401 148.093 383.925C148.286 383.449 148.604 383.034 149.014 382.725C149.78 382.222 150.546 382.627 150.721 383.622Z" fill="#A0A7DE"/>
<path d="M152.898 378.218C152.975 378.725 152.914 379.243 152.722 379.719C152.529 380.194 152.212 380.609 151.804 380.92C151.027 381.423 150.261 381.018 150.086 380.023C150.008 379.516 150.068 378.997 150.261 378.521C150.453 378.045 150.771 377.63 151.18 377.321C151.946 376.828 152.723 377.233 152.898 378.218Z" fill="#A0A7DE"/>
<path d="M147.296 381.806C147.371 382.311 147.309 382.828 147.117 383.301C146.925 383.774 146.609 384.188 146.202 384.497C145.425 385 144.66 384.596 144.485 383.6C144.406 383.093 144.466 382.574 144.659 382.098C144.852 381.623 145.169 381.208 145.579 380.898C146.344 380.428 147.121 380.832 147.296 381.806Z" fill="#A0A7DE"/>
<path d="M149.517 376.456C149.594 376.964 149.533 377.482 149.341 377.958C149.148 378.433 148.831 378.848 148.423 379.159C147.646 379.662 146.88 379.257 146.705 378.262C146.627 377.754 146.687 377.235 146.88 376.76C147.072 376.284 147.39 375.869 147.799 375.559C148.565 375.067 149.342 375.461 149.517 376.456Z" fill="#A0A7DE"/>
<path d="M150.786 383.655C150.864 384.162 150.803 384.681 150.61 385.156C150.418 385.632 150.101 386.046 149.692 386.357C148.916 386.86 148.15 386.456 147.975 385.46C147.896 384.953 147.957 384.434 148.149 383.958C148.342 383.482 148.66 383.068 149.069 382.758C149.878 382.266 150.611 382.67 150.786 383.655Z" fill="#A0A7DE"/>
<path d="M152.952 378.262C153.031 378.769 152.97 379.288 152.778 379.763C152.585 380.239 152.267 380.654 151.858 380.964C151.082 381.456 150.316 381.051 150.141 380.067C150.061 379.559 150.121 379.04 150.314 378.564C150.506 378.088 150.825 377.673 151.235 377.364C152.066 376.861 152.777 377.266 152.952 378.262Z" fill="#A0A7DE"/>
<path d="M147.351 381.861C147.429 382.368 147.369 382.887 147.176 383.363C146.984 383.838 146.666 384.253 146.257 384.563C145.48 385.055 144.714 384.65 144.539 383.666C144.46 383.158 144.519 382.639 144.712 382.163C144.905 381.687 145.223 381.273 145.633 380.964C146.41 380.46 147.176 380.865 147.351 381.861Z" fill="#A0A7DE"/>
<path d="M149.572 376.5C149.649 377.007 149.588 377.526 149.395 378.001C149.203 378.477 148.886 378.892 148.478 379.202C147.701 379.695 146.935 379.29 146.76 378.294C146.682 377.787 146.742 377.268 146.934 376.792C147.127 376.317 147.445 375.902 147.854 375.592C148.631 375.1 149.396 375.504 149.572 376.5Z" fill="#A0A7DE"/>
<path d="M150.841 383.699C150.919 384.206 150.859 384.725 150.666 385.2C150.474 385.676 150.156 386.091 149.747 386.401C148.97 386.893 148.204 386.488 148.029 385.504C147.95 384.996 148.01 384.477 148.202 384.001C148.395 383.525 148.713 383.11 149.123 382.801C149.878 382.298 150.666 382.703 150.841 383.699Z" fill="#A0A7DE"/>
<path d="M153.007 378.294C153.087 378.801 153.027 379.321 152.834 379.797C152.642 380.273 152.323 380.687 151.913 380.996C151.147 381.5 150.371 381.095 150.196 380.099C150.118 379.592 150.179 379.074 150.372 378.598C150.564 378.123 150.881 377.708 151.29 377.397C152.066 376.894 152.832 377.299 153.007 378.294Z" fill="#A0A7DE"/>
<path d="M147.406 381.893C147.485 382.401 147.426 382.92 147.233 383.396C147.04 383.872 146.722 384.287 146.312 384.596C145.546 385.099 144.769 384.694 144.594 383.699C144.518 383.191 144.58 382.673 144.772 382.198C144.964 381.723 145.281 381.308 145.688 380.996C146.465 380.504 147.231 380.898 147.406 381.893Z" fill="#A0A7DE"/>
<path d="M170.161 363.35L170.971 363.777L168.17 365.582L167.36 365.155L170.161 363.35Z" fill="#A0A7DE"/>
<path d="M167.995 368.755L168.805 369.181L166.004 370.975L165.194 370.549L167.995 368.755Z" fill="#A0A7DE"/>
<path d="M171.604 367.376L171.451 366.534L173.606 365.155L174.405 365.582L171.604 367.376Z" fill="#A0A7DE"/>
<path d="M165.194 370.549L166.004 370.976L166.638 374.575L165.829 374.159L165.194 370.549Z" fill="#A0A7DE"/>
<path d="M169.264 375.953L170.073 376.38L169.439 372.781L168.782 373.207L169.264 375.953Z" fill="#A0A7DE"/>
<path d="M149.572 376.5C149.649 377.007 149.588 377.526 149.395 378.001C149.203 378.477 148.886 378.892 148.478 379.202C147.701 379.695 146.935 379.29 146.76 378.294C146.682 377.787 146.742 377.268 146.934 376.792C147.127 376.317 147.445 375.902 147.854 375.592C148.631 375.1 149.396 375.504 149.572 376.5Z" fill="#1222AD"/>
<path d="M150.841 383.699C150.919 384.206 150.859 384.725 150.666 385.2C150.474 385.676 150.156 386.091 149.747 386.401C148.97 386.893 148.204 386.488 148.029 385.504C147.95 384.996 148.01 384.477 148.202 384.001C148.395 383.525 148.713 383.11 149.123 382.801C149.878 382.298 150.666 382.703 150.841 383.699Z" fill="#1222AD"/>
<path d="M153.007 378.294C153.087 378.801 153.027 379.321 152.834 379.797C152.642 380.273 152.323 380.687 151.913 380.996C151.147 381.5 150.371 381.095 150.196 380.099C150.118 379.592 150.179 379.074 150.372 378.598C150.564 378.123 150.881 377.708 151.29 377.397C152.066 376.894 152.832 377.299 153.007 378.294Z" fill="#1222AD"/>
<path d="M147.406 381.893C147.485 382.401 147.426 382.92 147.233 383.396C147.04 383.872 146.722 384.287 146.312 384.596C145.546 385.099 144.769 384.694 144.594 383.699C144.518 383.191 144.58 382.673 144.772 382.198C144.964 381.723 145.281 381.308 145.688 380.996C146.465 380.504 147.231 380.898 147.406 381.893Z" fill="#1222AD"/>
<path d="M176.484 70.771L164.723 77.5538C164.788 77.0385 164.821 76.5197 164.822 76.0003V72.598C164.822 66.5372 160.566 64.0757 155.326 67.128C153.06 68.5159 151.126 70.3829 149.659 72.598C148.795 64.94 142.821 62.1393 135.557 66.3293C127.702 70.8694 121.335 81.897 121.335 90.9553V96.0533C121.285 98.0881 121.697 100.108 122.539 101.961L112.769 107.595C111.235 108.597 109.958 109.946 109.042 111.533C108.126 113.12 107.596 114.9 107.496 116.73C107.496 120.088 109.859 121.456 112.769 119.771L176.484 82.991C178.018 81.9891 179.295 80.64 180.211 79.053C181.127 77.4661 181.657 75.6857 181.757 73.8561C181.757 70.4537 179.416 69.0862 176.484 70.771Z" fill="#F0F0F0"/>
<path d="M420.829 376.456L418.641 375.22L420.194 374.52C420.194 374.52 421.408 374.848 421.441 374.903C421.431 375.185 421.402 375.467 421.354 375.745L420.829 376.456Z" fill="#E0E0E0"/>
<path d="M420.829 376.456L418.641 375.22L420.194 374.52C420.194 374.52 421.408 374.848 421.441 374.903C421.431 375.185 421.402 375.467 421.354 375.745L420.829 376.456Z" fill="#1222AD"/>
<path opacity="0.1" d="M420.829 376.456L418.641 375.22L420.194 374.52C420.194 374.52 421.408 374.848 421.441 374.903C421.431 375.185 421.402 375.467 421.354 375.745L420.829 376.456Z" fill="white"/>
<path d="M339.413 417.47C340.383 417.962 341.455 418.217 342.542 418.217C343.629 418.217 344.701 417.962 345.671 417.47L415.84 376.992L310.816 316.341L308.366 314.93L238.196 355.408C236.479 356.403 236.479 358.033 238.196 359.018L339.413 417.47Z" fill="#1222AD"/>
<path opacity="0.8" d="M339.413 417.47C340.383 417.962 341.455 418.217 342.542 418.217C343.629 418.217 344.701 417.962 345.671 417.47L415.84 376.992L310.816 316.341L308.366 314.93L238.196 355.408C236.479 356.403 236.479 358.033 238.196 359.018L339.413 417.47Z" fill="white"/>
<path d="M365.768 340.934L390.241 355.014L406.082 345.868L424.472 356.524V369.772C424.472 371.38 422.667 373.667 422.01 373.295C420.796 373.588 419.616 374.006 418.488 374.542C416.647 375.588 414.939 376.852 413.401 378.305L357.169 345.846L365.768 340.934Z" fill="#E0E0E0"/>
<path d="M365.768 340.934L390.241 355.014L406.082 345.868L424.472 356.524V369.772C424.472 371.38 422.667 373.667 422.01 373.295C420.796 373.588 419.616 374.006 418.488 374.542C416.647 375.588 414.939 376.852 413.401 378.305L357.169 345.846L365.768 340.934Z" fill="#1222AD"/>
<path opacity="0.1" d="M365.768 340.934L390.241 355.014L406.082 345.868L424.472 356.524V369.772C424.472 371.38 422.667 373.667 422.01 373.295C420.796 373.588 419.616 374.006 418.488 374.542C416.647 375.588 414.939 376.852 413.401 378.305L357.169 345.846L365.768 340.934Z" fill="white"/>
<path d="M345.704 417.459L349.938 415.009L413.466 378.338C413.514 377.509 413.816 376.714 414.33 376.062C415.081 375.065 416.026 374.232 417.109 373.612C418.015 373.057 419.046 372.737 420.107 372.682C420.817 372.672 421.51 372.899 422.076 373.327C422.903 371.704 423.306 369.897 423.247 368.076H425.653C425.653 371.358 424.559 374.728 423.214 375.493L421.999 376.205C421.31 376.598 420.763 376.62 420.763 376.205V375.559C420.763 374.837 419.669 374.87 418.313 375.658C416.956 376.445 415.873 377.649 415.873 378.371V379.027C415.873 379.399 414.932 380.231 413.794 380.887L352.355 416.365L345.704 420.194C344.741 420.692 343.67 420.944 342.586 420.927V418.149C343.667 418.193 344.742 417.955 345.704 417.459Z" fill="#1222AD"/>
<path opacity="0.6" d="M345.704 417.459L349.938 415.009L413.466 378.338C413.514 377.509 413.816 376.714 414.33 376.062C415.081 375.065 416.026 374.232 417.109 373.612C418.015 373.057 419.046 372.737 420.107 372.682C420.817 372.672 421.51 372.899 422.076 373.327C422.903 371.704 423.306 369.897 423.247 368.076H425.653C425.653 371.358 424.559 374.728 423.214 375.493L421.999 376.205C421.31 376.598 420.763 376.62 420.763 376.205V375.559C420.763 374.837 419.669 374.87 418.313 375.658C416.956 376.445 415.873 377.649 415.873 378.371V379.027C415.873 379.399 414.932 380.231 413.794 380.887L352.355 416.365L345.704 420.194C344.741 420.692 343.67 420.944 342.586 420.927V418.149C343.667 418.193 344.742 417.955 345.704 417.459Z" fill="white"/>
<path d="M236.884 357.158V359.992C236.92 360.37 237.054 360.732 237.273 361.043C237.491 361.354 237.787 361.602 238.131 361.764L332.729 416.376L339.37 420.205C340.333 420.703 341.404 420.955 342.488 420.938V418.16C341.397 418.186 340.318 417.925 339.359 417.405L335.136 414.965L238.131 358.941C237.786 358.779 237.489 358.529 237.27 358.216C237.051 357.903 236.918 357.538 236.884 357.158Z" fill="#1222AD"/>
<path opacity="0.1" d="M236.884 357.158V359.992C236.92 360.37 237.054 360.732 237.273 361.043C237.491 361.354 237.787 361.602 238.131 361.764L332.729 416.376L339.37 420.205C340.333 420.703 341.404 420.955 342.488 420.938V418.16C341.397 418.186 340.318 417.925 339.359 417.405L335.136 414.965L238.131 358.941C237.786 358.779 237.489 358.529 237.27 358.216C237.051 357.903 236.918 357.538 236.884 357.158Z" fill="white"/>
<path d="M342.542 399.485V415.72C343.266 415.742 343.983 415.572 344.621 415.228L352.279 410.786L410.906 376.938V360.002L342.542 399.485Z" fill="white"/>
<path d="M239.937 342.269V354.751C239.975 355.474 240.183 356.178 240.544 356.805C240.905 357.432 241.409 357.965 242.015 358.362L332.817 410.764L340.475 415.206C341.113 415.549 341.83 415.718 342.554 415.698V401.203L239.937 342.269Z" fill="#F0F0F0"/>
<path d="M410.95 376.916C411.008 376.085 411.317 375.292 411.836 374.64C412.59 373.649 413.535 372.82 414.615 372.201C415.514 371.638 416.542 371.314 417.602 371.26C418.314 371.254 419.009 371.481 419.582 371.905V355.003L410.972 359.981L410.95 376.916Z" fill="#455A64"/>
<path d="M414.396 372.343C413.399 372.932 412.529 373.713 411.836 374.64C411.317 375.292 411.008 376.085 410.95 376.916V360.768H414.385L414.396 372.343Z" fill="#F5F5F5"/>
<path d="M310.795 296.474L415.819 357.125V358.537C415.819 359.313 416.913 359.631 418.259 358.821C419.604 358.011 420.709 357.071 420.709 355.725L420.84 354.39L313.814 292.601L313.388 292.35C313.276 292.547 313.212 292.768 313.202 292.995V293.651C313.224 294.461 312.141 295.719 310.795 296.474Z" fill="#1222AD"/>
<path opacity="0.6" d="M310.795 296.474L415.819 357.125V358.537C415.819 359.313 416.913 359.631 418.259 358.821C419.604 358.011 420.709 357.071 420.709 355.725L420.84 354.39L313.814 292.601L313.388 292.35C313.276 292.547 313.212 292.768 313.202 292.995V293.651C313.224 294.461 312.141 295.719 310.795 296.474Z" fill="white"/>
<path d="M345.704 397.68L414.319 358.055C415.184 357.607 415.982 357.235 416.321 357.41L415.873 357.158L310.849 296.507L309.623 295.796C309.073 295.639 308.495 295.602 307.929 295.687C307.363 295.772 306.822 295.977 306.341 296.288L238.262 335.606C236.544 336.602 236.544 338.221 238.262 339.217L339.501 397.68C340.463 398.162 341.525 398.413 342.602 398.413C343.679 398.413 344.741 398.162 345.704 397.68Z" fill="#1222AD"/>
<path opacity="0.8" d="M345.704 397.68L414.319 358.055C415.184 357.607 415.982 357.235 416.321 357.41L415.873 357.158L310.849 296.507L309.623 295.796C309.073 295.639 308.495 295.602 307.929 295.687C307.363 295.772 306.822 295.977 306.341 296.288L238.262 335.606C236.544 336.602 236.544 338.221 238.262 339.217L339.501 397.68C340.463 398.162 341.525 398.413 342.602 398.413C343.679 398.413 344.741 398.162 345.704 397.68Z" fill="white"/>
<path d="M313.409 292.382L313.836 292.634L420.862 354.456C420.916 354.342 420.994 354.241 421.092 354.161L421.453 353.953L422.229 353.515L423.181 352.957C423.366 352.834 423.587 352.778 423.808 352.798C424.028 352.818 424.236 352.913 424.395 353.067C424.441 353.097 424.481 353.134 424.516 353.176C424.645 353.308 424.752 353.459 424.833 353.624C424.949 353.814 425.045 354.016 425.118 354.226C425.201 354.451 425.271 354.681 425.325 354.915C425.391 355.189 425.435 355.451 425.489 355.736C425.519 355.899 425.537 356.063 425.544 356.228C425.544 356.359 425.544 356.48 425.544 356.633C425.544 356.786 425.544 357.246 425.544 357.563V354.554C425.431 353.566 425.089 352.617 424.546 351.784C424.003 350.95 423.274 350.255 422.415 349.752L321.166 291.288C320.332 290.796 319.395 290.503 318.429 290.433C317.463 290.363 316.494 290.517 315.597 290.884L314.317 291.627L313.77 291.934C313.612 292.048 313.487 292.203 313.409 292.382Z" fill="#1222AD"/>
<path opacity="0.8" d="M313.409 292.382L313.836 292.634L420.862 354.456C420.916 354.342 420.994 354.241 421.092 354.161L421.453 353.953L422.229 353.515L423.181 352.957C423.366 352.834 423.587 352.778 423.808 352.798C424.028 352.818 424.236 352.913 424.395 353.067C424.441 353.097 424.481 353.134 424.516 353.176C424.645 353.308 424.752 353.459 424.833 353.624C424.949 353.814 425.045 354.016 425.118 354.226C425.201 354.451 425.271 354.681 425.325 354.915C425.391 355.189 425.435 355.451 425.489 355.736C425.519 355.899 425.537 356.063 425.544 356.228C425.544 356.359 425.544 356.48 425.544 356.633C425.544 356.786 425.544 357.246 425.544 357.563V354.554C425.431 353.566 425.089 352.617 424.546 351.784C424.003 350.95 423.274 350.255 422.415 349.752L321.166 291.288C320.332 290.796 319.395 290.503 318.429 290.433C317.463 290.363 316.494 290.517 315.597 290.884L314.317 291.627L313.77 291.934C313.612 292.048 313.487 292.203 313.409 292.382Z" fill="white"/>
<path d="M345.704 397.691L349.949 395.229L398.752 367.07L414.33 358.077C415.424 357.421 416.343 357.191 416.398 357.53V358.23C416.398 359.018 417.492 359.018 418.838 358.23C419.337 358.013 419.774 357.676 420.11 357.248C420.446 356.82 420.67 356.316 420.763 355.78V355.014C420.747 354.843 420.771 354.671 420.834 354.511C420.897 354.352 420.996 354.209 421.124 354.095L421.485 353.887L422.262 353.45L423.214 352.892C423.398 352.769 423.619 352.713 423.84 352.733C424.061 352.753 424.268 352.847 424.428 353.001C424.473 353.031 424.514 353.068 424.548 353.11C424.63 353.196 424.7 353.291 424.756 353.395C424.803 353.442 424.84 353.498 424.866 353.559C424.982 353.749 425.077 353.95 425.15 354.161C425.234 354.386 425.303 354.616 425.358 354.85C425.424 355.123 425.467 355.386 425.522 355.67C425.552 355.833 425.57 355.997 425.577 356.163C425.577 356.294 425.577 356.414 425.577 356.567C425.577 356.721 425.577 357.18 425.577 357.497V368.044H423.17V357.497C423.17 357.246 423.17 356.994 423.17 356.753L423.104 356.152C423.109 356.134 423.109 356.115 423.104 356.097C422.886 358.012 421.059 359.718 419.472 360.615C418.591 361.171 417.581 361.488 416.54 361.534C415.738 361.544 414.959 361.26 414.352 360.736L414.134 360.856L413.718 361.108L352.279 396.586L345.704 400.459C344.757 400.943 343.705 401.188 342.641 401.17V398.391C343.704 398.414 344.756 398.173 345.704 397.691Z" fill="#1222AD"/>
<path opacity="0.6" d="M345.704 397.691L349.949 395.229L398.752 367.07L414.33 358.077C415.424 357.421 416.343 357.191 416.398 357.53V358.23C416.398 359.018 417.492 359.018 418.838 358.23C419.337 358.013 419.774 357.676 420.11 357.248C420.446 356.82 420.67 356.316 420.763 355.78V355.014C420.747 354.843 420.771 354.671 420.834 354.511C420.897 354.352 420.996 354.209 421.124 354.095L421.485 353.887L422.262 353.45L423.214 352.892C423.398 352.769 423.619 352.713 423.84 352.733C424.061 352.753 424.268 352.847 424.428 353.001C424.473 353.031 424.514 353.068 424.548 353.11C424.63 353.196 424.7 353.291 424.756 353.395C424.803 353.442 424.84 353.498 424.866 353.559C424.982 353.749 425.077 353.95 425.15 354.161C425.234 354.386 425.303 354.616 425.358 354.85C425.424 355.123 425.467 355.386 425.522 355.67C425.552 355.833 425.57 355.997 425.577 356.163C425.577 356.294 425.577 356.414 425.577 356.567C425.577 356.721 425.577 357.18 425.577 357.497V368.044H423.17V357.497C423.17 357.246 423.17 356.994 423.17 356.753L423.104 356.152C423.109 356.134 423.109 356.115 423.104 356.097C422.886 358.012 421.059 359.718 419.472 360.615C418.591 361.171 417.581 361.488 416.54 361.534C415.738 361.544 414.959 361.26 414.352 360.736L414.134 360.856L413.718 361.108L352.279 396.586L345.704 400.459C344.757 400.943 343.705 401.188 342.641 401.17V398.391C343.704 398.414 344.756 398.173 345.704 397.691Z" fill="white"/>
<path d="M236.884 337.379V340.234C236.918 340.614 237.051 340.979 237.27 341.292C237.489 341.604 237.786 341.855 238.131 342.017L332.729 396.63L339.37 400.47C340.333 400.968 341.404 401.219 342.488 401.203V398.424C341.398 398.448 340.321 398.192 339.359 397.68L335.136 395.24L238.131 339.217C237.778 339.049 237.476 338.791 237.257 338.468C237.038 338.144 236.909 337.768 236.884 337.379Z" fill="#1222AD"/>
<path opacity="0.1" d="M236.884 337.379V340.234C236.918 340.614 237.051 340.979 237.27 341.292C237.489 341.604 237.786 341.855 238.131 342.017L332.729 396.63L339.37 400.47C340.333 400.968 341.404 401.219 342.488 401.203V398.424C341.398 398.448 340.321 398.192 339.359 397.68L335.136 395.24L238.131 339.217C237.778 339.049 237.476 338.791 237.257 338.468C237.038 338.144 236.909 337.768 236.884 337.379Z" fill="white"/>
<path d="M306.254 296.288C306.735 295.977 307.276 295.772 307.842 295.687C308.408 295.602 308.986 295.639 309.536 295.796L310.762 296.507C312.107 295.719 313.19 294.461 313.19 293.684V293.028C313.201 292.801 313.264 292.58 313.376 292.382C313.462 292.205 313.594 292.053 313.759 291.945L314.306 291.638L315.586 290.895C316.483 290.528 317.452 290.374 318.418 290.444C319.384 290.514 320.32 290.807 321.155 291.299L422.404 349.763L422.514 349.828L351.064 391.083C350.419 391.412 349.705 391.584 348.98 391.584C348.256 391.584 347.542 391.412 346.896 391.083L244.99 331.668L306.254 296.288Z" fill="#A0A7DE"/>
<path d="M356.786 385.088L354.084 383.534C354.811 383.281 355.592 383.225 356.349 383.37C357.071 383.742 356.786 385.088 356.786 385.088Z" fill="#1222AD"/>
<path opacity="0.7" d="M356.786 385.088L354.084 383.534C354.811 383.281 355.592 383.225 356.349 383.37C357.071 383.742 356.786 385.088 356.786 385.088Z" fill="black"/>
<path d="M358.646 383.414C358.338 383.081 357.965 382.815 357.55 382.633C357.135 382.451 356.687 382.357 356.233 382.357C355.78 382.357 355.332 382.451 354.917 382.633C354.501 382.815 354.128 383.081 353.821 383.414C351.185 385.832 351.053 388.228 349.959 388.195C348.865 388.162 348.865 368.886 348.865 368.886L359.269 378.524L358.646 383.414Z" fill="#1222AD"/>
<path opacity="0.7" d="M358.646 383.414C358.338 383.081 357.965 382.815 357.55 382.633C357.135 382.451 356.687 382.357 356.233 382.357C355.78 382.357 355.332 382.451 354.917 382.633C354.501 382.815 354.128 383.081 353.821 383.414C351.185 385.832 351.053 388.228 349.959 388.195C348.865 388.162 348.865 368.886 348.865 368.886L359.269 378.524L358.646 383.414Z" fill="black"/>
<path d="M249.88 313.344L249.705 313.245L251.368 312.282L323.003 270.929L427.382 338.473C429.099 339.468 429.406 340.912 428.06 341.678L425.62 343.089L358.667 381.806L358.186 381.456L249.88 313.344Z" fill="#1222AD"/>
<path opacity="0.5" d="M249.88 313.344L249.705 313.245L251.368 312.282L323.003 270.929L427.382 338.473C429.099 339.468 429.406 340.912 428.06 341.678L425.62 343.089L358.667 381.806L358.186 381.456L249.88 313.344Z" fill="black"/>
<path d="M349.73 359.762L354.915 358.668V379.454C351.786 380.789 349.795 382.036 349.445 384.65L349.73 359.762Z" fill="#455A64"/>
<path d="M357.202 379.727L423.531 341.437C424.139 341.042 424.645 340.51 425.008 339.882C425.371 339.255 425.581 338.551 425.62 337.827V317.358L358.646 356.359C358.646 356.359 357.847 359.259 355.473 360.167C353.099 361.075 354.915 362.005 354.915 362.005V379.509C356.961 379.213 357.202 379.727 357.202 379.727Z" fill="#F0F0F0"/>
<path d="M351.087 359.051C351.776 358.657 352.323 358.635 352.323 359.051V359.696C352.323 360.418 353.417 360.386 354.774 359.598C356.13 358.81 357.224 357.607 357.224 356.885V356.228C357.224 355.856 358.154 355.025 359.292 354.369L251.38 292.536L249.706 293.498C249.474 293.745 249.328 294.059 249.29 294.395V295.052C249.29 295.774 248.196 296.988 246.851 297.765C245.505 298.542 244.4 298.585 244.4 297.863V297.207C244.4 296.835 243.853 296.868 243.175 297.262L351.087 359.051Z" fill="#1222AD"/>
<path opacity="0.6" d="M351.087 359.051C351.776 358.657 352.323 358.635 352.323 359.051V359.696C352.323 360.418 353.417 360.386 354.774 359.598C356.13 358.81 357.224 357.607 357.224 356.885V356.228C357.224 355.856 358.154 355.025 359.292 354.369L251.38 292.536L249.706 293.498C249.474 293.745 249.328 294.059 249.29 294.395V295.052C249.29 295.774 248.196 296.988 246.851 297.765C245.505 298.542 244.4 298.585 244.4 297.863V297.207C244.4 296.835 243.853 296.868 243.175 297.262L351.087 359.051Z" fill="black"/>
<path d="M249.88 293.553L249.705 293.455L251.368 292.492L323.003 251.139L427.382 311.418C429.099 312.414 429.406 313.847 428.06 314.623L425.62 316.024L358.646 356.36L249.88 293.553Z" fill="#1222AD"/>
<path opacity="0.5" d="M249.88 293.553L249.705 293.455L251.368 292.492L323.003 251.139L427.382 311.418C429.099 312.414 429.406 313.847 428.06 314.623L425.62 316.024L358.646 356.36L249.88 293.553Z" fill="black"/>
<path d="M244.377 296.54L352.268 358.832L348.493 361.786L241.008 299.734C241.27 298.936 241.77 298.237 242.441 297.732L244.377 296.54Z" fill="#1222AD"/>
<path opacity="0.5" d="M244.377 296.54L352.268 358.832L348.493 361.786L241.008 299.734C241.27 298.936 241.77 298.237 242.441 297.732L244.377 296.54Z" fill="black"/>
<path d="M241.369 327.576C241.302 327.535 241.24 327.487 241.183 327.434C241.133 327.41 241.092 327.372 241.063 327.325C240.974 327.239 240.9 327.139 240.844 327.029C240.795 326.988 240.758 326.935 240.734 326.876C240.617 326.688 240.525 326.486 240.461 326.274C240.37 326.047 240.297 325.813 240.242 325.574C240.176 325.312 240.133 325.049 240.089 324.765C240.051 324.603 240.029 324.438 240.023 324.272V323.868C240.023 323.572 240.023 323.255 240.023 322.938V305.116C240.004 303.245 240.345 301.388 241.03 299.646L348.515 361.698L348.964 389.617L241.489 327.543L241.369 327.576Z" fill="#1222AD"/>
<path opacity="0.7" d="M241.369 327.576C241.302 327.535 241.24 327.487 241.183 327.434C241.133 327.41 241.092 327.372 241.063 327.325C240.974 327.239 240.9 327.139 240.844 327.029C240.795 326.988 240.758 326.935 240.734 326.876C240.617 326.688 240.525 326.486 240.461 326.274C240.37 326.047 240.297 325.813 240.242 325.574C240.176 325.312 240.133 325.049 240.089 324.765C240.051 324.603 240.029 324.438 240.023 324.272V323.868C240.023 323.572 240.023 323.255 240.023 322.938V305.116C240.004 303.245 240.345 301.388 241.03 299.646L348.515 361.698L348.964 389.617L241.489 327.543L241.369 327.576Z" fill="black"/>
<path opacity="0.79" d="M348.439 361.742C348.439 361.742 263.785 322.128 256.083 318.496C250.996 316.1 248.502 321.133 249.705 326.34C250.799 330.891 255.252 335.584 255.252 335.584L241.413 327.587C241.346 327.546 241.284 327.498 241.227 327.445C241.177 327.421 241.136 327.383 241.107 327.336C241.018 327.25 240.944 327.15 240.888 327.04C240.839 326.999 240.802 326.946 240.778 326.887C240.661 326.699 240.569 326.497 240.505 326.285C240.414 326.058 240.341 325.824 240.286 325.585C240.22 325.323 240.177 325.06 240.133 324.776C240.095 324.614 240.073 324.449 240.067 324.283V323.879C240.067 323.583 240.067 323.266 240.067 322.949V305.116C240.048 303.245 240.389 301.388 241.074 299.646L348.439 361.742Z" fill="#A0A7DE"/>
<path d="M347.443 367.179H349.85C349.794 365.36 350.192 363.555 351.01 361.928C351.582 362.353 352.277 362.579 352.99 362.574C354.049 362.52 355.077 362.196 355.977 361.633C357.059 361.017 358.005 360.187 358.755 359.193C358.813 359.125 358.864 359.051 358.908 358.974C359.333 358.369 359.58 357.656 359.62 356.918L423.148 320.247L425.336 318.989L428.093 317.402C428.333 317.293 428.538 317.12 428.687 316.902C428.835 316.684 428.921 316.429 428.935 316.166V313.354C428.924 313.623 428.839 313.882 428.69 314.106C428.542 314.33 428.335 314.509 428.093 314.624L420.796 318.824L359.368 354.303C358.219 354.959 357.289 355.791 357.289 356.163V356.819C357.221 357.235 357.022 357.618 356.72 357.913C356.193 358.547 355.556 359.081 354.839 359.488C353.482 360.276 352.388 360.309 352.388 359.587V358.941C352.388 358.559 351.852 358.591 351.163 358.941L349.949 359.653C348.537 360.528 347.443 363.864 347.443 367.179Z" fill="#1222AD"/>
<path d="M349.85 367.179V385C349.85 385.252 349.85 385.504 349.85 385.744L349.905 386.346C349.9 386.364 349.9 386.383 349.905 386.401C350.124 384.486 351.951 382.78 353.537 381.883C354.421 381.325 355.436 381.009 356.48 380.964C357.282 380.953 358.061 381.237 358.668 381.762L358.876 381.642L359.302 381.39L420.731 345.912L424.264 343.877L425.271 343.286L428.246 341.569C428.442 341.446 428.604 341.277 428.719 341.077C428.833 340.876 428.896 340.651 428.903 340.42V343.231C428.894 343.449 428.835 343.662 428.728 343.852C428.622 344.042 428.471 344.205 428.29 344.325C427.94 344.533 427.568 344.73 427.196 344.96L426.507 345.365L425.325 346.043C425.063 346.207 424.822 346.349 424.592 346.47C424.363 346.59 424.231 346.689 424.078 346.765L423.17 347.301L374.367 375.461L358.788 384.453C357.694 385.11 356.786 385.34 356.721 385C356.717 384.96 356.717 384.92 356.721 384.88V384.256C356.721 383.469 355.627 383.469 354.281 384.256C353.782 384.473 353.345 384.811 353.009 385.239C352.673 385.666 352.448 386.171 352.356 386.707V387.473C352.372 387.644 352.347 387.816 352.285 387.975C352.222 388.135 352.123 388.278 351.995 388.392L351.634 388.6L350.868 389.037L349.916 389.595C349.731 389.718 349.51 389.774 349.29 389.754C349.069 389.734 348.861 389.64 348.702 389.486C348.652 389.461 348.61 389.423 348.581 389.376C348.493 389.294 348.419 389.198 348.362 389.092C348.32 389.046 348.283 388.994 348.253 388.939C348.136 388.751 348.044 388.549 347.98 388.337C347.887 388.114 347.814 387.883 347.761 387.648C347.695 387.374 347.651 387.112 347.608 386.827C347.569 386.666 347.547 386.501 347.542 386.335C347.542 386.204 347.542 386.083 347.542 385.93C347.542 385.777 347.542 385.318 347.542 385V367.179H349.85Z" fill="#1222AD"/>
<g opacity="0.6">
<path d="M347.443 367.179H349.85C349.794 365.36 350.192 363.555 351.01 361.928C351.582 362.353 352.277 362.579 352.99 362.574C354.049 362.52 355.077 362.196 355.977 361.633C357.059 361.017 358.005 360.187 358.755 359.193C358.813 359.125 358.864 359.051 358.908 358.974C359.333 358.369 359.58 357.656 359.62 356.918L423.148 320.247L425.336 318.989L428.093 317.402C428.333 317.293 428.538 317.12 428.687 316.902C428.835 316.684 428.921 316.429 428.935 316.166V313.354C428.924 313.623 428.839 313.882 428.69 314.106C428.542 314.33 428.335 314.509 428.093 314.624L420.796 318.824L359.368 354.303C358.219 354.959 357.289 355.791 357.289 356.163V356.819C357.221 357.235 357.022 357.618 356.72 357.913C356.193 358.547 355.556 359.081 354.839 359.488C353.482 360.276 352.388 360.309 352.388 359.587V358.941C352.388 358.559 351.852 358.591 351.163 358.941L349.949 359.653C348.537 360.528 347.443 363.864 347.443 367.179Z" fill="black"/>
<path d="M349.85 367.179V385.001C349.85 385.252 349.85 385.504 349.85 385.745L349.905 386.346C349.9 386.364 349.9 386.383 349.905 386.401C350.124 384.486 351.951 382.78 353.537 381.883C354.421 381.326 355.436 381.009 356.48 380.964C357.282 380.954 358.061 381.238 358.668 381.762L358.876 381.642L359.302 381.39L420.731 345.912L424.264 343.877L425.271 343.286L428.246 341.569C428.442 341.446 428.604 341.277 428.719 341.077C428.833 340.876 428.896 340.651 428.903 340.42V343.232C428.894 343.45 428.835 343.662 428.728 343.852C428.622 344.043 428.471 344.205 428.29 344.326C427.94 344.534 427.568 344.731 427.196 344.96L426.507 345.365L425.325 346.043C425.063 346.207 424.822 346.35 424.592 346.47C424.363 346.59 424.231 346.689 424.078 346.765L423.17 347.301L374.367 375.461L358.788 384.454C357.694 385.11 356.786 385.34 356.721 385.001C356.717 384.961 356.717 384.92 356.721 384.88V384.257C356.721 383.469 355.627 383.469 354.281 384.257C353.782 384.474 353.345 384.811 353.009 385.239C352.673 385.667 352.448 386.171 352.356 386.707V387.473C352.372 387.644 352.347 387.816 352.285 387.976C352.222 388.135 352.123 388.278 351.995 388.392L351.634 388.6L350.868 389.037L349.916 389.595C349.731 389.718 349.51 389.774 349.29 389.754C349.069 389.734 348.861 389.64 348.702 389.486C348.652 389.462 348.61 389.424 348.581 389.377C348.493 389.295 348.419 389.198 348.362 389.092C348.32 389.046 348.283 388.994 348.253 388.939C348.136 388.751 348.044 388.549 347.98 388.337C347.887 388.114 347.814 387.884 347.761 387.648C347.695 387.375 347.651 387.112 347.608 386.828C347.569 386.666 347.547 386.501 347.542 386.335C347.542 386.204 347.542 386.084 347.542 385.931C347.542 385.777 347.542 385.318 347.542 385.001V367.179H349.85Z" fill="black"/>
</g>
<path d="M240.953 299.679L343.111 358.668L420.325 314.087C420.578 314.003 420.797 313.841 420.952 313.625C421.108 313.409 421.192 313.15 421.192 312.884C421.192 312.618 421.108 312.359 420.952 312.143C420.797 311.927 420.578 311.765 420.325 311.681L319.24 253.305L251.412 292.492L249.738 293.465C249.511 293.71 249.37 294.02 249.333 294.352V295.008C249.333 295.73 248.239 296.944 246.894 297.721C246.825 297.766 246.752 297.803 246.675 297.83L244.421 296.529L243.327 297.141L243.174 297.218L242.386 297.677C241.716 298.184 241.216 298.882 240.953 299.679Z" fill="#A0A7DE"/>
<path d="M414.626 314.525L411.552 312.884L414.352 312.217C414.621 312.531 414.791 312.918 414.84 313.329C414.888 313.74 414.814 314.156 414.626 314.525Z" fill="#E0E0E0"/>
<g style="mix-blend-mode:multiply" opacity="0.5">
<path d="M414.626 314.525L411.552 312.884L414.352 312.217C414.621 312.531 414.791 312.918 414.84 313.329C414.888 313.74 414.814 314.156 414.626 314.525Z" fill="#E0E0E0"/>
</g>
<path d="M333.156 355.55C334.124 356.041 335.194 356.297 336.279 356.297C337.364 356.297 338.434 356.041 339.402 355.55L409.572 315.072L304.548 248.677L302.086 247.255L231.928 293.465C230.21 294.461 230.21 296.08 231.928 297.076L333.156 355.55Z" fill="#1222AD"/>
<path d="M359.499 273.248L412.515 309.175L383.972 287.295L399.813 278.149L418.236 288.816V307.841C418.236 309.46 416.431 311.746 415.775 311.374C414.561 311.668 413.38 312.086 412.252 312.621C410.412 313.668 408.704 314.931 407.165 316.385L350.944 278.171L359.499 273.248Z" fill="#1222AD"/>
<path opacity="0.2" d="M359.499 273.248L412.515 309.175L383.972 287.295L399.813 278.149L418.236 288.816V307.841C418.236 309.46 416.431 311.746 415.775 311.374C414.561 311.668 413.38 312.086 412.252 312.621C410.412 313.668 408.704 314.931 407.165 316.385L350.944 278.171L359.499 273.248Z" fill="black"/>
<path d="M336.273 331.799V353.767C337 353.783 337.72 353.614 338.363 353.275L346.021 348.833L404.659 314.985V292.295L336.273 331.799Z" fill="white"/>
<path d="M233.667 274.594V292.831C233.707 293.553 233.916 294.256 234.277 294.883C234.638 295.51 235.141 296.044 235.746 296.441L326.548 348.844L334.206 353.285C334.845 353.623 335.561 353.793 336.284 353.778V333.517L233.667 274.594Z" fill="#F0F0F0"/>
<path d="M404.692 314.984C404.746 314.155 405.051 313.361 405.568 312.709C406.315 311.712 407.261 310.881 408.346 310.269C409.249 309.706 410.281 309.382 411.344 309.328C412.033 309.259 412.726 309.42 413.313 309.788V287.317L404.703 292.295L404.692 314.984Z" fill="#455A64"/>
<path d="M408.128 310.401C407.135 311.001 406.267 311.784 405.568 312.709C405.051 313.361 404.746 314.155 404.692 314.984V293.104H408.117L408.128 310.401Z" fill="#F5F5F5"/>
<path d="M304.537 228.821L409.561 289.483V290.884C409.561 291.671 410.655 291.978 412.001 291.179C413.346 290.38 414.462 289.418 414.462 288.072L414.594 286.737L307.568 224.948L307.13 224.697C307.02 224.898 306.96 225.123 306.955 225.353V225.998C306.966 226.775 305.883 228.033 304.537 228.821Z" fill="#1222AD"/>
<path opacity="0.2" d="M304.537 228.821L409.561 289.483V290.884C409.561 291.671 410.655 291.978 412.001 291.179C413.346 290.38 414.462 289.418 414.462 288.072L414.594 286.737L307.568 224.948L307.13 224.697C307.02 224.898 306.96 225.123 306.955 225.353V225.998C306.966 226.775 305.883 228.033 304.537 228.821Z" fill="black"/>
<path d="M339.402 329.994L408.062 290.381C408.937 289.921 409.736 289.549 410.064 289.724L409.615 289.483L304.591 228.821L303.355 228.121C302.805 227.958 302.226 227.917 301.659 228.002C301.092 228.087 300.551 228.296 300.073 228.613L231.928 267.921C230.21 268.916 230.21 270.546 231.928 271.531L333.178 329.994C334.143 330.482 335.209 330.736 336.29 330.736C337.371 330.736 338.437 330.482 339.402 329.994Z" fill="#1222AD"/>
<path d="M307.141 224.697L307.578 224.948L414.626 286.737C414.68 286.623 414.759 286.522 414.856 286.442L415.217 286.245L415.983 285.796L416.934 285.239C417.12 285.118 417.34 285.063 417.561 285.083C417.781 285.102 417.988 285.196 418.149 285.348C418.194 285.378 418.234 285.415 418.269 285.457C418.396 285.593 418.506 285.744 418.597 285.906C418.71 286.096 418.802 286.298 418.871 286.508C418.957 286.737 419.03 286.97 419.09 287.208C419.144 287.47 419.199 287.733 419.243 288.017C419.276 288.183 419.298 288.351 419.308 288.521V288.914C419.308 289.21 419.308 289.527 419.308 289.855V286.847C419.199 285.856 418.858 284.905 418.315 284.069C417.772 283.233 417.041 282.536 416.18 282.033L314.93 223.57C314.095 223.078 313.158 222.787 312.192 222.719C311.226 222.65 310.257 222.807 309.361 223.176L308.081 223.92L307.545 224.237C307.369 224.349 307.229 224.508 307.141 224.697Z" fill="#1222AD"/>
<path d="M339.403 355.55L343.637 353.099L407.165 316.417C407.221 315.588 407.526 314.795 408.041 314.142C408.792 313.148 409.737 312.318 410.819 311.702C411.721 311.148 412.748 310.828 413.806 310.772C414.52 310.758 415.218 310.985 415.786 311.418C416.602 309.787 417.001 307.979 416.946 306.156H419.353C419.353 309.438 418.259 312.807 416.913 313.584L415.699 314.295C415.009 314.689 414.473 314.711 414.473 314.295V313.65C414.473 312.928 413.379 312.96 412.012 313.737C410.644 314.514 409.572 315.739 409.572 316.461V317.107C409.572 317.479 408.642 318.31 407.494 318.977L346.055 354.456L339.403 358.296C338.44 358.794 337.369 359.046 336.285 359.029V356.25C337.367 356.287 338.441 356.046 339.403 355.55Z" fill="#1222AD"/>
<path opacity="0.4" d="M339.403 355.55L343.637 353.099L407.165 316.417C407.221 315.588 407.526 314.795 408.041 314.142C408.792 313.148 409.737 312.318 410.819 311.702C411.721 311.148 412.748 310.828 413.806 310.772C414.52 310.758 415.218 310.985 415.786 311.418C416.602 309.787 417.001 307.979 416.946 306.156H419.353C419.353 309.438 418.259 312.807 416.913 313.584L415.699 314.295C415.009 314.689 414.473 314.711 414.473 314.295V313.65C414.473 312.928 413.379 312.96 412.012 313.737C410.644 314.514 409.572 315.739 409.572 316.461V317.107C409.572 317.479 408.642 318.31 407.494 318.977L346.055 354.456L339.403 358.296C338.44 358.794 337.369 359.046 336.285 359.029V356.25C337.367 356.287 338.441 356.046 339.403 355.55Z" fill="black"/>
<path d="M339.381 330.005L343.615 327.554L392.418 299.395L408.062 290.38C409.156 289.735 410.075 289.505 410.141 289.844V290.555C410.141 291.332 411.235 291.332 412.581 290.555C413.081 290.338 413.519 289.998 413.855 289.569C414.191 289.139 414.415 288.632 414.506 288.094V287.328C414.49 287.157 414.514 286.985 414.577 286.826C414.64 286.666 414.739 286.523 414.867 286.409L415.228 286.212L415.994 285.764L416.946 285.206C417.131 285.085 417.351 285.03 417.572 285.05C417.792 285.07 417.999 285.163 418.16 285.315C418.205 285.346 418.246 285.382 418.28 285.425C418.365 285.513 418.439 285.613 418.499 285.72C418.541 285.767 418.577 285.818 418.608 285.873C418.721 286.063 418.813 286.265 418.882 286.475C418.968 286.704 419.041 286.938 419.101 287.175C419.155 287.437 419.21 287.7 419.254 287.984C419.287 288.151 419.309 288.319 419.32 288.488V288.882C419.32 289.177 419.32 289.494 419.32 289.822V306.101H416.913V289.91C416.913 289.658 416.913 289.396 416.913 289.155L416.858 288.553C416.639 290.468 414.812 292.175 413.215 293.072C412.336 293.631 411.324 293.948 410.283 293.991C409.481 294.001 408.702 293.717 408.095 293.192L407.887 293.312L407.461 293.564L346.022 329.042L339.37 332.882C338.419 333.368 337.363 333.612 336.296 333.593V330.815C337.376 330.807 338.437 330.529 339.381 330.005Z" fill="#1222AD"/>
<path opacity="0.4" d="M339.381 330.005L343.615 327.554L392.418 299.395L408.062 290.38C409.156 289.735 410.075 289.505 410.141 289.844V290.555C410.141 291.332 411.235 291.332 412.581 290.555C413.081 290.338 413.519 289.998 413.855 289.569C414.191 289.139 414.415 288.632 414.506 288.094V287.328C414.49 287.157 414.514 286.985 414.577 286.826C414.64 286.666 414.739 286.523 414.867 286.409L415.228 286.212L415.994 285.764L416.946 285.206C417.131 285.085 417.351 285.03 417.572 285.05C417.792 285.07 417.999 285.163 418.16 285.315C418.205 285.346 418.246 285.382 418.28 285.425C418.365 285.513 418.439 285.613 418.499 285.72C418.541 285.767 418.577 285.818 418.608 285.873C418.721 286.063 418.813 286.265 418.882 286.475C418.968 286.704 419.041 286.938 419.101 287.175C419.155 287.437 419.21 287.7 419.254 287.984C419.287 288.151 419.309 288.319 419.32 288.488V288.882C419.32 289.177 419.32 289.494 419.32 289.822V306.101H416.913V289.91C416.913 289.658 416.913 289.396 416.913 289.155L416.858 288.553C416.639 290.468 414.812 292.175 413.215 293.072C412.336 293.631 411.324 293.948 410.283 293.991C409.481 294.001 408.702 293.717 408.095 293.192L407.887 293.312L407.461 293.564L346.022 329.042L339.37 332.882C338.419 333.368 337.363 333.612 336.296 333.593V330.815C337.376 330.807 338.437 330.529 339.381 330.005Z" fill="black"/>
<path d="M230.626 269.693V272.515C230.659 272.894 230.791 273.258 231.007 273.571C231.224 273.884 231.519 274.135 231.862 274.299L326.471 328.911L333.112 332.751C334.071 333.247 335.139 333.499 336.219 333.484V330.705C335.133 330.729 334.059 330.473 333.101 329.961L328.878 327.522L231.928 271.531C231.56 271.377 231.243 271.124 231.013 270.799C230.783 270.474 230.649 270.091 230.626 269.693Z" fill="#1222AD"/>
<path opacity="0.2" d="M230.626 269.693V272.515C230.659 272.894 230.791 273.258 231.007 273.571C231.224 273.884 231.519 274.135 231.862 274.299L326.471 328.911L333.112 332.751C334.071 333.247 335.139 333.499 336.219 333.484V330.705C335.133 330.729 334.059 330.473 333.101 329.961L328.878 327.522L231.928 271.531C231.56 271.377 231.243 271.124 231.013 270.799C230.783 270.474 230.649 270.091 230.626 269.693Z" fill="black"/>
<path d="M230.626 295.227V298.049C230.659 298.428 230.791 298.792 231.007 299.105C231.224 299.418 231.519 299.668 231.862 299.833L326.515 354.456L333.156 358.296C334.115 358.792 335.182 359.044 336.263 359.029V356.25C335.177 356.274 334.103 356.018 333.145 355.506L328.922 353.067L231.928 297.065C231.56 296.911 231.243 296.658 231.013 296.333C230.783 296.008 230.649 295.624 230.626 295.227Z" fill="#1222AD"/>
<path opacity="0.2" d="M230.626 295.227V298.049C230.659 298.428 230.791 298.792 231.007 299.105C231.224 299.418 231.519 299.668 231.862 299.833L326.515 354.456L333.156 358.296C334.115 358.792 335.182 359.044 336.263 359.029V356.25C335.177 356.274 334.103 356.018 333.145 355.506L328.922 353.067L231.928 297.065C231.56 296.911 231.243 296.658 231.013 296.333C230.783 296.008 230.649 295.624 230.626 295.227Z" fill="black"/>
<path d="M274.32 195.968L264.277 213.866L278.915 221.655L289.571 205.792L274.32 195.968Z" fill="#FFA8A7"/>
<path d="M309.952 155.654C304.373 154.702 295.927 154.451 290.435 163.87C284.944 173.29 273.106 196.537 273.106 196.537C273.106 196.537 280.021 205.486 290.031 207.116L306.386 181.166L309.952 155.654Z" fill="#1222AD"/>
<path d="M296.77 374.848H284.276V396.236H296.77V374.848Z" fill="#FFA8A7"/>
<path d="M260.601 369.641L248.108 370.067L247.484 347.433L259.967 347.006L260.601 369.641Z" fill="#FFA8A7"/>
<path d="M284.275 390.066V388.283C283.083 388.797 280.304 399.398 275.348 403.916C271.41 407.515 266.038 411.661 264.671 415.665C263.249 419.834 272.154 422.142 275.83 421.485C280.107 420.731 287.525 417.722 289.384 414.921C291.244 412.121 292.119 408.018 293.629 405.973C295.139 403.927 298.629 401.597 299.449 399.266C299.898 397.964 299.362 395.12 298.738 392.702C298.158 390.514 297.524 388.064 296.769 388.272V389.628C295.861 390.635 293.356 391.63 290.522 391.74C288.695 391.827 284.265 391.466 284.275 390.066Z" fill="#A0A7DE"/>
<path d="M247.977 366.217C247.331 366.217 246.806 367.157 245.373 368.7C243.235 370.86 240.75 372.646 238.021 373.984C233.339 376.336 224.27 379.935 220.134 381.806C217.563 382.966 217.684 386.073 220.342 387.845C223.001 389.617 229.412 390.886 237.124 389.158C241.314 388.217 246.784 384.344 250.252 384.552C253.72 384.76 260.186 384.716 262.735 382.955C265.284 381.193 264.266 377.485 263.544 374.203C262.757 370.68 261.63 365.287 260.459 365.527V366.621C258.96 368.897 251.313 369.827 248.009 368.153L247.977 366.217Z" fill="#A0A7DE"/>
<path d="M347.094 244.782C349.829 264.092 346.142 267.756 327.795 286.289C317.949 296.233 302.032 310.816 302.032 310.816C302.032 310.816 302.262 316.986 302.382 330.815C302.502 342.991 297.415 382.616 297.415 382.616C297.415 382.616 289.123 386.105 283.434 382.484C283.434 382.484 280.863 353.001 279.474 337.63C277.592 316.844 276.607 306.364 277.668 301.889C278.609 297.94 297.284 274.353 301.594 267.746L261.904 290.807C262.673 296.65 263.061 302.538 263.064 308.431C262.626 324.962 260.591 357.979 260.591 357.979C260.591 357.979 251.511 362.037 247.004 358.537C247.004 358.537 235.571 286.333 235.571 280.403C235.571 271.399 274.671 244.52 282.077 238.262C286.3 234.696 291.004 230.834 291.004 230.834L347.094 244.782Z" fill="#455A64"/>
<path d="M301.594 267.756C297.419 264.376 294.277 259.892 292.524 254.814C292.743 258.128 293.215 261.419 293.936 264.66C295.03 268.949 261.903 290.807 261.903 290.807L301.594 267.756Z" fill="#37474F"/>
<path d="M323.653 121.122C325.887 111.586 319.969 102.044 310.433 99.8096C300.897 97.5748 291.356 103.493 289.121 113.029C286.886 122.565 292.804 132.107 302.34 134.341C311.876 136.576 321.418 130.658 323.653 121.122Z" fill="#262626"/>
<path d="M343.648 166.397C343.648 166.397 348.024 169.986 348.024 181.32V205.792L347.4 246.949C338.648 256.477 299.264 252.867 289.517 232.081C289.517 232.081 289.593 188.638 289.593 178.902C289.593 169.165 295.063 156.529 309.942 155.654L329.218 160.14L343.648 166.397Z" fill="#A0A7DE"/>
<path d="M337.04 129.683C337.04 129.683 334.163 143.183 333.014 145.404C332.248 146.773 330.982 147.792 329.48 148.248L329.677 138.752L337.04 129.683Z" fill="#262626"/>
<path d="M333.429 110.341C334.428 110.229 335.439 110.345 336.387 110.68C337.334 111.015 338.193 111.562 338.899 112.277C341.262 114.695 339.938 122.265 336.995 129.683L331.58 130.306L333.429 110.341Z" fill="#262626"/>
<path d="M330.005 130.306C331.099 130.952 332.641 128.873 333.976 127.473C335.311 126.073 339.687 124.191 341.864 128.753C344.041 133.315 339.938 139.616 336.503 140.699C330.574 142.559 329.677 138.752 329.677 138.752L329.228 160.14C324.119 165.85 306.648 164.516 309.941 159.571V153.007C309.941 153.007 304.569 153.827 301.955 153.423C297.579 152.744 294.844 149.309 293.52 144.583C291.398 137.002 290.588 130.886 292.426 115.975C294.406 99.6306 313.409 99.4665 323.671 105.921C333.932 112.376 330.005 130.306 330.005 130.306Z" fill="#FFA8A7"/>
<path d="M314.897 134.048H313.978C312.373 134.048 310.834 133.41 309.7 132.276C308.565 131.141 307.928 129.603 307.928 127.998C307.928 126.394 308.565 124.855 309.7 123.72C310.834 122.586 312.373 121.948 313.978 121.948H314.907C316.512 121.948 318.051 122.586 319.185 123.72C320.32 124.855 320.957 126.394 320.957 127.998C320.957 129.603 320.32 131.141 319.185 132.276C318.051 133.41 316.512 134.048 314.907 134.048H314.897ZM313.978 122.966C312.643 122.966 311.363 123.496 310.419 124.44C309.475 125.383 308.945 126.663 308.945 127.998C308.945 129.333 309.475 130.613 310.419 131.557C311.363 132.5 312.643 133.03 313.978 133.03H314.907C316.242 133.03 317.522 132.5 318.466 131.557C319.41 130.613 319.94 129.333 319.94 127.998C319.94 126.663 319.41 125.383 318.466 124.44C317.522 123.496 316.242 122.966 314.907 122.966H313.978Z" fill="#262626"/>
<path d="M296.474 134.048H295.544C293.939 134.048 292.401 133.41 291.266 132.276C290.132 131.141 289.494 129.603 289.494 127.998C289.494 126.394 290.132 124.855 291.266 123.72C292.401 122.586 293.939 121.948 295.544 121.948H296.474C298.078 121.948 299.617 122.586 300.752 123.72C301.886 124.855 302.524 126.394 302.524 127.998C302.524 129.603 301.886 131.141 300.752 132.276C299.617 133.41 298.078 134.048 296.474 134.048ZM295.544 122.966C294.209 122.966 292.929 123.496 291.986 124.44C291.042 125.383 290.512 126.663 290.512 127.998C290.512 129.333 291.042 130.613 291.986 131.557C292.929 132.5 294.209 133.03 295.544 133.03H296.474C297.809 133.03 299.089 132.5 300.032 131.557C300.976 130.613 301.506 129.333 301.506 127.998C301.506 126.663 300.976 125.383 300.032 124.44C299.089 123.496 297.809 122.966 296.474 122.966H295.544Z" fill="#262626"/>
<path d="M307.994 126.805C307.625 126.304 307.144 125.896 306.589 125.613C306.035 125.33 305.422 125.18 304.799 125.175C304.281 125.123 303.758 125.195 303.272 125.385C302.787 125.576 302.355 125.879 302.01 126.269L301.2 125.657C301.643 125.133 302.208 124.726 302.845 124.473C303.483 124.219 304.172 124.126 304.854 124.202C305.643 124.21 306.419 124.405 307.117 124.772C307.815 125.139 308.416 125.668 308.869 126.313L307.994 126.805Z" fill="#262626"/>
<path d="M333.254 126.762H320.389V127.779H333.254V126.762Z" fill="#262626"/>
<path d="M330.005 132.133C330.552 132.133 332.619 128.698 333.976 127.473C335.847 125.766 333.429 110.341 333.429 110.341C333.429 110.341 335.234 106.501 331.624 102.541C329.064 99.7181 324.775 99.4008 317.456 98.2521C313.617 97.6504 307.796 96.5674 303.957 95.8563C299.384 95.0029 295.587 94.1059 292.36 96.9503C291.093 98.0485 290.197 99.512 289.796 101.14C289.394 102.768 289.507 104.48 290.117 106.041C291.044 107.989 292.692 109.499 294.712 110.253C294.712 110.253 296.703 112.026 303.65 112.868C310.597 113.71 321.417 112.715 322.894 112.507C324.907 112.233 325.333 114.181 326.427 119.519C327.379 124.169 328.2 132.1 330.005 132.133Z" fill="#262626"/>
<path d="M333.419 111.588L339.983 108.054C339.773 107.613 339.475 107.219 339.109 106.896C338.742 106.573 338.314 106.327 337.85 106.174C337.386 106.02 336.895 105.962 336.408 106.004C335.921 106.045 335.448 106.184 335.016 106.413C334.139 106.908 333.484 107.72 333.187 108.683C332.89 109.645 332.973 110.685 333.419 111.588Z" fill="#262626"/>
<path d="M309.952 153.061C309.952 153.061 319.689 151.103 323.08 149.298C325.081 148.253 326.721 146.629 327.785 144.638C327.27 146.621 326.362 148.481 325.115 150.108C322.621 153.291 309.941 155.632 309.941 155.632L309.952 153.061Z" fill="#F28F8F"/>
<path d="M312.293 127.878C312.308 128.262 312.436 128.633 312.661 128.945C312.885 129.257 313.197 129.496 313.556 129.632C313.916 129.768 314.308 129.796 314.683 129.711C315.058 129.626 315.399 129.433 315.665 129.155C315.931 128.877 316.109 128.527 316.177 128.149C316.246 127.771 316.201 127.381 316.049 127.027C315.897 126.674 315.645 126.374 315.323 126.163C315.002 125.952 314.625 125.841 314.241 125.843C313.979 125.848 313.721 125.906 313.482 126.011C313.243 126.116 313.026 126.268 312.846 126.457C312.665 126.646 312.523 126.868 312.428 127.112C312.333 127.356 312.288 127.616 312.293 127.878Z" fill="#262626"/>
<path d="M315.422 119.804L319.601 122.101C319.883 121.532 319.939 120.878 319.758 120.269C319.578 119.66 319.174 119.143 318.627 118.819C318.353 118.668 318.052 118.573 317.741 118.541C317.429 118.508 317.115 118.539 316.816 118.631C316.516 118.723 316.239 118.874 315.999 119.076C315.76 119.277 315.564 119.525 315.422 119.804Z" fill="#262626"/>
<path d="M310.838 141.345L306.386 143.019C306.482 143.317 306.637 143.594 306.842 143.831C307.048 144.069 307.299 144.262 307.581 144.4C307.863 144.538 308.17 144.618 308.483 144.634C308.797 144.65 309.11 144.603 309.405 144.495C310.005 144.258 310.49 143.797 310.757 143.209C311.024 142.622 311.054 141.953 310.838 141.345Z" fill="#F28F8F"/>
<path d="M294.395 121.51L298.202 118.589C298.025 118.335 297.798 118.118 297.535 117.953C297.272 117.789 296.978 117.679 296.671 117.631C296.364 117.583 296.051 117.597 295.75 117.674C295.449 117.75 295.167 117.887 294.92 118.075C294.408 118.47 294.067 119.048 293.969 119.688C293.872 120.327 294.024 120.98 294.395 121.51Z" fill="#262626"/>
<path d="M296.069 127.32C296.084 127.704 296.212 128.075 296.436 128.387C296.661 128.699 296.972 128.938 297.332 129.074C297.691 129.211 298.083 129.238 298.458 129.153C298.833 129.068 299.175 128.875 299.44 128.597C299.706 128.319 299.884 127.97 299.953 127.591C300.021 127.213 299.976 126.823 299.825 126.47C299.673 126.116 299.42 125.816 299.099 125.605C298.777 125.394 298.401 125.283 298.016 125.285C297.755 125.291 297.497 125.348 297.257 125.453C297.018 125.558 296.802 125.71 296.621 125.899C296.44 126.088 296.298 126.311 296.204 126.554C296.109 126.798 296.063 127.058 296.069 127.32Z" fill="#262626"/>
<path d="M305.708 125.755L305.489 137.582L298.498 136.039L305.708 125.755Z" fill="#F28F8F"/>
<path d="M293.761 224.073V225.167C293.761 225.726 293.613 226.276 293.332 226.76C293.052 227.244 292.649 227.645 292.164 227.924L261.784 245.428C261.3 245.707 260.751 245.854 260.192 245.854C259.633 245.854 259.084 245.707 258.6 245.428L202.861 213.253C202.376 212.975 201.973 212.573 201.693 212.089C201.412 211.605 201.264 211.056 201.264 210.496V209.72L260.187 243.732L293.761 224.073Z" fill="#1222AD"/>
<path opacity="0.6" d="M293.761 224.073V225.167C293.761 225.726 293.613 226.276 293.332 226.76C293.052 227.244 292.649 227.645 292.164 227.924L261.784 245.428C261.3 245.707 260.751 245.854 260.192 245.854C259.633 245.854 259.084 245.707 258.6 245.428L202.861 213.253C202.376 212.975 201.973 212.573 201.693 212.089C201.412 211.605 201.264 211.056 201.264 210.496V209.72L260.187 243.732L293.761 224.073Z" fill="black"/>
<path d="M201.296 209.731L234.346 190.651C234.635 190.484 234.963 190.396 235.297 190.396C235.632 190.396 235.96 190.484 236.249 190.651L293.575 223.756C293.638 223.794 293.691 223.847 293.727 223.911C293.764 223.976 293.783 224.048 293.783 224.122C293.783 224.196 293.764 224.269 293.727 224.333C293.691 224.397 293.638 224.451 293.575 224.489L260.219 243.743L201.296 209.731Z" fill="#1222AD"/>
<path opacity="0.5" d="M201.296 209.731L234.346 190.651C234.635 190.484 234.963 190.396 235.297 190.396C235.632 190.396 235.96 190.484 236.249 190.651L293.575 223.756C293.638 223.794 293.691 223.847 293.727 223.911C293.764 223.976 293.783 224.048 293.783 224.122C293.783 224.196 293.764 224.269 293.727 224.333C293.691 224.397 293.638 224.451 293.575 224.489L260.219 243.743L201.296 209.731Z" fill="black"/>
<path d="M260.492 240.943L278.313 230.659L226.195 200.574L208.275 210.803L260.492 240.943Z" fill="#A0A7DE"/>
<path d="M269.255 212.345L268.927 212.531L260.186 217.575L244.651 208.604L244.334 208.418L253.392 203.188L269.255 212.345Z" fill="#A0A7DE"/>
<path d="M268.927 212.531L260.186 217.575L244.651 208.604L253.392 203.561L268.927 212.531Z" fill="#A0A7DE"/>
<path opacity="0.7" d="M260.187 243.743V245.866C259.629 245.865 259.082 245.718 258.6 245.439L202.861 213.264C202.376 212.986 201.973 212.584 201.693 212.1C201.412 211.616 201.264 211.067 201.264 210.507V209.731L260.187 243.743Z" fill="black"/>
<path d="M259.278 244.213C258.748 244.425 258.177 244.512 257.608 244.468C257.039 244.424 256.488 244.251 255.996 243.962L200.508 211.93C200.026 211.653 199.612 211.273 199.294 210.817C198.976 210.361 198.763 209.841 198.67 209.293L192.599 173.06C192.564 172.857 192.546 172.652 192.544 172.447C192.537 171.44 192.931 170.472 193.638 169.756L251.303 203.057C251.669 203.258 251.985 203.538 252.229 203.877C252.473 204.216 252.639 204.605 252.714 205.015L259.278 244.213Z" fill="#1222AD"/>
<path opacity="0.5" d="M259.278 244.213C258.748 244.425 258.177 244.512 257.608 244.468C257.039 244.424 256.488 244.251 255.996 243.962L200.508 211.93C200.026 211.653 199.612 211.273 199.294 210.817C198.976 210.361 198.763 209.841 198.67 209.293L192.599 173.06C192.564 172.857 192.546 172.652 192.544 172.447C192.537 171.44 192.931 170.472 193.638 169.756L251.303 203.057C251.669 203.258 251.985 203.538 252.229 203.877C252.473 204.216 252.639 204.605 252.714 205.015L259.278 244.213Z" fill="black"/>
<path d="M260.186 243.743L259.815 243.962C259.646 244.059 259.471 244.143 259.289 244.213L252.725 205.015C252.656 204.61 252.499 204.224 252.265 203.886C252.03 203.547 251.725 203.264 251.369 203.057L193.704 169.756C193.933 169.53 194.191 169.335 194.47 169.176L252.255 202.532C252.611 202.739 252.917 203.022 253.151 203.36C253.385 203.699 253.543 204.085 253.612 204.49L260.186 243.743Z" fill="#E0E0E0"/>
<path d="M228.034 210.77C227.629 208.352 225.124 205.125 222.443 203.582C219.763 202.04 217.914 202.74 218.33 205.169C218.746 207.597 221.24 210.814 223.92 212.367C226.601 213.921 228.449 213.199 228.034 210.77Z" fill="#1222AD"/>
<path d="M239.4 234.357C239.284 232.787 238.979 231.237 238.492 229.74C237.638 227.06 235.1 216.732 229.302 215.179C228.612 214.971 227.881 214.949 227.18 215.113C225.571 215.551 224.838 217.224 224.521 218.723C224.226 220.938 224.226 223.182 224.521 225.397C223.63 224.377 222.585 223.502 221.425 222.804C220.397 222.029 219.156 221.587 217.87 221.535C217.691 221.526 217.512 221.561 217.35 221.638C217.188 221.714 217.047 221.829 216.94 221.972C216.732 222.355 216.94 222.837 217.268 223.176C217.848 223.876 218.559 224.467 219.139 225.167C219.593 225.778 220.013 226.413 220.397 227.071C221.13 228.252 221.95 229.368 222.771 230.495C224.347 232.836 226.325 234.88 228.613 236.534C231.244 238.315 234.23 239.505 237.365 240.023C241.599 240.549 245.712 240.483 248.381 239.553L239.4 234.357Z" fill="#FFA8A7"/>
<path d="M342.488 166.715C338.582 164.702 332.872 172.677 334.688 181.013C336.504 189.349 345.453 218.658 345.453 218.658C345.453 218.658 305.029 222.268 301.594 222.695C299.198 222.979 296.518 221.765 294.297 221.032C291.278 220.025 288.226 219.325 285.25 218.231C284.732 217.993 284.168 217.874 283.598 217.881C283.312 217.893 283.038 218 282.818 218.184C282.599 218.368 282.446 218.619 282.384 218.898C282.369 219.241 282.457 219.58 282.635 219.872C283.59 221.819 285.024 223.49 286.803 224.729C287.665 225.239 288.485 225.817 289.254 226.458C289.724 226.928 290.764 228.23 290.348 228.941L274.288 238.186C274.288 238.186 277.986 241.402 291.376 237.65C296.203 236.387 300.914 234.714 305.456 232.65C305.456 232.65 353.089 234.63 361.699 232.026C364.74 231.096 365.834 228.941 363.777 219.139C361.425 207.783 354.675 187.074 353.144 181.604C349.785 169.756 348.986 170.029 342.488 166.715Z" fill="#FFA8A7"/>
<path d="M340.474 165.019C340.474 165.019 346.929 166.835 349.708 170.489C352.487 174.143 363.208 209.49 363.208 209.49C360.405 211.828 357.128 213.528 353.603 214.472C350.078 215.417 346.389 215.583 342.794 214.96C342.794 214.96 334.173 190.509 333.254 183.978C331.624 173.859 336.569 165.894 340.474 165.019Z" fill="#1222AD"/>
<path d="M305.642 188.737C305.117 186.002 306.823 184.525 309.46 185.455C310.855 186.028 312.097 186.921 313.085 188.061C314.073 189.201 314.78 190.556 315.149 192.019C315.674 194.787 306.156 191.45 305.642 188.737Z" fill="#1222AD"/>
<path d="M323.681 197.259L315.925 192.325C316.319 194.426 313.485 194.13 310.936 193.244C308.387 192.358 305.269 190.564 304.865 188.463L298.104 188.376C297.48 188.376 297.469 189.185 298.104 189.853C299.777 191.723 303.672 195.038 311.855 197.894C320.038 200.749 323.178 199.863 324.36 198.988C324.743 198.659 324.392 197.708 323.681 197.259Z" fill="#1222AD"/>
</svg>
