<svg width="144" height="10" viewBox="0 0 144 10" fill="none" xmlns="http://www.w3.org/2000/svg">
<path id="Vector" d="M133.368 5.98228C128.271 5.98228 123.175 6.05097 118.078 5.96355C113.992 5.89486 109.905 5.52645 105.812 5.48274C102.275 5.44527 98.7145 5.45775 95.2013 5.8449C87.8226 6.65043 80.4797 7.8431 73.095 8.59867C69.54 8.96085 66.0628 8.35514 62.5974 6.91894C56.9454 4.5773 51.0842 5.70752 45.3306 6.93142C41.9728 7.64328 38.6449 8.49876 35.2871 9.16691C32.3057 9.76013 29.653 9.20438 27.2332 6.96265C24.7955 4.70219 21.6528 5.26417 18.8328 5.9573C14.7342 6.9564 10.7251 8.36138 6.69223 9.64772C4.16494 10.4532 1.8826 9.92248 0.341128 7.58709C-0.16672 6.81903 -0.0412497 5.32037 0.287358 4.34001C0.424776 3.92788 2.06183 3.57194 2.64735 3.9029C4.51743 4.95819 6.1545 4.24011 7.89313 3.70309C13.0075 2.12327 18.1338 0.431041 23.5528 0.911857C25.3094 1.06797 27.3049 1.49259 28.6672 2.5354C31.4334 4.65848 34.2774 4.25883 37.2349 3.72805C42.3313 2.81013 47.4038 1.72987 52.5181 0.955572C56.324 0.38109 60.0642 0.874389 63.7207 2.3543C68.3033 4.20264 73.1129 3.72807 77.8389 3.15983C85.7374 2.21069 93.5941 0.755743 101.511 0.087596C105.884 -0.280822 110.341 0.624604 114.768 0.743247C120.683 0.899356 126.604 0.811935 132.525 0.899356C135.578 0.943067 138.649 1.01176 141.678 1.37393C142.527 1.47384 143.764 2.53539 143.943 3.36589C144.307 5.03938 142.855 5.15803 141.649 5.22672C138.894 5.39532 136.14 5.57639 133.386 5.75747C133.386 5.83241 133.38 5.90734 133.374 5.97603L133.368 5.98228Z" fill="#1222AD"/>
</svg>
